# MagicaVoxel @ Ephtracy

# group
o shroom2

# material
mtllib mushrooms-0-shroom2.mtl
usemtl palette

# normals
vn -1 0 0
vn 1 0 0
vn 0 0 1
vn 0 0 -1
vn 0 -1 0
vn 0 1 0

# texcoords
vt 0.908203 0.5
vt 0.939453 0.5
vt 0.943359 0.5
vt 0.947266 0.5

# verts
v -0.6 0.4 1.5
v -0.6 0.4 0.9
v -0.6 0.5 1.5
v -0.6 0.5 1.4
v -0.6 0.5 1
v -0.6 0.5 0.9
v -0.6 0.6 1.4
v -0.6 0.6 1
v -0.5 0.4 1.6
v -0.5 0.4 1.5
v -0.5 0.4 0.9
v -0.5 0.4 0.8
v -0.5 0.5 1.6
v -0.5 0.5 1.5
v -0.5 0.5 1.4
v -0.5 0.5 1
v -0.5 0.5 0.9
v -0.5 0.5 0.8
v -0.5 0.6 1.5
v -0.5 0.6 1.4
v -0.5 0.6 1
v -0.5 0.6 0.9
v -0.5 0.7 1.4
v -0.5 0.7 1
v -0.4 0.5 1.6
v -0.4 0.5 1.5
v -0.4 0.5 0.9
v -0.4 0.5 0.8
v -0.4 0.6 1.6
v -0.4 0.6 1.5
v -0.4 0.6 1.4
v -0.4 0.6 1
v -0.4 0.6 0.9
v -0.4 0.6 0.8
v -0.4 0.7 1.5
v -0.4 0.7 1.4
v -0.4 0.7 1
v -0.4 0.7 0.9
v -0.4 0.8 1.4
v -0.4 0.8 1
v -0.3 0 1.3
v -0.3 0 1.1
v -0.3 0.6 1.3
v -0.3 0.7 1.3
v -0.3 0.7 1.1
v -0.0999999 0.5 1.5
v -0.0999999 0.5 1.4
v -0.0999999 0.5 1.1
v -0.0999999 0.5 0.9
v -0.0999999 0.6 1.5
v -0.0999999 0.6 1.4
v -0.0999999 0.6 1
v -0.0999999 0.6 0.9
v -0.0999999 0.7 1.1
v -0.0999999 0.7 1
v 5.96046e-008 0.6 1.4
v 5.96046e-008 0.6 1.1
v 5.96046e-008 0.7 1.4
v 5.96046e-008 0.7 1.1
v 0.1 0.4 1.5
v 0.1 0.4 0.9
v 0.1 0.5 1.5
v 0.1 0.5 1.4
v 0.1 0.5 1.1
v 0.1 0.5 1
v 0.1 0.5 0.9
v 0.1 0.6 1.4
v 0.1 0.6 1.1
v -0.5 0.4 1.5
v -0.5 0.4 0.9
v -0.5 0.5 1.5
v -0.5 0.5 1.4
v -0.5 0.5 1.3
v -0.5 0.5 1
v -0.5 0.5 0.9
v -0.5 0.6 1.3
v -0.5 0.6 1
v -0.4 0.5 1.4
v -0.4 0.5 1.3
v -0.4 0.6 1.4
v -0.4 0.6 1.3
v -0.4 0.6 1
v -0.4 0.7 1.3
v -0.4 0.7 1
v -0.3 0.5 1.5
v -0.3 0.5 1.4
v -0.3 0.5 1
v -0.3 0.5 0.9
v -0.3 0.6 1.5
v -0.3 0.6 1.4
v -0.3 0.6 1.3
v -0.3 0.6 1
v -0.3 0.6 0.9
v -0.3 0.7 1.4
v -0.3 0.7 1.3
v -0.0999999 0 1.3
v -0.0999999 0 1.1
v -0.0999999 0.5 1.1
v -0.0999999 0.7 1.3
v -0.0999999 0.7 1.1
v 5.96046e-008 0.5 1.6
v 5.96046e-008 0.5 1.5
v 5.96046e-008 0.5 0.9
v 5.96046e-008 0.5 0.8
v 5.96046e-008 0.6 1.6
v 5.96046e-008 0.6 1.5
v 5.96046e-008 0.6 1.4
v 5.96046e-008 0.6 1
v 5.96046e-008 0.6 0.9
v 5.96046e-008 0.6 0.8
v 5.96046e-008 0.7 1.5
v 5.96046e-008 0.7 1.4
v 5.96046e-008 0.7 1
v 5.96046e-008 0.7 0.9
v 5.96046e-008 0.8 1.4
v 5.96046e-008 0.8 1
v 0.1 0.4 1.6
v 0.1 0.4 1.5
v 0.1 0.4 0.9
v 0.1 0.4 0.8
v 0.1 0.5 1.6
v 0.1 0.5 1.5
v 0.1 0.5 1.4
v 0.1 0.5 1
v 0.1 0.5 0.9
v 0.1 0.5 0.8
v 0.1 0.6 1.5
v 0.1 0.6 1.4
v 0.1 0.6 1
v 0.1 0.6 0.9
v 0.1 0.7 1.4
v 0.1 0.7 1
v 0.2 0.4 1.5
v 0.2 0.4 0.9
v 0.2 0.5 1.5
v 0.2 0.5 1.4
v 0.2 0.5 1
v 0.2 0.5 0.9
v 0.2 0.6 1.4
v 0.2 0.6 1
v -0.5 0.4 1.6
v -0.5 0.5 1.6
v -0.4 0.5 1.6
v -0.4 0.6 1.6
v 5.96046e-008 0.5 1.6
v 5.96046e-008 0.6 1.6
v 0.1 0.4 1.6
v 0.1 0.5 1.6
v -0.6 0.4 1.5
v -0.6 0.5 1.5
v -0.5 0.4 1.5
v -0.5 0.5 1.5
v -0.5 0.6 1.5
v -0.4 0.5 1.5
v -0.4 0.6 1.5
v -0.4 0.7 1.5
v 5.96046e-008 0.5 1.5
v 5.96046e-008 0.6 1.5
v 5.96046e-008 0.7 1.5
v 0.1 0.4 1.5
v 0.1 0.5 1.5
v 0.1 0.6 1.5
v 0.2 0.4 1.5
v 0.2 0.5 1.5
v -0.6 0.5 1.4
v -0.6 0.6 1.4
v -0.5 0.5 1.4
v -0.5 0.6 1.4
v -0.5 0.7 1.4
v -0.4 0.6 1.4
v -0.4 0.7 1.4
v -0.4 0.8 1.4
v 5.96046e-008 0.6 1.4
v 5.96046e-008 0.7 1.4
v 5.96046e-008 0.8 1.4
v 0.1 0.5 1.4
v 0.1 0.6 1.4
v 0.1 0.7 1.4
v 0.2 0.5 1.4
v 0.2 0.6 1.4
v -0.3 0 1.3
v -0.3 0.6 1.3
v -0.3 0.7 1.3
v -0.0999999 0 1.3
v -0.0999999 0.7 1.3
v -0.0999999 0.5 1.1
v -0.0999999 0.7 1.1
v 5.96046e-008 0.6 1.1
v 5.96046e-008 0.7 1.1
v 0.1 0.5 1.1
v 0.1 0.6 1.1
v -0.5 0.5 1
v -0.5 0.6 1
v -0.4 0.5 1
v -0.4 0.6 1
v -0.4 0.7 1
v -0.3 0.5 1
v -0.3 0.6 1
v -0.0999999 0.6 1
v -0.0999999 0.7 1
v -0.5 0.4 0.9
v -0.5 0.5 0.9
v -0.4 0.5 0.9
v -0.3 0.5 0.9
v -0.3 0.6 0.9
v -0.0999999 0.5 0.9
v -0.0999999 0.6 0.9
v 5.96046e-008 0.5 0.9
v 0.1 0.4 0.9
v 0.1 0.5 0.9
v -0.5 0.4 1.5
v -0.5 0.5 1.5
v -0.4 0.5 1.5
v -0.3 0.5 1.5
v -0.3 0.6 1.5
v -0.0999999 0.5 1.5
v -0.0999999 0.6 1.5
v 5.96046e-008 0.5 1.5
v 0.1 0.4 1.5
v 0.1 0.5 1.5
v -0.4 0.5 1.4
v -0.4 0.6 1.4
v -0.3 0.5 1.4
v -0.3 0.6 1.4
v -0.3 0.7 1.4
v -0.0999999 0.5 1.4
v -0.0999999 0.6 1.4
v 5.96046e-008 0.5 1.4
v 5.96046e-008 0.6 1.4
v 5.96046e-008 0.7 1.4
v 0.1 0.5 1.4
v 0.1 0.6 1.4
v -0.5 0.5 1.3
v -0.5 0.6 1.3
v -0.4 0.5 1.3
v -0.4 0.6 1.3
v -0.4 0.7 1.3
v -0.3 0.6 1.3
v -0.3 0.7 1.3
v -0.3 0 1.1
v -0.3 0.7 1.1
v -0.0999999 0 1.1
v -0.0999999 0.5 1.1
v -0.0999999 0.7 1.1
v -0.6 0.5 1
v -0.6 0.6 1
v -0.5 0.5 1
v -0.5 0.6 1
v -0.5 0.7 1
v -0.4 0.6 1
v -0.4 0.7 1
v -0.4 0.8 1
v 5.96046e-008 0.6 1
v 5.96046e-008 0.7 1
v 5.96046e-008 0.8 1
v 0.1 0.5 1
v 0.1 0.6 1
v 0.1 0.7 1
v 0.2 0.5 1
v 0.2 0.6 1
v -0.6 0.4 0.9
v -0.6 0.5 0.9
v -0.5 0.4 0.9
v -0.5 0.5 0.9
v -0.5 0.6 0.9
v -0.4 0.5 0.9
v -0.4 0.6 0.9
v -0.4 0.7 0.9
v 5.96046e-008 0.5 0.9
v 5.96046e-008 0.6 0.9
v 5.96046e-008 0.7 0.9
v 0.1 0.4 0.9
v 0.1 0.5 0.9
v 0.1 0.6 0.9
v 0.2 0.4 0.9
v 0.2 0.5 0.9
v -0.5 0.4 0.8
v -0.5 0.5 0.8
v -0.4 0.5 0.8
v -0.4 0.6 0.8
v 5.96046e-008 0.5 0.8
v 5.96046e-008 0.6 0.8
v 0.1 0.4 0.8
v 0.1 0.5 0.8
v -0.3 0 1.3
v -0.0999999 0 1.3
v -0.3 0 1.1
v -0.0999999 0 1.1
v -0.5 0.4 1.6
v 0.1 0.4 1.6
v -0.6 0.4 1.5
v -0.5 0.4 1.5
v 0.1 0.4 1.5
v 0.2 0.4 1.5
v -0.6 0.4 0.9
v -0.5 0.4 0.9
v 0.1 0.4 0.9
v 0.2 0.4 0.9
v -0.5 0.4 0.8
v 0.1 0.4 0.8
v -0.5 0.5 1.5
v -0.4 0.5 1.5
v -0.3 0.5 1.5
v -0.0999999 0.5 1.5
v 5.96046e-008 0.5 1.5
v 0.1 0.5 1.5
v -0.5 0.5 1.4
v -0.4 0.5 1.4
v -0.3 0.5 1.4
v -0.0999999 0.5 1.4
v 5.96046e-008 0.5 1.4
v 0.1 0.5 1.4
v -0.5 0.5 1.3
v -0.4 0.5 1.3
v -0.0999999 0.5 1.1
v 0.1 0.5 1.1
v -0.5 0.5 1
v -0.4 0.5 1
v -0.3 0.5 1
v 5.96046e-008 0.5 1
v 0.1 0.5 1
v -0.5 0.5 0.9
v -0.4 0.5 0.9
v -0.3 0.5 0.9
v -0.0999999 0.5 0.9
v 5.96046e-008 0.5 0.9
v 0.1 0.5 0.9
v -0.3 0.6 1.5
v -0.0999999 0.6 1.5
v -0.4 0.6 1.4
v -0.3 0.6 1.4
v -0.0999999 0.6 1.4
v 5.96046e-008 0.6 1.4
v 0.1 0.6 1.4
v -0.5 0.6 1.3
v -0.4 0.6 1.3
v -0.3 0.6 1.3
v 5.96046e-008 0.6 1.1
v 0.1 0.6 1.1
v -0.5 0.6 1
v -0.4 0.6 1
v -0.3 0.6 1
v -0.0999999 0.6 1
v -0.3 0.6 0.9
v -0.0999999 0.6 0.9
v -0.3 0.7 1.4
v 5.96046e-008 0.7 1.4
v -0.4 0.7 1.3
v -0.3 0.7 1.3
v -0.0999999 0.7 1.3
v -0.3 0.7 1.1
v -0.0999999 0.7 1.1
v 5.96046e-008 0.7 1.1
v -0.4 0.7 1
v -0.0999999 0.7 1
v -0.5 0.5 1.6
v -0.4 0.5 1.6
v 5.96046e-008 0.5 1.6
v 0.1 0.5 1.6
v -0.6 0.5 1.5
v -0.5 0.5 1.5
v -0.4 0.5 1.5
v 5.96046e-008 0.5 1.5
v 0.1 0.5 1.5
v 0.2 0.5 1.5
v -0.6 0.5 1.4
v -0.5 0.5 1.4
v 0.1 0.5 1.4
v 0.2 0.5 1.4
v -0.6 0.5 1
v -0.5 0.5 1
v 0.1 0.5 1
v 0.2 0.5 1
v -0.6 0.5 0.9
v -0.5 0.5 0.9
v -0.4 0.5 0.9
v 5.96046e-008 0.5 0.9
v 0.1 0.5 0.9
v 0.2 0.5 0.9
v -0.5 0.5 0.8
v -0.4 0.5 0.8
v 5.96046e-008 0.5 0.8
v 0.1 0.5 0.8
v -0.4 0.6 1.6
v 5.96046e-008 0.6 1.6
v -0.5 0.6 1.5
v -0.4 0.6 1.5
v 5.96046e-008 0.6 1.5
v 0.1 0.6 1.5
v -0.6 0.6 1.4
v -0.5 0.6 1.4
v -0.4 0.6 1.4
v 5.96046e-008 0.6 1.4
v 0.1 0.6 1.4
v 0.2 0.6 1.4
v -0.6 0.6 1
v -0.5 0.6 1
v -0.4 0.6 1
v 5.96046e-008 0.6 1
v 0.1 0.6 1
v 0.2 0.6 1
v -0.5 0.6 0.9
v -0.4 0.6 0.9
v 5.96046e-008 0.6 0.9
v 0.1 0.6 0.9
v -0.4 0.6 0.8
v 5.96046e-008 0.6 0.8
v -0.4 0.7 1.5
v 5.96046e-008 0.7 1.5
v -0.5 0.7 1.4
v -0.4 0.7 1.4
v 5.96046e-008 0.7 1.4
v 0.1 0.7 1.4
v -0.5 0.7 1
v -0.4 0.7 1
v 5.96046e-008 0.7 1
v 0.1 0.7 1
v -0.4 0.7 0.9
v 5.96046e-008 0.7 0.9
v -0.4 0.8 1.4
v 5.96046e-008 0.8 1.4
v -0.4 0.8 1
v 5.96046e-008 0.8 1

# faces
f 3/1/1 2/1/1 1/1/1
f 4/1/1 2/1/1 3/1/1
f 5/1/1 2/1/1 4/1/1
f 6/1/1 2/1/1 5/1/1
f 7/1/1 5/1/1 4/1/1
f 8/1/1 5/1/1 7/1/1
f 13/1/1 10/1/1 9/1/1
f 14/1/1 10/1/1 13/1/1
f 17/1/1 12/1/1 11/1/1
f 18/1/1 12/1/1 17/1/1
f 19/1/1 15/1/1 14/1/1
f 20/1/1 15/1/1 19/1/1
f 21/1/1 17/1/1 16/1/1
f 22/1/1 17/1/1 21/1/1
f 23/1/1 21/1/1 20/1/1
f 24/1/1 21/1/1 23/1/1
f 29/1/1 26/1/1 25/1/1
f 30/1/1 26/1/1 29/1/1
f 33/1/1 28/1/1 27/1/1
f 34/1/1 28/1/1 33/1/1
f 35/1/1 31/1/1 30/1/1
f 36/1/1 31/1/1 35/1/1
f 37/1/1 33/1/1 32/1/1
f 38/1/1 33/1/1 37/1/1
f 39/1/1 37/1/1 36/1/1
f 40/1/1 37/1/1 39/1/1
f 43/2/1 42/2/1 41/2/1
f 44/2/1 42/2/1 43/2/1
f 45/2/1 42/2/1 44/2/1
f 50/4/1 47/4/1 46/4/1
f 51/4/1 47/4/1 50/4/1
f 52/4/1 49/4/1 48/4/1
f 53/4/1 49/4/1 52/4/1
f 54/4/1 52/4/1 48/4/1
f 55/4/1 52/4/1 54/4/1
f 58/1/1 57/1/1 56/1/1
f 59/1/1 57/1/1 58/1/1
f 62/1/1 61/1/1 60/1/1
f 63/1/1 61/1/1 62/1/1
f 64/1/1 61/1/1 63/1/1
f 65/1/1 61/1/1 64/1/1
f 66/1/1 61/1/1 65/1/1
f 67/1/1 64/1/1 63/1/1
f 68/1/1 64/1/1 67/1/1
f 69/1/2 70/1/2 71/1/2
f 71/1/2 70/1/2 72/1/2
f 72/1/2 70/1/2 73/1/2
f 73/1/2 70/1/2 74/1/2
f 74/1/2 70/1/2 75/1/2
f 73/1/2 74/1/2 76/1/2
f 76/1/2 74/1/2 77/1/2
f 78/4/2 79/4/2 80/4/2
f 80/4/2 79/4/2 81/4/2
f 81/1/2 82/1/2 83/1/2
f 83/1/2 82/1/2 84/1/2
f 85/4/2 86/4/2 89/4/2
f 89/4/2 86/4/2 90/4/2
f 87/3/2 88/3/2 92/3/2
f 92/3/2 88/3/2 93/3/2
f 90/4/2 91/4/2 94/4/2
f 94/4/2 91/4/2 95/4/2
f 96/2/2 97/2/2 98/2/2
f 96/2/2 98/2/2 99/2/2
f 99/2/2 98/2/2 100/2/2
f 101/1/2 102/1/2 105/1/2
f 105/1/2 102/1/2 106/1/2
f 103/1/2 104/1/2 109/1/2
f 109/1/2 104/1/2 110/1/2
f 106/1/2 107/1/2 111/1/2
f 111/1/2 107/1/2 112/1/2
f 108/1/2 109/1/2 113/1/2
f 113/1/2 109/1/2 114/1/2
f 112/1/2 113/1/2 115/1/2
f 115/1/2 113/1/2 116/1/2
f 117/1/2 118/1/2 121/1/2
f 121/1/2 118/1/2 122/1/2
f 119/1/2 120/1/2 125/1/2
f 125/1/2 120/1/2 126/1/2
f 122/1/2 123/1/2 127/1/2
f 127/1/2 123/1/2 128/1/2
f 124/1/2 125/1/2 129/1/2
f 129/1/2 125/1/2 130/1/2
f 128/1/2 129/1/2 131/1/2
f 131/1/2 129/1/2 132/1/2
f 133/1/2 134/1/2 135/1/2
f 135/1/2 134/1/2 136/1/2
f 136/1/2 134/1/2 137/1/2
f 137/1/2 134/1/2 138/1/2
f 136/1/2 137/1/2 139/1/2
f 139/1/2 137/1/2 140/1/2
f 143/1/3 142/1/3 141/1/3
f 145/1/3 143/1/3 141/1/3
f 145/1/3 144/1/3 143/1/3
f 146/1/3 144/1/3 145/1/3
f 147/1/3 145/1/3 141/1/3
f 148/1/3 145/1/3 147/1/3
f 151/1/3 150/1/3 149/1/3
f 152/1/3 150/1/3 151/1/3
f 154/1/3 153/1/3 152/1/3
f 155/1/3 153/1/3 154/1/3
f 158/1/3 156/1/3 155/1/3
f 159/1/3 156/1/3 158/1/3
f 161/1/3 158/1/3 157/1/3
f 162/1/3 158/1/3 161/1/3
f 163/1/3 161/1/3 160/1/3
f 164/1/3 161/1/3 163/1/3
f 167/1/3 166/1/3 165/1/3
f 168/1/3 166/1/3 167/1/3
f 170/1/3 169/1/3 168/1/3
f 171/1/3 169/1/3 170/1/3
f 174/1/3 172/1/3 171/1/3
f 175/1/3 172/1/3 174/1/3
f 177/1/3 174/1/3 173/1/3
f 178/1/3 174/1/3 177/1/3
f 179/1/3 177/1/3 176/1/3
f 180/1/3 177/1/3 179/1/3
f 184/2/3 182/2/3 181/2/3
f 184/2/3 183/2/3 182/2/3
f 185/2/3 183/2/3 184/2/3
f 188/4/3 187/4/3 186/4/3
f 189/4/3 187/4/3 188/4/3
f 190/4/3 188/4/3 186/4/3
f 191/4/3 188/4/3 190/4/3
f 194/1/3 193/1/3 192/1/3
f 195/1/3 193/1/3 194/1/3
f 197/3/3 195/3/3 194/3/3
f 198/1/3 196/1/3 195/1/3
f 198/3/3 195/3/3 197/3/3
f 199/1/3 196/1/3 198/1/3
f 200/1/3 196/1/3 199/1/3
f 203/1/3 202/1/3 201/1/3
f 204/1/3 203/1/3 201/1/3
f 206/1/3 204/1/3 201/1/3
f 206/1/3 205/1/3 204/1/3
f 207/1/3 205/1/3 206/1/3
f 208/1/3 206/1/3 201/1/3
f 209/1/3 208/1/3 201/1/3
f 210/1/3 208/1/3 209/1/3
f 211/1/4 212/1/4 213/1/4
f 211/1/4 213/1/4 214/1/4
f 211/1/4 214/1/4 216/1/4
f 214/1/4 215/1/4 216/1/4
f 216/1/4 215/1/4 217/1/4
f 211/1/4 216/1/4 218/1/4
f 211/1/4 218/1/4 219/1/4
f 219/1/4 218/1/4 220/1/4
f 221/4/4 222/4/4 223/4/4
f 223/4/4 222/4/4 224/4/4
f 224/1/4 225/1/4 227/1/4
f 226/4/4 227/4/4 228/4/4
f 227/1/4 225/1/4 229/1/4
f 228/4/4 227/4/4 229/4/4
f 229/1/4 225/1/4 230/1/4
f 228/1/4 229/1/4 231/1/4
f 231/1/4 229/1/4 232/1/4
f 233/4/4 234/4/4 235/4/4
f 235/4/4 234/4/4 236/4/4
f 236/4/4 237/4/4 238/4/4
f 238/4/4 237/4/4 239/4/4
f 240/2/4 241/2/4 242/2/4
f 242/2/4 241/2/4 243/2/4
f 243/2/4 241/2/4 244/2/4
f 245/1/4 246/1/4 247/1/4
f 247/1/4 246/1/4 248/1/4
f 248/1/4 249/1/4 250/1/4
f 250/1/4 249/1/4 251/1/4
f 251/1/4 252/1/4 254/1/4
f 254/1/4 252/1/4 255/1/4
f 253/1/4 254/1/4 257/1/4
f 257/1/4 254/1/4 258/1/4
f 256/1/4 257/1/4 259/1/4
f 259/1/4 257/1/4 260/1/4
f 261/1/4 262/1/4 263/1/4
f 263/1/4 262/1/4 264/1/4
f 264/1/4 265/1/4 266/1/4
f 266/1/4 265/1/4 267/1/4
f 267/1/4 268/1/4 270/1/4
f 270/1/4 268/1/4 271/1/4
f 269/1/4 270/1/4 273/1/4
f 273/1/4 270/1/4 274/1/4
f 272/1/4 273/1/4 275/1/4
f 275/1/4 273/1/4 276/1/4
f 277/1/4 278/1/4 279/1/4
f 277/1/4 279/1/4 281/1/4
f 279/1/4 280/1/4 281/1/4
f 281/1/4 280/1/4 282/1/4
f 277/1/4 281/1/4 283/1/4
f 283/1/4 281/1/4 284/1/4
f 287/2/5 286/2/5 285/2/5
f 288/2/5 286/2/5 287/2/5
f 292/1/5 290/1/5 289/1/5
f 293/1/5 290/1/5 292/1/5
f 295/1/5 292/1/5 291/1/5
f 296/1/5 292/1/5 295/1/5
f 297/1/5 294/1/5 293/1/5
f 298/1/5 294/1/5 297/1/5
f 299/1/5 297/1/5 296/1/5
f 300/1/5 297/1/5 299/1/5
f 307/1/5 302/1/5 301/1/5
f 308/4/5 303/4/5 302/4/5
f 308/1/5 302/1/5 307/1/5
f 309/4/5 303/4/5 308/4/5
f 310/4/5 305/4/5 304/4/5
f 311/1/5 306/1/5 305/1/5
f 311/4/5 305/4/5 310/4/5
f 312/1/5 306/1/5 311/1/5
f 313/4/5 308/4/5 307/4/5
f 314/4/5 308/4/5 313/4/5
f 320/4/5 316/4/5 315/4/5
f 321/4/5 316/4/5 320/4/5
f 322/1/5 318/1/5 317/1/5
f 323/3/5 319/3/5 318/3/5
f 323/1/5 318/1/5 322/1/5
f 324/3/5 319/3/5 323/3/5
f 325/4/5 320/4/5 315/4/5
f 326/1/5 321/1/5 320/1/5
f 326/4/5 320/4/5 325/4/5
f 327/1/5 321/1/5 326/1/5
f 331/1/5 329/1/5 328/1/5
f 332/1/5 329/1/5 331/1/5
f 336/4/5 331/4/5 330/4/5
f 337/4/5 331/4/5 336/4/5
f 338/1/5 334/1/5 333/1/5
f 339/1/5 334/1/5 338/1/5
f 340/1/5 336/1/5 335/1/5
f 341/1/5 336/1/5 340/1/5
f 344/1/5 343/1/5 342/1/5
f 345/1/5 343/1/5 344/1/5
f 349/1/5 347/1/5 346/1/5
f 350/1/5 347/1/5 349/1/5
f 351/1/5 349/1/5 348/1/5
f 352/1/5 347/1/5 350/1/5
f 353/1/5 347/1/5 352/1/5
f 354/1/5 351/1/5 348/1/5
f 354/1/5 352/1/5 351/1/5
f 355/1/5 352/1/5 354/1/5
f 356/1/6 357/1/6 361/1/6
f 361/1/6 357/1/6 362/1/6
f 358/1/6 359/1/6 363/1/6
f 363/1/6 359/1/6 364/1/6
f 360/1/6 361/1/6 366/1/6
f 366/1/6 361/1/6 367/1/6
f 364/1/6 365/1/6 368/1/6
f 368/1/6 365/1/6 369/1/6
f 370/1/6 371/1/6 374/1/6
f 374/1/6 371/1/6 375/1/6
f 372/1/6 373/1/6 378/1/6
f 378/1/6 373/1/6 379/1/6
f 375/1/6 376/1/6 380/1/6
f 380/1/6 376/1/6 381/1/6
f 377/1/6 378/1/6 382/1/6
f 382/1/6 378/1/6 383/1/6
f 384/1/6 385/1/6 387/1/6
f 387/1/6 385/1/6 388/1/6
f 386/1/6 387/1/6 391/1/6
f 391/1/6 387/1/6 392/1/6
f 388/1/6 389/1/6 393/1/6
f 393/1/6 389/1/6 394/1/6
f 390/1/6 391/1/6 396/1/6
f 396/1/6 391/1/6 397/1/6
f 394/1/6 395/1/6 400/1/6
f 400/1/6 395/1/6 401/1/6
f 397/1/6 398/1/6 402/1/6
f 402/1/6 398/1/6 403/1/6
f 399/1/6 400/1/6 404/1/6
f 404/1/6 400/1/6 405/1/6
f 403/1/6 404/1/6 406/1/6
f 406/1/6 404/1/6 407/1/6
f 408/1/6 409/1/6 411/1/6
f 411/1/6 409/1/6 412/1/6
f 410/1/6 411/1/6 414/1/6
f 414/1/6 411/1/6 415/1/6
f 412/1/6 413/1/6 416/1/6
f 416/1/6 413/1/6 417/1/6
f 415/1/6 416/1/6 418/1/6
f 418/1/6 416/1/6 419/1/6
f 420/1/6 421/1/6 422/1/6
f 422/1/6 421/1/6 423/1/6
