# MagicaVoxel @ Ephtracy

# group
o 

# material
mtllib Bird.mtl
usemtl palette

# normals
vn -1 0 0
vn 1 0 0
vn 0 0 1
vn 0 0 -1
vn 0 -1 0
vn 0 1 0

# texcoords
vt 0.908203 0.5
vt 0.912109 0.5
vt 0.919922 0.5
vt 0.923828 0.5
vt 0.927734 0.5
vt 0.931641 0.5
vt 0.935547 0.5
vt 0.943359 0.5
vt 0.947266 0.5
vt 0.966797 0.5

# verts
v -0.3 0.3 0.4
v -0.3 0.3 0.3
v -0.3 0.4 0.4
v -0.3 0.4 0.3
v 2.98023e-008 0.4 0.4
v 2.98023e-008 0.4 0.3
v 2.98023e-008 0.5 0.4
v 2.98023e-008 0.5 0.3
v 0.3 0.4 0.5
v 0.3 0.4 0.4
v 0.3 0.4 0.3
v 0.3 0.4 0.2
v 0.3 0.5 0.8
v 0.3 0.5 0.6
v 0.3 0.5 0.5
v 0.3 0.5 0.4
v 0.3 0.5 0.3
v 0.3 0.5 0.2
v 0.3 0.5 0.1
v 0.3 0.5 -0.1
v 0.3 0.6 1.3
v 0.3 0.6 1.1
v 0.3 0.6 0.8
v 0.3 0.6 0.6
v 0.3 0.6 0.1
v 0.3 0.6 -0.1
v 0.3 0.6 -0.4
v 0.3 0.6 -0.6
v 0.3 0.7 1.5
v 0.3 0.7 1.4
v 0.3 0.7 1.3
v 0.3 0.7 1.1
v 0.3 0.7 0.8
v 0.3 0.7 -0.1
v 0.3 0.7 -0.4
v 0.3 0.7 -0.6
v 0.3 0.7 -0.7
v 0.3 0.7 -0.8
v 0.3 0.8 1.5
v 0.3 0.8 1.4
v 0.3 0.8 1.3
v 0.3 0.8 -0.6
v 0.3 0.8 -0.7
v 0.3 0.8 -0.8
v 0.4 0.3 0.5
v 0.4 0.3 0.4
v 0.4 0.3 0.3
v 0.4 0.3 0.2
v 0.4 0.4 0.6
v 0.4 0.4 0.5
v 0.4 0.4 0.4
v 0.4 0.4 0.3
v 0.4 0.4 0.2
v 0.4 0.4 0.1
v 0.4 0.5 0.6
v 0.4 0.5 0.5
v 0.4 0.5 0.2
v 0.4 0.5 0.1
v 0.4 0.7 1.3
v 0.4 0.7 1.2
v 0.4 0.7 -0.5
v 0.4 0.7 -0.6
v 0.4 0.8 1.3
v 0.4 0.8 1.2
v 0.4 0.8 -0.5
v 0.4 0.8 -0.6
v 0.5 0.2 0.5
v 0.5 0.2 0.4
v 0.5 0.2 0.3
v 0.5 0.2 0.2
v 0.5 0.3 0.5
v 0.5 0.3 0.4
v 0.5 0.3 0.3
v 0.5 0.3 0.2
v 0.5 0.6 0.8
v 0.5 0.6 0.7
v 0.5 0.6 0
v 0.5 0.6 -0.1
v 0.5 0.7 0.8
v 0.5 0.7 0.7
v 0.5 0.7 0
v 0.5 0.7 -0.1
v 0.6 0.1 0.5
v 0.6 0.1 0.4
v 0.6 0.1 0.3
v 0.6 0.1 0.2
v 0.6 0.2 0.5
v 0.6 0.2 0.4
v 0.6 0.2 0.3
v 0.6 0.2 0.2
v 0.4 0.6 1.3
v 0.4 0.6 1.2
v 0.4 0.6 -0.5
v 0.4 0.6 -0.6
v 0.4 0.7 1.5
v 0.4 0.7 1.4
v 0.4 0.7 1.3
v 0.4 0.7 1.2
v 0.4 0.7 -0.5
v 0.4 0.7 -0.6
v 0.4 0.7 -0.7
v 0.4 0.7 -0.8
v 0.4 0.8 1.5
v 0.4 0.8 1.4
v 0.4 0.8 -0.7
v 0.4 0.8 -0.8
v 0.5 0.5 0.8
v 0.5 0.5 0.7
v 0.5 0.5 0
v 0.5 0.5 -0.1
v 0.5 0.6 0.8
v 0.5 0.6 0.7
v 0.5 0.6 0
v 0.5 0.6 -0.1
v 0.5 0.7 1.4
v 0.5 0.7 1.3
v 0.5 0.7 -0.6
v 0.5 0.7 -0.7
v 0.5 0.8 1.4
v 0.5 0.8 1.3
v 0.5 0.8 -0.6
v 0.5 0.8 -0.7
v 0.6 0.2 0.5
v 0.6 0.2 0.4
v 0.6 0.2 0.3
v 0.6 0.2 0.2
v 0.6 0.3 0.5
v 0.6 0.3 0.4
v 0.6 0.3 0.3
v 0.6 0.3 0.2
v 0.6 0.4 0.5
v 0.6 0.4 0.4
v 0.6 0.4 0.3
v 0.6 0.4 0.2
v 0.6 0.5 0.7
v 0.6 0.5 0.6
v 0.6 0.5 0.1
v 0.6 0.5 0
v 0.6 0.6 1.2
v 0.6 0.6 1
v 0.6 0.6 0.7
v 0.6 0.6 0.6
v 0.6 0.6 0.1
v 0.6 0.6 0
v 0.6 0.6 -0.3
v 0.6 0.6 -0.5
v 0.6 0.7 1.3
v 0.6 0.7 1.2
v 0.6 0.7 1
v 0.6 0.7 0.7
v 0.6 0.7 0
v 0.6 0.7 -0.3
v 0.6 0.7 -0.5
v 0.6 0.7 -0.6
v 0.6 0.8 1.3
v 0.6 0.8 1.2
v 0.6 0.8 -0.5
v 0.6 0.8 -0.6
v 0.7 0.1 0.5
v 0.7 0.1 0.4
v 0.7 0.1 0.3
v 0.7 0.1 0.2
v 0.7 0.2 0.5
v 0.7 0.2 0.4
v 0.7 0.2 0.3
v 0.7 0.2 0.2
v 0.7 0.4 0.6
v 0.7 0.4 0.5
v 0.7 0.4 0.2
v 0.7 0.4 0.1
v 0.7 0.5 0.6
v 0.7 0.5 0.5
v 0.7 0.5 0.2
v 0.7 0.5 0.1
v 1 0.4 0.4
v 1 0.4 0.3
v 1 0.5 0.4
v 1 0.5 0.3
v 1.2 0.4 0.5
v 1.2 0.4 0.4
v 1.2 0.4 0.3
v 1.2 0.4 0.2
v 1.2 0.5 0.5
v 1.2 0.5 0.4
v 1.2 0.5 0.3
v 1.2 0.5 0.2
v 0.3 0.7 1.5
v 0.3 0.8 1.5
v 0.4 0.7 1.5
v 0.4 0.8 1.5
v 0.4 0.7 1.4
v 0.4 0.8 1.4
v 0.5 0.7 1.4
v 0.5 0.8 1.4
v 0.3 0.6 1.3
v 0.3 0.7 1.3
v 0.4 0.6 1.3
v 0.4 0.7 1.3
v 0.5 0.7 1.3
v 0.5 0.8 1.3
v 0.6 0.7 1.3
v 0.6 0.8 1.3
v 0.4 0.6 1.2
v 0.4 0.7 1.2
v 0.6 0.6 1.2
v 0.6 0.7 1.2
v 0.3 0.5 0.8
v 0.3 0.6 0.8
v 0.5 0.5 0.8
v 0.5 0.6 0.8
v 0.5 0.5 0.7
v 0.5 0.6 0.7
v 0.6 0.5 0.7
v 0.6 0.6 0.7
v 0.4 0.4 0.6
v 0.4 0.5 0.6
v 0.6 0.5 0.6
v 0.7 0.4 0.6
v 0.7 0.5 0.6
v 0.3 0.4 0.5
v 0.3 0.5 0.5
v 0.4 0.3 0.5
v 0.4 0.4 0.5
v 0.4 0.5 0.5
v 0.5 0.2 0.5
v 0.5 0.3 0.5
v 0.6 0.1 0.5
v 0.6 0.2 0.5
v 0.6 0.3 0.5
v 0.6 0.4 0.5
v 0.7 0.1 0.5
v 0.7 0.2 0.5
v 0.7 0.4 0.5
v 0.7 0.5 0.5
v 0.8 0.4 0.5
v 0.8 0.5 0.5
v 0.9 0.4 0.5
v 0.9 0.5 0.5
v 1 0.4 0.5
v 1 0.5 0.5
v 1.2 0.4 0.5
v 1.2 0.5 0.5
v -0.3 0.3 0.4
v -0.3 0.4 0.4
v -0.1 0.3 0.4
v -0.1 0.4 0.4
v 2.98023e-008 0.3 0.4
v 2.98023e-008 0.4 0.4
v 2.98023e-008 0.5 0.4
v 0.1 0.3 0.4
v 0.1 0.4 0.4
v 0.2 0.3 0.4
v 0.2 0.5 0.4
v 0.3 0.4 0.4
v 0.3 0.5 0.4
v 0.4 0.3 0.4
v 0.4 0.4 0.4
v 0.5 0.2 0.3
v 0.5 0.3 0.3
v 0.6 0.1 0.3
v 0.6 0.2 0.3
v 0.6 0.3 0.3
v 0.7 0.1 0.3
v 0.7 0.2 0.3
v 1 0.4 0.3
v 1 0.5 0.3
v 1.2 0.4 0.3
v 1.2 0.5 0.3
v 0.3 0.5 0.1
v 0.3 0.6 0.1
v 0.4 0.5 0.1
v 0.6 0.5 0.1
v 0.6 0.6 0.1
v 0.5 0.6 0
v 0.5 0.7 0
v 0.6 0.6 0
v 0.6 0.7 0
v 0.3 0.6 -0.1
v 0.3 0.7 -0.1
v 0.5 0.6 -0.1
v 0.5 0.7 -0.1
v 0.4 0.7 -0.5
v 0.4 0.8 -0.5
v 0.6 0.7 -0.5
v 0.6 0.8 -0.5
v 0.3 0.7 -0.6
v 0.3 0.8 -0.6
v 0.4 0.7 -0.6
v 0.4 0.8 -0.6
v 0.3 0.7 1.3
v 0.3 0.8 1.3
v 0.4 0.7 1.3
v 0.4 0.8 1.3
v 0.4 0.7 1.2
v 0.4 0.8 1.2
v 0.6 0.7 1.2
v 0.6 0.8 1.2
v 0.3 0.6 0.8
v 0.3 0.7 0.8
v 0.5 0.6 0.8
v 0.5 0.7 0.8
v 0.5 0.6 0.7
v 0.5 0.7 0.7
v 0.6 0.6 0.7
v 0.6 0.7 0.7
v 0.3 0.5 0.6
v 0.3 0.6 0.6
v 0.4 0.5 0.6
v 0.6 0.5 0.6
v 0.6 0.6 0.6
v 0.5 0.2 0.4
v 0.5 0.3 0.4
v 0.6 0.1 0.4
v 0.6 0.2 0.4
v 0.6 0.3 0.4
v 0.7 0.1 0.4
v 0.7 0.2 0.4
v 1 0.4 0.4
v 1 0.5 0.4
v 1.2 0.4 0.4
v 1.2 0.5 0.4
v -0.3 0.3 0.3
v -0.3 0.4 0.3
v -0.1 0.3 0.3
v -0.1 0.4 0.3
v 2.98023e-008 0.3 0.3
v 2.98023e-008 0.4 0.3
v 2.98023e-008 0.5 0.3
v 0.1 0.3 0.3
v 0.1 0.4 0.3
v 0.2 0.3 0.3
v 0.2 0.5 0.3
v 0.3 0.4 0.3
v 0.3 0.5 0.3
v 0.4 0.3 0.3
v 0.4 0.4 0.3
v 0.3 0.4 0.2
v 0.3 0.5 0.2
v 0.4 0.3 0.2
v 0.4 0.4 0.2
v 0.4 0.5 0.2
v 0.5 0.2 0.2
v 0.5 0.3 0.2
v 0.6 0.1 0.2
v 0.6 0.2 0.2
v 0.6 0.3 0.2
v 0.6 0.4 0.2
v 0.7 0.1 0.2
v 0.7 0.2 0.2
v 0.7 0.4 0.2
v 0.7 0.5 0.2
v 0.8 0.4 0.2
v 0.8 0.5 0.2
v 0.9 0.4 0.2
v 0.9 0.5 0.2
v 1 0.4 0.2
v 1 0.5 0.2
v 1.2 0.4 0.2
v 1.2 0.5 0.2
v 0.4 0.4 0.1
v 0.4 0.5 0.1
v 0.6 0.5 0.1
v 0.7 0.4 0.1
v 0.7 0.5 0.1
v 0.5 0.5 0
v 0.5 0.6 0
v 0.6 0.5 0
v 0.6 0.6 0
v 0.3 0.5 -0.1
v 0.3 0.6 -0.1
v 0.5 0.5 -0.1
v 0.5 0.6 -0.1
v 0.4 0.6 -0.5
v 0.4 0.7 -0.5
v 0.6 0.6 -0.5
v 0.6 0.7 -0.5
v 0.3 0.6 -0.6
v 0.3 0.7 -0.6
v 0.4 0.6 -0.6
v 0.4 0.7 -0.6
v 0.5 0.7 -0.6
v 0.5 0.8 -0.6
v 0.6 0.7 -0.6
v 0.6 0.8 -0.6
v 0.4 0.7 -0.7
v 0.4 0.8 -0.7
v 0.5 0.7 -0.7
v 0.5 0.8 -0.7
v 0.3 0.7 -0.8
v 0.3 0.8 -0.8
v 0.4 0.7 -0.8
v 0.4 0.8 -0.8
v 0.6 0.1 0.5
v 0.7 0.1 0.5
v 0.6 0.1 0.4
v 0.7 0.1 0.4
v 0.6 0.1 0.3
v 0.7 0.1 0.3
v 0.6 0.1 0.2
v 0.7 0.1 0.2
v 0.5 0.2 0.5
v 0.6 0.2 0.5
v 0.5 0.2 0.4
v 0.6 0.2 0.4
v 0.5 0.2 0.3
v 0.6 0.2 0.3
v 0.5 0.2 0.2
v 0.6 0.2 0.2
v 0.4 0.3 0.5
v 0.5 0.3 0.5
v -0.3 0.3 0.4
v -0.1 0.3 0.4
v 2.98023e-008 0.3 0.4
v 0.1 0.3 0.4
v 0.2 0.3 0.4
v 0.4 0.3 0.4
v 0.5 0.3 0.4
v 0.6 0.3 0.4
v -0.3 0.3 0.3
v -0.1 0.3 0.3
v 2.98023e-008 0.3 0.3
v 0.1 0.3 0.3
v 0.2 0.3 0.3
v 0.4 0.3 0.3
v 0.5 0.3 0.3
v 0.6 0.3 0.3
v 0.4 0.3 0.2
v 0.5 0.3 0.2
v 0.4 0.4 0.6
v 0.7 0.4 0.6
v 0.3 0.4 0.5
v 0.4 0.4 0.5
v 0.6 0.4 0.5
v 0.7 0.4 0.5
v 0.8 0.4 0.5
v 0.9 0.4 0.5
v 1 0.4 0.5
v 1.2 0.4 0.5
v 0.3 0.4 0.4
v 0.4 0.4 0.4
v 0.6 0.4 0.4
v 0.7 0.4 0.4
v 0.8 0.4 0.4
v 0.9 0.4 0.4
v 1 0.4 0.4
v 1.2 0.4 0.4
v 0.3 0.4 0.3
v 0.4 0.4 0.3
v 0.6 0.4 0.3
v 0.7 0.4 0.3
v 0.8 0.4 0.3
v 0.9 0.4 0.3
v 1 0.4 0.3
v 1.2 0.4 0.3
v 0.3 0.4 0.2
v 0.4 0.4 0.2
v 0.6 0.4 0.2
v 0.7 0.4 0.2
v 0.8 0.4 0.2
v 0.9 0.4 0.2
v 1 0.4 0.2
v 1.2 0.4 0.2
v 0.4 0.4 0.1
v 0.7 0.4 0.1
v 0.3 0.5 0.8
v 0.5 0.5 0.8
v 0.5 0.5 0.7
v 0.6 0.5 0.7
v 0.3 0.5 0.6
v 0.4 0.5 0.6
v 0.6 0.5 0.6
v 0.3 0.5 0.1
v 0.4 0.5 0.1
v 0.6 0.5 0.1
v 0.5 0.5 0
v 0.6 0.5 0
v 0.3 0.5 -0.1
v 0.5 0.5 -0.1
v 0.3 0.6 1.3
v 0.4 0.6 1.3
v 0.4 0.6 1.2
v 0.6 0.6 1.2
v 0.3 0.6 1.1
v 0.5 0.6 1.1
v 0.5 0.6 1
v 0.6 0.6 1
v 0.3 0.6 0.8
v 0.5 0.6 0.8
v 0.5 0.6 0.7
v 0.6 0.6 0.7
v 0.5 0.6 0
v 0.6 0.6 0
v 0.3 0.6 -0.1
v 0.5 0.6 -0.1
v 0.5 0.6 -0.3
v 0.6 0.6 -0.3
v 0.3 0.6 -0.4
v 0.5 0.6 -0.4
v 0.4 0.6 -0.5
v 0.6 0.6 -0.5
v 0.3 0.6 -0.6
v 0.4 0.6 -0.6
v 0.3 0.7 1.5
v 0.4 0.7 1.5
v 0.3 0.7 1.4
v 0.4 0.7 1.4
v 0.5 0.7 1.4
v 0.3 0.7 1.3
v 0.4 0.7 1.3
v 0.5 0.7 1.3
v 0.6 0.7 1.3
v 0.4 0.7 1.2
v 0.6 0.7 1.2
v 0.4 0.7 -0.5
v 0.6 0.7 -0.5
v 0.3 0.7 -0.6
v 0.4 0.7 -0.6
v 0.5 0.7 -0.6
v 0.6 0.7 -0.6
v 0.3 0.7 -0.7
v 0.4 0.7 -0.7
v 0.5 0.7 -0.7
v 0.3 0.7 -0.8
v 0.4 0.7 -0.8
v 0.6 0.2 0.5
v 0.7 0.2 0.5
v 0.6 0.2 0.4
v 0.7 0.2 0.4
v 0.6 0.2 0.3
v 0.7 0.2 0.3
v 0.6 0.2 0.2
v 0.7 0.2 0.2
v -0.3 0.4 0.4
v -0.1 0.4 0.4
v 2.98023e-008 0.4 0.4
v -0.3 0.4 0.3
v -0.1 0.4 0.3
v 2.98023e-008 0.4 0.3
v 0.4 0.5 0.6
v 0.6 0.5 0.6
v 0.7 0.5 0.6
v 0.3 0.5 0.5
v 0.4 0.5 0.5
v 0.5 0.5 0.5
v 0.6 0.5 0.5
v 0.7 0.5 0.5
v 0.8 0.5 0.5
v 0.9 0.5 0.5
v 1 0.5 0.5
v 1.2 0.5 0.5
v 2.98023e-008 0.5 0.4
v 0.2 0.5 0.4
v 0.3 0.5 0.4
v 0.5 0.5 0.4
v 0.6 0.5 0.4
v 0.7 0.5 0.4
v 0.8 0.5 0.4
v 0.9 0.5 0.4
v 1 0.5 0.4
v 1.2 0.5 0.4
v 2.98023e-008 0.5 0.3
v 0.2 0.5 0.3
v 0.3 0.5 0.3
v 0.5 0.5 0.3
v 0.6 0.5 0.3
v 0.7 0.5 0.3
v 0.8 0.5 0.3
v 0.9 0.5 0.3
v 1 0.5 0.3
v 1.2 0.5 0.3
v 0.3 0.5 0.2
v 0.4 0.5 0.2
v 0.5 0.5 0.2
v 0.6 0.5 0.2
v 0.7 0.5 0.2
v 0.8 0.5 0.2
v 0.9 0.5 0.2
v 1 0.5 0.2
v 1.2 0.5 0.2
v 0.4 0.5 0.1
v 0.6 0.5 0.1
v 0.7 0.5 0.1
v 0.3 0.6 0.8
v 0.5 0.6 0.8
v 0.5 0.6 0.7
v 0.6 0.6 0.7
v 0.3 0.6 0.6
v 0.6 0.6 0.6
v 0.3 0.6 0.1
v 0.6 0.6 0.1
v 0.5 0.6 0
v 0.6 0.6 0
v 0.3 0.6 -0.1
v 0.5 0.6 -0.1
v 0.3 0.7 1.3
v 0.4 0.7 1.3
v 0.4 0.7 1.2
v 0.6 0.7 1.2
v 0.3 0.7 1.1
v 0.5 0.7 1.1
v 0.5 0.7 1
v 0.6 0.7 1
v 0.3 0.7 0.8
v 0.5 0.7 0.8
v 0.5 0.7 0.7
v 0.6 0.7 0.7
v 0.5 0.7 0
v 0.6 0.7 0
v 0.3 0.7 -0.1
v 0.5 0.7 -0.1
v 0.5 0.7 -0.3
v 0.6 0.7 -0.3
v 0.3 0.7 -0.4
v 0.5 0.7 -0.4
v 0.4 0.7 -0.5
v 0.6 0.7 -0.5
v 0.3 0.7 -0.6
v 0.4 0.7 -0.6
v 0.3 0.8 1.5
v 0.4 0.8 1.5
v 0.3 0.8 1.4
v 0.4 0.8 1.4
v 0.5 0.8 1.4
v 0.3 0.8 1.3
v 0.4 0.8 1.3
v 0.5 0.8 1.3
v 0.6 0.8 1.3
v 0.4 0.8 1.2
v 0.6 0.8 1.2
v 0.4 0.8 -0.5
v 0.6 0.8 -0.5
v 0.3 0.8 -0.6
v 0.4 0.8 -0.6
v 0.5 0.8 -0.6
v 0.6 0.8 -0.6
v 0.3 0.8 -0.7
v 0.4 0.8 -0.7
v 0.5 0.8 -0.7
v 0.3 0.8 -0.8
v 0.4 0.8 -0.8

# faces
f 3/9/1 2/9/1 1/9/1
f 4/9/1 2/9/1 3/9/1
f 7/8/1 6/8/1 5/8/1
f 8/8/1 6/8/1 7/8/1
f 15/2/1 10/2/1 9/2/1
f 16/2/1 10/2/1 15/2/1
f 17/2/1 12/2/1 11/2/1
f 18/2/1 12/2/1 17/2/1
f 23/3/1 14/3/1 13/3/1
f 24/3/1 14/3/1 23/3/1
f 25/3/1 20/3/1 19/3/1
f 26/3/1 20/3/1 25/3/1
f 31/5/1 22/5/1 21/5/1
f 32/4/1 23/4/1 22/4/1
f 32/5/1 22/5/1 31/5/1
f 33/4/1 23/4/1 32/4/1
f 34/4/1 27/4/1 26/4/1
f 35/5/1 28/5/1 27/5/1
f 35/4/1 27/4/1 34/4/1
f 36/5/1 28/5/1 35/5/1
f 39/7/1 30/7/1 29/7/1
f 40/6/1 31/6/1 30/6/1
f 40/7/1 30/7/1 39/7/1
f 41/6/1 31/6/1 40/6/1
f 42/6/1 37/6/1 36/6/1
f 43/7/1 38/7/1 37/7/1
f 43/6/1 37/6/1 42/6/1
f 44/7/1 38/7/1 43/7/1
f 50/2/1 46/2/1 45/2/1
f 51/2/1 46/2/1 50/2/1
f 52/2/1 48/2/1 47/2/1
f 53/2/1 48/2/1 52/2/1
f 55/2/1 50/2/1 49/2/1
f 56/2/1 50/2/1 55/2/1
f 57/2/1 54/2/1 53/2/1
f 58/2/1 54/2/1 57/2/1
f 63/6/1 60/6/1 59/6/1
f 64/6/1 60/6/1 63/6/1
f 65/6/1 62/6/1 61/6/1
f 66/6/1 62/6/1 65/6/1
f 71/1/1 68/1/1 67/1/1
f 72/1/1 68/1/1 71/1/1
f 73/1/1 70/1/1 69/1/1
f 74/1/1 70/1/1 73/1/1
f 79/4/1 76/4/1 75/4/1
f 80/4/1 76/4/1 79/4/1
f 81/4/1 78/4/1 77/4/1
f 82/4/1 78/4/1 81/4/1
f 87/9/1 84/9/1 83/9/1
f 88/9/1 84/9/1 87/9/1
f 89/9/1 86/9/1 85/9/1
f 90/9/1 86/9/1 89/9/1
f 91/5/2 92/5/2 97/5/2
f 97/5/2 92/5/2 98/5/2
f 93/5/2 94/5/2 99/5/2
f 99/5/2 94/5/2 100/5/2
f 95/7/2 96/7/2 103/7/2
f 103/7/2 96/7/2 104/7/2
f 101/7/2 102/7/2 105/7/2
f 105/7/2 102/7/2 106/7/2
f 107/3/2 108/3/2 111/3/2
f 111/3/2 108/3/2 112/3/2
f 109/3/2 110/3/2 113/3/2
f 113/3/2 110/3/2 114/3/2
f 115/6/2 116/6/2 119/6/2
f 119/6/2 116/6/2 120/6/2
f 117/6/2 118/6/2 121/6/2
f 121/6/2 118/6/2 122/6/2
f 123/1/2 124/1/2 127/1/2
f 127/1/2 124/1/2 128/1/2
f 125/1/2 126/1/2 129/1/2
f 129/1/2 126/1/2 130/1/2
f 127/2/2 128/2/2 131/2/2
f 128/1/2 129/1/2 132/1/2
f 131/2/2 128/2/2 132/2/2
f 129/2/2 130/2/2 133/2/2
f 132/1/2 129/1/2 133/1/2
f 133/2/2 130/2/2 134/2/2
f 135/3/2 136/3/2 141/3/2
f 141/3/2 136/3/2 142/3/2
f 137/3/2 138/3/2 143/3/2
f 143/3/2 138/3/2 144/3/2
f 139/5/2 140/5/2 148/5/2
f 140/4/2 141/4/2 149/4/2
f 148/5/2 140/5/2 149/5/2
f 149/4/2 141/4/2 150/4/2
f 144/4/2 145/4/2 151/4/2
f 145/5/2 146/5/2 152/5/2
f 151/4/2 145/4/2 152/4/2
f 152/5/2 146/5/2 153/5/2
f 147/6/2 148/6/2 155/6/2
f 155/6/2 148/6/2 156/6/2
f 153/6/2 154/6/2 157/6/2
f 157/6/2 154/6/2 158/6/2
f 159/9/2 160/9/2 163/9/2
f 163/9/2 160/9/2 164/9/2
f 161/9/2 162/9/2 165/9/2
f 165/9/2 162/9/2 166/9/2
f 167/2/2 168/2/2 171/2/2
f 171/2/2 168/2/2 172/2/2
f 169/2/2 170/2/2 173/2/2
f 173/2/2 170/2/2 174/2/2
f 175/5/2 176/5/2 177/5/2
f 177/5/2 176/5/2 178/5/2
f 179/7/2 180/7/2 183/7/2
f 183/7/2 180/7/2 184/7/2
f 181/7/2 182/7/2 185/7/2
f 185/7/2 182/7/2 186/7/2
f 189/7/3 188/7/3 187/7/3
f 190/7/3 188/7/3 189/7/3
f 193/6/3 192/6/3 191/6/3
f 194/6/3 192/6/3 193/6/3
f 197/5/3 196/5/3 195/5/3
f 198/5/3 196/5/3 197/5/3
f 201/6/3 200/6/3 199/6/3
f 202/6/3 200/6/3 201/6/3
f 205/5/3 204/5/3 203/5/3
f 206/5/3 204/5/3 205/5/3
f 209/3/3 208/3/3 207/3/3
f 210/3/3 208/3/3 209/3/3
f 213/3/3 212/3/3 211/3/3
f 214/3/3 212/3/3 213/3/3
f 217/2/3 216/2/3 215/2/3
f 218/2/3 217/2/3 215/2/3
f 219/2/3 217/2/3 218/2/3
f 223/2/3 221/2/3 220/2/3
f 224/2/3 221/2/3 223/2/3
f 226/2/3 223/2/3 222/2/3
f 228/1/3 226/1/3 225/1/3
f 229/2/3 223/2/3 226/2/3
f 229/1/3 226/1/3 228/1/3
f 230/2/3 223/2/3 229/2/3
f 231/9/3 228/9/3 227/9/3
f 232/9/3 228/9/3 231/9/3
f 235/4/3 234/4/3 233/4/3
f 236/4/3 234/4/3 235/4/3
f 237/5/3 236/5/3 235/5/3
f 238/5/3 236/5/3 237/5/3
f 239/6/3 238/6/3 237/6/3
f 240/6/3 238/6/3 239/6/3
f 241/7/3 240/7/3 239/7/3
f 242/7/3 240/7/3 241/7/3
f 245/9/3 244/9/3 243/9/3
f 246/9/3 244/9/3 245/9/3
f 247/8/3 246/8/3 245/8/3
f 248/8/3 246/8/3 247/8/3
f 250/10/3 248/10/3 247/10/3
f 251/8/3 249/8/3 248/8/3
f 251/10/3 248/10/3 250/10/3
f 252/8/3 251/8/3 250/8/3
f 253/8/3 249/8/3 251/8/3
f 253/8/3 251/8/3 252/8/3
f 254/1/3 253/1/3 252/1/3
f 255/1/3 253/1/3 254/1/3
f 256/1/3 254/1/3 252/1/3
f 257/1/3 254/1/3 256/1/3
f 261/1/3 259/1/3 258/1/3
f 262/1/3 259/1/3 261/1/3
f 263/9/3 261/9/3 260/9/3
f 264/9/3 261/9/3 263/9/3
f 267/7/3 266/7/3 265/7/3
f 268/7/3 266/7/3 267/7/3
f 271/3/3 270/3/3 269/3/3
f 272/3/3 270/3/3 271/3/3
f 273/3/3 270/3/3 272/3/3
f 276/4/3 275/4/3 274/4/3
f 277/4/3 275/4/3 276/4/3
f 280/4/3 279/4/3 278/4/3
f 281/4/3 279/4/3 280/4/3
f 284/6/3 283/6/3 282/6/3
f 285/6/3 283/6/3 284/6/3
f 288/6/3 287/6/3 286/6/3
f 289/6/3 287/6/3 288/6/3
f 290/6/4 291/6/4 292/6/4
f 292/6/4 291/6/4 293/6/4
f 294/6/4 295/6/4 296/6/4
f 296/6/4 295/6/4 297/6/4
f 298/4/4 299/4/4 300/4/4
f 300/4/4 299/4/4 301/4/4
f 302/4/4 303/4/4 304/4/4
f 304/4/4 303/4/4 305/4/4
f 306/3/4 307/3/4 308/3/4
f 308/3/4 307/3/4 309/3/4
f 309/3/4 307/3/4 310/3/4
f 311/1/4 312/1/4 314/1/4
f 314/1/4 312/1/4 315/1/4
f 313/9/4 314/9/4 316/9/4
f 316/9/4 314/9/4 317/9/4
f 318/7/4 319/7/4 320/7/4
f 320/7/4 319/7/4 321/7/4
f 322/9/4 323/9/4 324/9/4
f 324/9/4 323/9/4 325/9/4
f 324/8/4 325/8/4 326/8/4
f 326/8/4 325/8/4 327/8/4
f 326/10/4 327/10/4 329/10/4
f 327/8/4 328/8/4 330/8/4
f 329/10/4 327/10/4 330/10/4
f 329/8/4 330/8/4 331/8/4
f 330/8/4 328/8/4 332/8/4
f 331/8/4 330/8/4 332/8/4
f 331/1/4 332/1/4 333/1/4
f 333/1/4 332/1/4 334/1/4
f 331/1/4 333/1/4 335/1/4
f 335/1/4 333/1/4 336/1/4
f 337/2/4 338/2/4 340/2/4
f 340/2/4 338/2/4 341/2/4
f 339/2/4 340/2/4 343/2/4
f 342/1/4 343/1/4 345/1/4
f 343/2/4 340/2/4 346/2/4
f 345/1/4 343/1/4 346/1/4
f 346/2/4 340/2/4 347/2/4
f 344/9/4 345/9/4 348/9/4
f 348/9/4 345/9/4 349/9/4
f 350/4/4 351/4/4 352/4/4
f 352/4/4 351/4/4 353/4/4
f 352/5/4 353/5/4 354/5/4
f 354/5/4 353/5/4 355/5/4
f 354/6/4 355/6/4 356/6/4
f 356/6/4 355/6/4 357/6/4
f 356/7/4 357/7/4 358/7/4
f 358/7/4 357/7/4 359/7/4
f 360/2/4 361/2/4 362/2/4
f 360/2/4 362/2/4 363/2/4
f 363/2/4 362/2/4 364/2/4
f 365/3/4 366/3/4 367/3/4
f 367/3/4 366/3/4 368/3/4
f 369/3/4 370/3/4 371/3/4
f 371/3/4 370/3/4 372/3/4
f 373/5/4 374/5/4 375/5/4
f 375/5/4 374/5/4 376/5/4
f 377/5/4 378/5/4 379/5/4
f 379/5/4 378/5/4 380/5/4
f 381/6/4 382/6/4 383/6/4
f 383/6/4 382/6/4 384/6/4
f 385/6/4 386/6/4 387/6/4
f 387/6/4 386/6/4 388/6/4
f 389/7/4 390/7/4 391/7/4
f 391/7/4 390/7/4 392/7/4
f 395/9/5 394/9/5 393/9/5
f 396/9/5 394/9/5 395/9/5
f 399/9/5 398/9/5 397/9/5
f 400/9/5 398/9/5 399/9/5
f 403/1/5 402/1/5 401/1/5
f 404/1/5 402/1/5 403/1/5
f 407/1/5 406/1/5 405/1/5
f 408/1/5 406/1/5 407/1/5
f 416/2/5 410/2/5 409/2/5
f 417/2/5 410/2/5 416/2/5
f 419/9/5 412/9/5 411/9/5
f 420/8/5 413/8/5 412/8/5
f 420/9/5 412/9/5 419/9/5
f 421/10/5 414/10/5 413/10/5
f 421/8/5 413/8/5 420/8/5
f 422/8/5 415/8/5 414/8/5
f 422/10/5 414/10/5 421/10/5
f 423/1/5 418/1/5 417/1/5
f 423/8/5 415/8/5 422/8/5
f 423/1/5 416/1/5 415/1/5
f 423/1/5 417/1/5 416/1/5
f 424/1/5 418/1/5 423/1/5
f 425/1/5 418/1/5 424/1/5
f 426/1/5 418/1/5 425/1/5
f 427/2/5 425/2/5 424/2/5
f 428/2/5 425/2/5 427/2/5
f 432/2/5 430/2/5 429/2/5
f 433/2/5 430/2/5 432/2/5
f 434/2/5 430/2/5 433/2/5
f 439/2/5 432/2/5 431/2/5
f 440/2/5 432/2/5 439/2/5
f 441/2/5 434/2/5 433/2/5
f 442/4/5 435/4/5 434/4/5
f 442/2/5 434/2/5 441/2/5
f 443/5/5 436/5/5 435/5/5
f 443/4/5 435/4/5 442/4/5
f 444/6/5 437/6/5 436/6/5
f 444/5/5 436/5/5 443/5/5
f 445/7/5 438/7/5 437/7/5
f 445/6/5 437/6/5 444/6/5
f 446/7/5 438/7/5 445/7/5
f 449/1/5 443/1/5 442/1/5
f 449/1/5 442/1/5 441/1/5
f 450/1/5 443/1/5 449/1/5
f 451/4/5 444/4/5 443/4/5
f 451/1/5 443/1/5 450/1/5
f 452/5/5 445/5/5 444/5/5
f 452/4/5 444/4/5 451/4/5
f 453/5/5 445/5/5 452/5/5
f 455/2/5 448/2/5 447/2/5
f 456/2/5 448/2/5 455/2/5
f 457/2/5 450/2/5 449/2/5
f 458/4/5 451/4/5 450/4/5
f 458/2/5 450/2/5 457/2/5
f 459/5/5 452/5/5 451/5/5
f 459/4/5 451/4/5 458/4/5
f 460/6/5 453/6/5 452/6/5
f 460/5/5 452/5/5 459/5/5
f 461/7/5 454/7/5 453/7/5
f 461/6/5 453/6/5 460/6/5
f 462/7/5 454/7/5 461/7/5
f 463/2/5 457/2/5 456/2/5
f 463/2/5 458/2/5 457/2/5
f 464/2/5 458/2/5 463/2/5
f 467/3/5 466/3/5 465/3/5
f 469/3/5 467/3/5 465/3/5
f 469/3/5 468/3/5 467/3/5
f 470/3/5 468/3/5 469/3/5
f 471/3/5 468/3/5 470/3/5
f 475/3/5 473/3/5 472/3/5
f 475/3/5 474/3/5 473/3/5
f 476/3/5 474/3/5 475/3/5
f 477/3/5 475/3/5 472/3/5
f 478/3/5 475/3/5 477/3/5
f 481/5/5 480/5/5 479/5/5
f 483/5/5 481/5/5 479/5/5
f 483/5/5 482/5/5 481/5/5
f 484/5/5 482/5/5 483/5/5
f 485/4/5 484/4/5 483/4/5
f 485/5/5 482/5/5 484/5/5
f 486/5/5 482/5/5 485/5/5
f 487/4/5 485/4/5 483/4/5
f 487/4/5 486/4/5 485/4/5
f 488/4/5 486/4/5 487/4/5
f 489/4/5 486/4/5 488/4/5
f 490/4/5 486/4/5 489/4/5
f 494/4/5 492/4/5 491/4/5
f 495/4/5 492/4/5 494/4/5
f 495/4/5 494/4/5 493/4/5
f 496/4/5 492/4/5 495/4/5
f 497/4/5 495/4/5 493/4/5
f 498/5/5 496/5/5 495/5/5
f 498/4/5 495/4/5 497/4/5
f 499/5/5 498/5/5 497/5/5
f 500/5/5 496/5/5 498/5/5
f 500/5/5 498/5/5 499/5/5
f 501/5/5 499/5/5 497/5/5
f 502/5/5 499/5/5 501/5/5
f 505/7/5 504/7/5 503/7/5
f 506/7/5 504/7/5 505/7/5
f 508/6/5 506/6/5 505/6/5
f 508/6/5 507/6/5 506/6/5
f 509/6/5 507/6/5 508/6/5
f 510/6/5 507/6/5 509/6/5
f 512/6/5 511/6/5 510/6/5
f 512/6/5 510/6/5 509/6/5
f 513/6/5 511/6/5 512/6/5
f 517/6/5 515/6/5 514/6/5
f 518/6/5 515/6/5 517/6/5
f 519/6/5 515/6/5 518/6/5
f 520/6/5 517/6/5 516/6/5
f 520/6/5 518/6/5 517/6/5
f 521/6/5 518/6/5 520/6/5
f 522/6/5 518/6/5 521/6/5
f 523/7/5 521/7/5 520/7/5
f 524/7/5 521/7/5 523/7/5
f 525/9/6 526/9/6 527/9/6
f 527/9/6 526/9/6 528/9/6
f 529/9/6 530/9/6 531/9/6
f 531/9/6 530/9/6 532/9/6
f 533/9/6 534/9/6 536/9/6
f 534/8/6 535/8/6 537/8/6
f 536/9/6 534/9/6 537/9/6
f 537/8/6 535/8/6 538/8/6
f 539/2/6 540/2/6 543/2/6
f 540/2/6 541/2/6 543/2/6
f 543/2/6 541/2/6 544/2/6
f 544/2/6 541/2/6 545/2/6
f 545/2/6 541/2/6 546/2/6
f 542/2/6 543/2/6 553/2/6
f 543/2/6 544/2/6 553/2/6
f 544/1/6 545/1/6 554/1/6
f 553/2/6 544/2/6 554/2/6
f 545/2/6 546/2/6 555/2/6
f 554/1/6 545/1/6 555/1/6
f 546/4/6 547/4/6 556/4/6
f 555/2/6 546/2/6 556/2/6
f 547/5/6 548/5/6 557/5/6
f 556/4/6 547/4/6 557/4/6
f 548/6/6 549/6/6 558/6/6
f 557/5/6 548/5/6 558/5/6
f 549/7/6 550/7/6 559/7/6
f 558/6/6 549/6/6 559/6/6
f 559/7/6 550/7/6 560/7/6
f 551/8/6 552/8/6 561/8/6
f 552/1/6 553/1/6 562/1/6
f 561/8/6 552/8/6 562/8/6
f 553/1/6 554/1/6 562/1/6
f 554/1/6 555/1/6 562/1/6
f 555/1/6 556/1/6 562/1/6
f 556/1/6 557/1/6 562/1/6
f 562/1/6 557/1/6 563/1/6
f 563/1/6 557/1/6 564/1/6
f 564/1/6 557/1/6 565/1/6
f 565/1/6 557/1/6 566/1/6
f 557/4/6 558/4/6 567/4/6
f 566/1/6 557/1/6 567/1/6
f 558/5/6 559/5/6 568/5/6
f 567/4/6 558/4/6 568/4/6
f 568/5/6 559/5/6 569/5/6
f 563/2/6 564/2/6 571/2/6
f 571/2/6 564/2/6 572/2/6
f 564/1/6 565/1/6 573/1/6
f 572/2/6 564/2/6 573/2/6
f 565/2/6 566/2/6 574/2/6
f 573/1/6 565/1/6 574/1/6
f 566/4/6 567/4/6 575/4/6
f 574/2/6 566/2/6 575/2/6
f 567/5/6 568/5/6 576/5/6
f 575/4/6 567/4/6 576/4/6
f 568/6/6 569/6/6 577/6/6
f 576/5/6 568/5/6 577/5/6
f 569/7/6 570/7/6 578/7/6
f 577/6/6 569/6/6 578/6/6
f 578/7/6 570/7/6 579/7/6
f 572/2/6 573/2/6 580/2/6
f 573/2/6 574/2/6 580/2/6
f 574/2/6 575/2/6 580/2/6
f 580/2/6 575/2/6 581/2/6
f 581/2/6 575/2/6 582/2/6
f 583/3/6 584/3/6 585/3/6
f 583/3/6 585/3/6 587/3/6
f 585/3/6 586/3/6 587/3/6
f 587/3/6 586/3/6 588/3/6
f 589/3/6 590/3/6 591/3/6
f 591/3/6 590/3/6 592/3/6
f 589/3/6 591/3/6 593/3/6
f 593/3/6 591/3/6 594/3/6
f 595/5/6 596/5/6 597/5/6
f 595/5/6 597/5/6 599/5/6
f 597/5/6 598/5/6 599/5/6
f 599/5/6 598/5/6 600/5/6
f 599/4/6 600/4/6 601/4/6
f 600/5/6 598/5/6 601/5/6
f 601/5/6 598/5/6 602/5/6
f 599/4/6 601/4/6 603/4/6
f 601/4/6 602/4/6 603/4/6
f 603/4/6 602/4/6 604/4/6
f 604/4/6 602/4/6 605/4/6
f 605/4/6 602/4/6 606/4/6
f 607/4/6 608/4/6 610/4/6
f 610/4/6 608/4/6 611/4/6
f 609/4/6 610/4/6 611/4/6
f 611/4/6 608/4/6 612/4/6
f 609/4/6 611/4/6 613/4/6
f 611/5/6 612/5/6 614/5/6
f 613/4/6 611/4/6 614/4/6
f 613/5/6 614/5/6 615/5/6
f 614/5/6 612/5/6 616/5/6
f 615/5/6 614/5/6 616/5/6
f 613/5/6 615/5/6 617/5/6
f 617/5/6 615/5/6 618/5/6
f 619/7/6 620/7/6 621/7/6
f 621/7/6 620/7/6 622/7/6
f 621/6/6 622/6/6 624/6/6
f 622/6/6 623/6/6 624/6/6
f 624/6/6 623/6/6 625/6/6
f 625/6/6 623/6/6 626/6/6
f 626/6/6 627/6/6 628/6/6
f 625/6/6 626/6/6 628/6/6
f 628/6/6 627/6/6 629/6/6
f 630/6/6 631/6/6 633/6/6
f 633/6/6 631/6/6 634/6/6
f 634/6/6 631/6/6 635/6/6
f 632/6/6 633/6/6 636/6/6
f 633/6/6 634/6/6 636/6/6
f 636/6/6 634/6/6 637/6/6
f 637/6/6 634/6/6 638/6/6
f 636/7/6 637/7/6 639/7/6
f 639/7/6 637/7/6 640/7/6
