# MagicaVoxel @ Ephtracy

# group
o 

# material
mtllib Turret-0.mtl
usemtl palette

# normals
vn -1 0 0
vn 1 0 0
vn 0 0 1
vn 0 0 -1
vn 0 -1 0
vn 0 1 0

# texcoords
vt 0.876953 0.5
vt 0.884766 0.5
vt 0.896484 0.5
vt 0.900391 0.5
vt 0.904297 0.5
vt 0.970703 0.5
vt 0.974609 0.5

# verts
v 2.5 2.5 0.3
v 2.5 2.5 -0.2
v 2.5 2.6 0.4
v 2.5 2.6 0.3
v 2.5 2.6 0.2
v 2.5 2.6 -0.2
v 2.5 2.7 0.6
v 2.5 2.7 0.4
v 2.5 2.7 0.3
v 2.5 2.7 0.2
v 2.5 2.7 -0.2
v 2.5 2.8 0.4
v 2.5 2.8 0.3
v 2.5 2.8 0.1
v 2.5 2.8 -0.2
v 2.5 2.9 0.4
v 2.5 2.9 0.3
v 2.5 2.9 0.2
v 2.5 2.9 0.1
v 2.5 2.9 -0.2
v 2.5 3 0.6
v 2.5 3 0.4
v 2.6 2.5 0.5
v 2.6 2.5 0.3
v 2.6 2.6 0.6
v 2.6 2.6 0.5
v 2.6 2.6 0.4
v 2.6 2.6 0.3
v 2.6 2.6 -0.2
v 2.6 2.6 -0.3
v 2.6 2.6 -0.7
v 2.6 2.6 -0.8
v 2.6 2.7 0.7
v 2.6 2.7 0.6
v 2.6 2.7 0.4
v 2.6 2.7 -0.2
v 2.6 2.8 -0.2
v 2.6 2.8 -0.3
v 2.6 2.8 -0.7
v 2.6 2.8 -0.8
v 2.6 2.9 0.4
v 2.6 2.9 0.3
v 2.6 2.9 0.2
v 2.6 2.9 0.1
v 2.6 2.9 -0.2
v 2.6 3 0.6
v 2.6 3 0.4
v 2.6 3 0.3
v 2.6 3 0.2
v 2.6 3 -0.2
v 2.6 3.1 0.7
v 2.6 3.1 0.3
v 2.7 2.5 0.6
v 2.7 2.5 0.5
v 2.7 2.5 -0.2
v 2.7 2.5 -0.3
v 2.7 2.5 -0.7
v 2.7 2.5 -0.8
v 2.7 2.6 0.7
v 2.7 2.6 0.6
v 2.7 2.6 0.5
v 2.7 2.6 -0.2
v 2.7 2.6 -0.3
v 2.7 2.6 -0.7
v 2.7 2.6 -0.8
v 2.7 2.7 0.7
v 2.7 2.7 0.6
v 2.7 2.8 -0.2
v 2.7 2.8 -0.3
v 2.7 2.8 -0.7
v 2.7 2.8 -0.8
v 2.7 2.9 -0.2
v 2.7 2.9 -0.3
v 2.7 2.9 -0.7
v 2.7 2.9 -0.8
v 2.9 2.6 -0.3
v 2.9 2.6 -0.7
v 2.9 2.6 -0.8
v 2.9 2.8 -0.3
v 2.9 2.8 -0.7
v 2.9 2.8 -0.8
v 2.9 2.9 0.4
v 2.9 2.9 0.3
v 2.9 3 0.4
v 2.9 3 0.3
v 3 2.6 0.4
v 3 2.6 0.2
v 3 2.6 -0.1
v 3 2.7 0.6
v 3 2.7 0.4
v 3 2.7 0.3
v 3 2.7 0.2
v 3 2.7 -0.1
v 3 2.8 0.4
v 3 2.8 0.3
v 3 2.8 0.1
v 3 2.8 -0.1
v 3 2.9 0.4
v 3 2.9 0.3
v 3 2.9 0.2
v 3 2.9 0.1
v 3 2.9 -0.1
v 3 3 0.6
v 3 3 0.4
v 2.6 2.6 0.4
v 2.6 2.6 0.2
v 2.6 2.6 -0.1
v 2.6 2.7 0.5
v 2.6 2.7 0.4
v 2.6 2.7 0.3
v 2.6 2.7 0.2
v 2.6 2.7 -0.1
v 2.6 2.8 0.6
v 2.6 2.8 0.5
v 2.6 2.8 0.4
v 2.6 2.8 0.3
v 2.6 2.8 0.1
v 2.6 2.8 -0.1
v 2.6 2.9 0.4
v 2.6 2.9 0.3
v 2.6 2.9 0.2
v 2.6 2.9 0.1
v 2.6 2.9 -0.1
v 2.6 3 0.6
v 2.6 3 0.4
v 2.7 2.6 -0.3
v 2.7 2.6 -0.7
v 2.7 2.6 -0.8
v 2.7 2.7 0.6
v 2.7 2.7 0.5
v 2.7 2.8 0.6
v 2.7 2.8 0.5
v 2.7 2.8 -0.3
v 2.7 2.8 -0.7
v 2.7 2.8 -0.8
v 2.7 2.9 0.4
v 2.7 2.9 0.3
v 2.7 3 0.4
v 2.7 3 0.3
v 2.9 2.5 0.6
v 2.9 2.5 0.5
v 2.9 2.5 -0.2
v 2.9 2.5 -0.3
v 2.9 2.5 -0.7
v 2.9 2.5 -0.8
v 2.9 2.6 0.7
v 2.9 2.6 0.6
v 2.9 2.6 0.5
v 2.9 2.6 -0.2
v 2.9 2.6 -0.3
v 2.9 2.6 -0.7
v 2.9 2.6 -0.8
v 2.9 2.7 0.7
v 2.9 2.7 0.6
v 2.9 2.8 -0.2
v 2.9 2.8 -0.3
v 2.9 2.8 -0.7
v 2.9 2.8 -0.8
v 2.9 2.9 -0.2
v 2.9 2.9 -0.3
v 2.9 2.9 -0.7
v 2.9 2.9 -0.8
v 3 2.5 0.5
v 3 2.5 0.3
v 3 2.6 0.6
v 3 2.6 0.5
v 3 2.6 0.4
v 3 2.6 0.3
v 3 2.6 -0.2
v 3 2.6 -0.3
v 3 2.6 -0.7
v 3 2.6 -0.8
v 3 2.7 0.7
v 3 2.7 0.6
v 3 2.7 0.4
v 3 2.7 -0.2
v 3 2.8 -0.2
v 3 2.8 -0.3
v 3 2.8 -0.7
v 3 2.8 -0.8
v 3 2.9 0.4
v 3 2.9 0.3
v 3 2.9 0.2
v 3 2.9 0.1
v 3 2.9 -0.2
v 3 3 0.6
v 3 3 0.4
v 3 3 0.3
v 3 3 0.2
v 3 3 -0.2
v 3 3.1 0.7
v 3 3.1 0.3
v 3.1 2.5 0.3
v 3.1 2.5 -0.2
v 3.1 2.6 0.4
v 3.1 2.6 0.3
v 3.1 2.6 0.2
v 3.1 2.6 -0.2
v 3.1 2.7 0.6
v 3.1 2.7 0.4
v 3.1 2.7 0.3
v 3.1 2.7 0.2
v 3.1 2.7 -0.2
v 3.1 2.8 0.4
v 3.1 2.8 0.3
v 3.1 2.8 0.1
v 3.1 2.8 -0.2
v 3.1 2.9 0.4
v 3.1 2.9 0.3
v 3.1 2.9 0.2
v 3.1 2.9 0.1
v 3.1 2.9 -0.2
v 3.1 3 0.6
v 3.1 3 0.4
v 2.6 2.7 0.7
v 2.6 3.1 0.7
v 2.7 2.6 0.7
v 2.7 2.7 0.7
v 2.7 2.9 0.7
v 2.7 3 0.7
v 2.7 3.1 0.7
v 2.9 2.6 0.7
v 2.9 2.7 0.7
v 2.9 2.9 0.7
v 2.9 3 0.7
v 2.9 3.1 0.7
v 3 2.7 0.7
v 3 3.1 0.7
v 2.5 2.7 0.6
v 2.5 3 0.6
v 2.6 2.6 0.6
v 2.6 2.7 0.6
v 2.6 3 0.6
v 2.7 2.5 0.6
v 2.7 2.6 0.6
v 2.7 2.7 0.6
v 2.9 2.5 0.6
v 2.9 2.6 0.6
v 2.9 2.7 0.6
v 3 2.6 0.6
v 3 2.7 0.6
v 3 3 0.6
v 3.1 2.7 0.6
v 3.1 3 0.6
v 2.6 2.5 0.5
v 2.6 2.6 0.5
v 2.7 2.5 0.5
v 2.7 2.6 0.5
v 2.9 2.5 0.5
v 2.9 2.6 0.5
v 3 2.5 0.5
v 3 2.6 0.5
v 2.5 2.6 0.4
v 2.5 2.7 0.4
v 2.6 2.6 0.4
v 2.6 2.7 0.4
v 2.6 2.9 0.4
v 2.6 3 0.4
v 2.7 2.9 0.4
v 2.7 3 0.4
v 2.9 2.9 0.4
v 2.9 3 0.4
v 3 2.6 0.4
v 3 2.7 0.4
v 3 2.9 0.4
v 3 3 0.4
v 3.1 2.6 0.4
v 3.1 2.7 0.4
v 2.5 2.5 0.3
v 2.5 2.6 0.3
v 2.6 2.5 0.3
v 2.6 2.6 0.3
v 2.7 2.9 0.3
v 2.7 3 0.3
v 2.9 2.9 0.3
v 2.9 3 0.3
v 3 2.5 0.3
v 3 2.6 0.3
v 3.1 2.5 0.3
v 3.1 2.6 0.3
v 2.6 2.6 -0.1
v 2.6 2.7 -0.1
v 2.6 2.8 -0.1
v 2.6 2.9 -0.1
v 2.7 2.8 -0.1
v 2.7 2.9 -0.1
v 2.9 2.8 -0.1
v 2.9 2.9 -0.1
v 3 2.6 -0.1
v 3 2.7 -0.1
v 3 2.8 -0.1
v 3 2.9 -0.1
v 2.6 2.8 0.6
v 2.6 3 0.6
v 2.7 2.7 0.6
v 2.7 2.8 0.6
v 2.7 2.9 0.6
v 2.7 3 0.6
v 2.9 2.7 0.6
v 2.9 2.9 0.6
v 2.9 3 0.6
v 3 2.7 0.6
v 3 3 0.6
v 2.6 2.7 0.5
v 2.6 2.8 0.5
v 2.7 2.7 0.5
v 2.7 2.8 0.5
v 2.5 2.9 0.4
v 2.5 3 0.4
v 2.6 2.6 0.4
v 2.6 2.7 0.4
v 2.6 2.9 0.4
v 2.6 3 0.4
v 2.7 2.6 0.4
v 2.7 2.7 0.4
v 2.9 2.6 0.4
v 2.9 2.7 0.4
v 3 2.6 0.4
v 3 2.7 0.4
v 3 2.9 0.4
v 3 3 0.4
v 3.1 2.9 0.4
v 3.1 3 0.4
v 2.6 3 0.3
v 2.6 3.1 0.3
v 2.7 3 0.3
v 2.7 3.1 0.3
v 2.9 3 0.3
v 2.9 3.1 0.3
v 3 3 0.3
v 3 3.1 0.3
v 2.5 2.5 -0.2
v 2.5 2.6 -0.2
v 2.5 2.7 -0.2
v 2.5 2.8 -0.2
v 2.5 2.9 -0.2
v 2.6 2.6 -0.2
v 2.6 2.7 -0.2
v 2.6 2.8 -0.2
v 2.6 2.9 -0.2
v 2.6 3 -0.2
v 2.7 2.5 -0.2
v 2.7 2.6 -0.2
v 2.7 2.8 -0.2
v 2.7 2.9 -0.2
v 2.7 3 -0.2
v 2.9 2.5 -0.2
v 2.9 2.6 -0.2
v 2.9 2.8 -0.2
v 2.9 2.9 -0.2
v 2.9 3 -0.2
v 3 2.6 -0.2
v 3 2.7 -0.2
v 3 2.8 -0.2
v 3 2.9 -0.2
v 3 3 -0.2
v 3.1 2.5 -0.2
v 3.1 2.6 -0.2
v 3.1 2.7 -0.2
v 3.1 2.8 -0.2
v 3.1 2.9 -0.2
v 2.7 2.6 -0.3
v 2.7 2.8 -0.3
v 2.9 2.6 -0.3
v 2.9 2.8 -0.3
v 2.6 2.6 -0.8
v 2.6 2.8 -0.8
v 2.7 2.5 -0.8
v 2.7 2.6 -0.8
v 2.7 2.8 -0.8
v 2.7 2.9 -0.8
v 2.9 2.5 -0.8
v 2.9 2.6 -0.8
v 2.9 2.8 -0.8
v 2.9 2.9 -0.8
v 3 2.6 -0.8
v 3 2.8 -0.8
v 2.7 2.5 0.6
v 2.9 2.5 0.6
v 2.6 2.5 0.5
v 2.7 2.5 0.5
v 2.9 2.5 0.5
v 3 2.5 0.5
v 2.5 2.5 0.3
v 2.6 2.5 0.3
v 3 2.5 0.3
v 3.1 2.5 0.3
v 2.7 2.5 0.2
v 2.9 2.5 0.2
v 2.5 2.5 -0.2
v 2.7 2.5 -0.2
v 2.9 2.5 -0.2
v 3.1 2.5 -0.2
v 2.7 2.5 -0.3
v 2.9 2.5 -0.3
v 2.7 2.5 -0.7
v 2.9 2.5 -0.7
v 2.7 2.5 -0.8
v 2.9 2.5 -0.8
v 2.7 2.6 0.7
v 2.9 2.6 0.7
v 2.6 2.6 0.6
v 2.7 2.6 0.6
v 2.9 2.6 0.6
v 3 2.6 0.6
v 2.6 2.6 0.5
v 2.7 2.6 0.5
v 2.9 2.6 0.5
v 3 2.6 0.5
v 2.5 2.6 0.4
v 2.6 2.6 0.4
v 3 2.6 0.4
v 3.1 2.6 0.4
v 2.5 2.6 0.3
v 2.6 2.6 0.3
v 3 2.6 0.3
v 3.1 2.6 0.3
v 2.6 2.6 -0.2
v 2.7 2.6 -0.2
v 2.9 2.6 -0.2
v 3 2.6 -0.2
v 2.6 2.6 -0.3
v 2.7 2.6 -0.3
v 2.9 2.6 -0.3
v 3 2.6 -0.3
v 2.6 2.6 -0.7
v 2.7 2.6 -0.7
v 2.9 2.6 -0.7
v 3 2.6 -0.7
v 2.6 2.6 -0.8
v 2.7 2.6 -0.8
v 2.9 2.6 -0.8
v 3 2.6 -0.8
v 2.6 2.7 0.7
v 2.7 2.7 0.7
v 2.9 2.7 0.7
v 3 2.7 0.7
v 2.5 2.7 0.6
v 2.6 2.7 0.6
v 2.7 2.7 0.6
v 2.9 2.7 0.6
v 3 2.7 0.6
v 3.1 2.7 0.6
v 2.5 2.7 0.4
v 2.6 2.7 0.4
v 3 2.7 0.4
v 3.1 2.7 0.4
v 2.7 2.8 -0.3
v 2.9 2.8 -0.3
v 2.7 2.8 -0.7
v 2.9 2.8 -0.7
v 2.7 2.8 -0.8
v 2.9 2.8 -0.8
v 2.6 2.9 0.4
v 2.7 2.9 0.4
v 2.9 2.9 0.4
v 3 2.9 0.4
v 2.6 2.9 0.3
v 2.7 2.9 0.3
v 2.9 2.9 0.3
v 3 2.9 0.3
v 2.6 2.9 0.2
v 2.7 2.9 0.2
v 2.9 2.9 0.2
v 3 2.9 0.2
v 2.6 2.9 0.1
v 3 2.9 0.1
v 2.6 2.9 -0.1
v 2.7 2.9 -0.1
v 2.9 2.9 -0.1
v 3 2.9 -0.1
v 2.6 3 0.6
v 2.7 3 0.6
v 2.9 3 0.6
v 3 3 0.6
v 2.6 3 0.4
v 2.7 3 0.4
v 2.9 3 0.4
v 3 3 0.4
v 2.7 3 0.3
v 2.9 3 0.3
v 2.6 2.6 0.4
v 2.7 2.6 0.4
v 2.9 2.6 0.4
v 3 2.6 0.4
v 2.6 2.6 0.2
v 2.7 2.6 0.2
v 2.9 2.6 0.2
v 3 2.6 0.2
v 2.6 2.6 -0.1
v 3 2.6 -0.1
v 2.7 2.6 -0.3
v 2.9 2.6 -0.3
v 2.7 2.6 -0.7
v 2.9 2.6 -0.7
v 2.7 2.6 -0.8
v 2.9 2.6 -0.8
v 2.7 2.7 0.6
v 2.9 2.7 0.6
v 3 2.7 0.6
v 2.6 2.7 0.5
v 2.7 2.7 0.5
v 2.6 2.7 0.4
v 2.7 2.7 0.4
v 2.9 2.7 0.4
v 3 2.7 0.4
v 2.6 2.8 0.6
v 2.7 2.8 0.6
v 2.6 2.8 0.5
v 2.7 2.8 0.5
v 2.6 2.8 -0.2
v 2.7 2.8 -0.2
v 2.9 2.8 -0.2
v 3 2.8 -0.2
v 2.6 2.8 -0.3
v 2.7 2.8 -0.3
v 2.9 2.8 -0.3
v 3 2.8 -0.3
v 2.6 2.8 -0.7
v 2.7 2.8 -0.7
v 2.9 2.8 -0.7
v 3 2.8 -0.7
v 2.6 2.8 -0.8
v 2.7 2.8 -0.8
v 2.9 2.8 -0.8
v 3 2.8 -0.8
v 2.5 2.9 0.4
v 2.6 2.9 0.4
v 3 2.9 0.4
v 3.1 2.9 0.4
v 2.5 2.9 0.3
v 2.6 2.9 0.3
v 3 2.9 0.3
v 3.1 2.9 0.3
v 2.5 2.9 0.2
v 2.6 2.9 0.2
v 3 2.9 0.2
v 3.1 2.9 0.2
v 2.5 2.9 0.1
v 2.6 2.9 0.1
v 3 2.9 0.1
v 3.1 2.9 0.1
v 2.5 2.9 -0.2
v 2.6 2.9 -0.2
v 2.7 2.9 -0.2
v 2.9 2.9 -0.2
v 3 2.9 -0.2
v 3.1 2.9 -0.2
v 2.7 2.9 -0.3
v 2.9 2.9 -0.3
v 2.7 2.9 -0.7
v 2.9 2.9 -0.7
v 2.7 2.9 -0.8
v 2.9 2.9 -0.8
v 2.5 3 0.6
v 2.6 3 0.6
v 3 3 0.6
v 3.1 3 0.6
v 2.5 3 0.4
v 2.6 3 0.4
v 3 3 0.4
v 3.1 3 0.4
v 2.6 3 0.3
v 2.7 3 0.3
v 2.9 3 0.3
v 3 3 0.3
v 2.6 3 0.2
v 2.7 3 0.2
v 2.9 3 0.2
v 3 3 0.2
v 2.6 3 -0.2
v 2.7 3 -0.2
v 2.9 3 -0.2
v 3 3 -0.2
v 2.6 3.1 0.7
v 2.7 3.1 0.7
v 2.9 3.1 0.7
v 3 3.1 0.7
v 2.6 3.1 0.3
v 2.7 3.1 0.3
v 2.9 3.1 0.3
v 3 3.1 0.3

# faces
f 4/6/1 2/6/1 1/6/1
f 5/6/1 2/6/1 4/6/1
f 6/6/1 2/6/1 5/6/1
f 8/6/1 4/6/1 3/6/1
f 8/6/1 5/6/1 4/6/1
f 9/6/1 5/6/1 8/6/1
f 10/5/1 6/5/1 5/5/1
f 10/6/1 5/6/1 9/6/1
f 11/5/1 6/5/1 10/5/1
f 12/6/1 9/6/1 8/6/1
f 12/6/1 8/6/1 7/6/1
f 13/2/1 10/2/1 9/2/1
f 13/6/1 9/6/1 12/6/1
f 14/3/1 11/3/1 10/3/1
f 15/3/1 11/3/1 14/3/1
f 16/6/1 12/6/1 7/6/1
f 16/5/1 13/5/1 12/5/1
f 17/2/1 10/2/1 13/2/1
f 17/5/1 13/5/1 16/5/1
f 18/3/1 14/3/1 10/3/1
f 18/2/1 10/2/1 17/2/1
f 19/6/1 15/6/1 14/6/1
f 19/3/1 14/3/1 18/3/1
f 20/6/1 15/6/1 19/6/1
f 21/6/1 16/6/1 7/6/1
f 22/6/1 16/6/1 21/6/1
f 26/6/1 24/6/1 23/6/1
f 27/6/1 24/6/1 26/6/1
f 28/6/1 24/6/1 27/6/1
f 34/6/1 26/6/1 25/6/1
f 34/6/1 27/6/1 26/6/1
f 35/6/1 27/6/1 34/6/1
f 36/5/1 30/5/1 29/5/1
f 37/5/1 30/5/1 36/5/1
f 38/4/1 31/4/1 30/4/1
f 38/5/1 30/5/1 37/5/1
f 39/3/1 32/3/1 31/3/1
f 39/4/1 31/4/1 38/4/1
f 40/3/1 32/3/1 39/3/1
f 46/6/1 34/6/1 33/6/1
f 47/6/1 42/6/1 41/6/1
f 48/2/1 43/2/1 42/2/1
f 48/6/1 42/6/1 47/6/1
f 49/6/1 45/6/1 44/6/1
f 49/2/1 43/2/1 48/2/1
f 49/6/1 44/6/1 43/6/1
f 50/6/1 45/6/1 49/6/1
f 51/6/1 48/6/1 47/6/1
f 51/6/1 46/6/1 33/6/1
f 51/6/1 47/6/1 46/6/1
f 52/6/1 48/6/1 51/6/1
f 60/3/1 54/3/1 53/3/1
f 61/3/1 54/3/1 60/3/1
f 62/5/1 56/5/1 55/5/1
f 63/4/1 57/4/1 56/4/1
f 63/5/1 56/5/1 62/5/1
f 64/3/1 58/3/1 57/3/1
f 64/4/1 57/4/1 63/4/1
f 65/3/1 58/3/1 64/3/1
f 66/3/1 60/3/1 59/3/1
f 67/3/1 60/3/1 66/3/1
f 72/5/1 69/5/1 68/5/1
f 73/4/1 70/4/1 69/4/1
f 73/5/1 69/5/1 72/5/1
f 74/3/1 71/3/1 70/3/1
f 74/4/1 70/4/1 73/4/1
f 75/3/1 71/3/1 74/3/1
f 79/4/1 77/4/1 76/4/1
f 80/3/1 78/3/1 77/3/1
f 80/4/1 77/4/1 79/4/1
f 81/3/1 78/3/1 80/3/1
f 84/6/1 83/6/1 82/6/1
f 85/6/1 83/6/1 84/6/1
f 90/6/1 87/6/1 86/6/1
f 91/6/1 87/6/1 90/6/1
f 92/5/1 88/5/1 87/5/1
f 92/6/1 87/6/1 91/6/1
f 93/5/1 88/5/1 92/5/1
f 94/6/1 91/6/1 90/6/1
f 94/6/1 90/6/1 89/6/1
f 95/2/1 92/2/1 91/2/1
f 95/6/1 91/6/1 94/6/1
f 96/3/1 93/3/1 92/3/1
f 97/3/1 93/3/1 96/3/1
f 98/6/1 94/6/1 89/6/1
f 98/5/1 95/5/1 94/5/1
f 99/2/1 92/2/1 95/2/1
f 99/5/1 95/5/1 98/5/1
f 100/3/1 96/3/1 92/3/1
f 100/2/1 92/2/1 99/2/1
f 101/6/1 97/6/1 96/6/1
f 101/3/1 96/3/1 100/3/1
f 102/6/1 97/6/1 101/6/1
f 103/6/1 98/6/1 89/6/1
f 104/6/1 98/6/1 103/6/1
f 105/6/2 106/6/2 109/6/2
f 109/6/2 106/6/2 110/6/2
f 106/5/2 107/5/2 111/5/2
f 110/6/2 106/6/2 111/6/2
f 111/5/2 107/5/2 112/5/2
f 109/6/2 110/6/2 114/6/2
f 108/6/2 109/6/2 114/6/2
f 114/6/2 110/6/2 115/6/2
f 110/2/2 111/2/2 116/2/2
f 115/6/2 110/6/2 116/6/2
f 111/3/2 112/3/2 117/3/2
f 117/3/2 112/3/2 118/3/2
f 114/6/2 115/6/2 119/6/2
f 113/6/2 114/6/2 119/6/2
f 115/5/2 116/5/2 119/5/2
f 116/2/2 111/2/2 120/2/2
f 119/5/2 116/5/2 120/5/2
f 111/3/2 117/3/2 121/3/2
f 120/2/2 111/2/2 121/2/2
f 117/6/2 118/6/2 122/6/2
f 121/3/2 117/3/2 122/3/2
f 122/6/2 118/6/2 123/6/2
f 113/6/2 119/6/2 124/6/2
f 124/6/2 119/6/2 125/6/2
f 129/6/2 130/6/2 131/6/2
f 131/6/2 130/6/2 132/6/2
f 126/4/2 127/4/2 133/4/2
f 127/3/2 128/3/2 134/3/2
f 133/4/2 127/4/2 134/4/2
f 134/3/2 128/3/2 135/3/2
f 136/6/2 137/6/2 138/6/2
f 138/6/2 137/6/2 139/6/2
f 140/3/2 141/3/2 147/3/2
f 147/3/2 141/3/2 148/3/2
f 142/5/2 143/5/2 149/5/2
f 143/4/2 144/4/2 150/4/2
f 149/5/2 143/5/2 150/5/2
f 144/3/2 145/3/2 151/3/2
f 150/4/2 144/4/2 151/4/2
f 151/3/2 145/3/2 152/3/2
f 146/3/2 147/3/2 153/3/2
f 153/3/2 147/3/2 154/3/2
f 155/5/2 156/5/2 159/5/2
f 156/4/2 157/4/2 160/4/2
f 159/5/2 156/5/2 160/5/2
f 157/3/2 158/3/2 161/3/2
f 160/4/2 157/4/2 161/4/2
f 161/3/2 158/3/2 162/3/2
f 163/6/2 164/6/2 166/6/2
f 166/6/2 164/6/2 167/6/2
f 167/6/2 164/6/2 168/6/2
f 165/6/2 166/6/2 174/6/2
f 166/6/2 167/6/2 174/6/2
f 174/6/2 167/6/2 175/6/2
f 169/5/2 170/5/2 176/5/2
f 176/5/2 170/5/2 177/5/2
f 170/4/2 171/4/2 178/4/2
f 177/5/2 170/5/2 178/5/2
f 171/3/2 172/3/2 179/3/2
f 178/4/2 171/4/2 179/4/2
f 179/3/2 172/3/2 180/3/2
f 173/6/2 174/6/2 186/6/2
f 181/6/2 182/6/2 187/6/2
f 182/2/2 183/2/2 188/2/2
f 187/6/2 182/6/2 188/6/2
f 184/6/2 185/6/2 189/6/2
f 188/2/2 183/2/2 189/2/2
f 183/6/2 184/6/2 189/6/2
f 189/6/2 185/6/2 190/6/2
f 187/6/2 188/6/2 191/6/2
f 173/6/2 186/6/2 191/6/2
f 186/6/2 187/6/2 191/6/2
f 191/6/2 188/6/2 192/6/2
f 193/6/2 194/6/2 196/6/2
f 196/6/2 194/6/2 197/6/2
f 197/6/2 194/6/2 198/6/2
f 195/6/2 196/6/2 200/6/2
f 196/6/2 197/6/2 200/6/2
f 200/6/2 197/6/2 201/6/2
f 197/5/2 198/5/2 202/5/2
f 201/6/2 197/6/2 202/6/2
f 202/5/2 198/5/2 203/5/2
f 200/6/2 201/6/2 204/6/2
f 199/6/2 200/6/2 204/6/2
f 201/2/2 202/2/2 205/2/2
f 204/6/2 201/6/2 205/6/2
f 202/3/2 203/3/2 206/3/2
f 206/3/2 203/3/2 207/3/2
f 199/6/2 204/6/2 208/6/2
f 204/5/2 205/5/2 208/5/2
f 205/2/2 202/2/2 209/2/2
f 208/5/2 205/5/2 209/5/2
f 202/3/2 206/3/2 210/3/2
f 209/2/2 202/2/2 210/2/2
f 206/6/2 207/6/2 211/6/2
f 210/3/2 206/3/2 211/3/2
f 211/6/2 207/6/2 212/6/2
f 199/6/2 208/6/2 213/6/2
f 213/6/2 208/6/2 214/6/2
f 218/6/3 216/6/3 215/6/3
f 219/6/3 216/6/3 218/6/3
f 220/6/3 216/6/3 219/6/3
f 221/6/3 216/6/3 220/6/3
f 222/3/3 218/3/3 217/3/3
f 222/3/3 219/3/3 218/3/3
f 223/3/3 219/3/3 222/3/3
f 224/7/3 220/7/3 219/7/3
f 224/3/3 219/3/3 223/3/3
f 225/3/3 221/3/3 220/3/3
f 225/7/3 220/7/3 224/7/3
f 226/3/3 221/3/3 225/3/3
f 227/6/3 224/6/3 223/6/3
f 227/6/3 226/6/3 225/6/3
f 227/6/3 225/6/3 224/6/3
f 228/6/3 226/6/3 227/6/3
f 232/6/3 230/6/3 229/6/3
f 233/6/3 230/6/3 232/6/3
f 235/6/3 232/6/3 231/6/3
f 236/6/3 232/6/3 235/6/3
f 237/3/3 235/3/3 234/3/3
f 238/3/3 235/3/3 237/3/3
f 240/6/3 239/6/3 238/6/3
f 241/6/3 239/6/3 240/6/3
f 243/6/3 242/6/3 241/6/3
f 244/6/3 242/6/3 243/6/3
f 247/6/3 246/6/3 245/6/3
f 248/6/3 246/6/3 247/6/3
f 251/6/3 250/6/3 249/6/3
f 252/6/3 250/6/3 251/6/3
f 255/6/3 254/6/3 253/6/3
f 256/6/3 254/6/3 255/6/3
f 259/6/3 258/6/3 257/6/3
f 260/6/3 258/6/3 259/6/3
f 265/6/3 262/6/3 261/6/3
f 266/6/3 262/6/3 265/6/3
f 267/6/3 264/6/3 263/6/3
f 268/6/3 264/6/3 267/6/3
f 271/6/3 270/6/3 269/6/3
f 272/6/3 270/6/3 271/6/3
f 275/2/3 274/2/3 273/2/3
f 276/2/3 274/2/3 275/2/3
f 279/6/3 278/6/3 277/6/3
f 280/6/3 278/6/3 279/6/3
f 285/1/3 282/1/3 281/1/3
f 285/3/3 284/3/3 283/3/3
f 285/1/3 283/1/3 282/1/3
f 286/3/3 284/3/3 285/3/3
f 287/1/3 285/1/3 281/1/3
f 287/1/3 286/1/3 285/1/3
f 288/1/3 286/1/3 287/1/3
f 289/1/3 287/1/3 281/1/3
f 290/1/3 287/1/3 289/1/3
f 291/3/3 288/3/3 287/3/3
f 291/1/3 287/1/3 290/1/3
f 292/3/3 288/3/3 291/3/3
f 293/6/4 294/6/4 296/6/4
f 296/6/4 294/6/4 297/6/4
f 297/6/4 294/6/4 298/6/4
f 295/3/4 296/3/4 299/3/4
f 296/3/4 297/3/4 299/3/4
f 297/7/4 298/7/4 300/7/4
f 299/3/4 297/3/4 300/3/4
f 300/7/4 298/7/4 301/7/4
f 299/6/4 300/6/4 302/6/4
f 300/6/4 301/6/4 302/6/4
f 302/6/4 301/6/4 303/6/4
f 304/6/4 305/6/4 306/6/4
f 306/6/4 305/6/4 307/6/4
f 308/6/4 309/6/4 312/6/4
f 312/6/4 309/6/4 313/6/4
f 310/6/4 311/6/4 314/6/4
f 314/6/4 311/6/4 315/6/4
f 314/3/4 315/3/4 316/3/4
f 316/3/4 315/3/4 317/3/4
f 316/6/4 317/6/4 318/6/4
f 318/6/4 317/6/4 319/6/4
f 320/6/4 321/6/4 322/6/4
f 322/6/4 321/6/4 323/6/4
f 324/6/4 325/6/4 326/6/4
f 326/6/4 325/6/4 327/6/4
f 326/3/4 327/3/4 328/3/4
f 328/3/4 327/3/4 329/3/4
f 328/6/4 329/6/4 330/6/4
f 330/6/4 329/6/4 331/6/4
f 332/6/4 333/6/4 337/6/4
f 333/5/4 334/5/4 337/5/4
f 334/3/4 335/3/4 338/3/4
f 337/5/4 334/5/4 338/5/4
f 335/6/4 336/6/4 339/6/4
f 338/3/4 335/3/4 339/3/4
f 339/6/4 336/6/4 340/6/4
f 332/6/4 337/6/4 342/6/4
f 342/6/4 337/6/4 343/6/4
f 339/3/4 340/3/4 344/3/4
f 340/6/4 341/6/4 345/6/4
f 344/3/4 340/3/4 345/3/4
f 345/6/4 341/6/4 346/6/4
f 345/3/4 346/3/4 350/3/4
f 350/3/4 346/3/4 351/3/4
f 347/6/4 348/6/4 352/6/4
f 349/3/4 350/3/4 354/3/4
f 350/6/4 351/6/4 355/6/4
f 354/3/4 350/3/4 355/3/4
f 355/6/4 351/6/4 356/6/4
f 347/6/4 352/6/4 357/6/4
f 352/5/4 353/5/4 358/5/4
f 357/6/4 352/6/4 358/6/4
f 353/3/4 354/3/4 359/3/4
f 358/5/4 353/5/4 359/5/4
f 354/6/4 355/6/4 360/6/4
f 359/3/4 354/3/4 360/3/4
f 360/6/4 355/6/4 361/6/4
f 362/5/4 363/5/4 364/5/4
f 364/5/4 363/5/4 365/5/4
f 366/3/4 367/3/4 369/3/4
f 369/3/4 367/3/4 370/3/4
f 368/3/4 369/3/4 372/3/4
f 372/3/4 369/3/4 373/3/4
f 370/3/4 371/3/4 374/3/4
f 374/3/4 371/3/4 375/3/4
f 373/3/4 374/3/4 376/3/4
f 376/3/4 374/3/4 377/3/4
f 381/3/5 379/3/5 378/3/5
f 382/3/5 379/3/5 381/3/5
f 385/6/5 381/6/5 380/6/5
f 386/6/5 383/6/5 382/6/5
f 388/6/5 385/6/5 384/6/5
f 388/3/5 382/3/5 381/3/5
f 388/6/5 381/6/5 385/6/5
f 389/6/5 387/6/5 386/6/5
f 389/3/5 382/3/5 388/3/5
f 389/6/5 386/6/5 382/6/5
f 390/6/5 388/6/5 384/6/5
f 390/6/5 389/6/5 388/6/5
f 391/6/5 389/6/5 390/6/5
f 392/6/5 387/6/5 389/6/5
f 392/6/5 389/6/5 391/6/5
f 393/6/5 387/6/5 392/6/5
f 394/5/5 392/5/5 391/5/5
f 395/5/5 392/5/5 394/5/5
f 396/4/5 395/4/5 394/4/5
f 397/4/5 395/4/5 396/4/5
f 398/3/5 397/3/5 396/3/5
f 399/3/5 397/3/5 398/3/5
f 403/3/5 401/3/5 400/3/5
f 404/3/5 401/3/5 403/3/5
f 406/6/5 403/6/5 402/6/5
f 407/6/5 403/6/5 406/6/5
f 408/6/5 405/6/5 404/6/5
f 409/6/5 405/6/5 408/6/5
f 414/6/5 411/6/5 410/6/5
f 415/6/5 411/6/5 414/6/5
f 416/6/5 413/6/5 412/6/5
f 417/6/5 413/6/5 416/6/5
f 422/5/5 419/5/5 418/5/5
f 423/5/5 419/5/5 422/5/5
f 424/5/5 421/5/5 420/5/5
f 425/5/5 421/5/5 424/5/5
f 426/4/5 423/4/5 422/4/5
f 427/4/5 423/4/5 426/4/5
f 428/4/5 425/4/5 424/4/5
f 429/4/5 425/4/5 428/4/5
f 430/3/5 427/3/5 426/3/5
f 431/3/5 427/3/5 430/3/5
f 432/3/5 429/3/5 428/3/5
f 433/3/5 429/3/5 432/3/5
f 439/6/5 435/6/5 434/6/5
f 440/6/5 435/6/5 439/6/5
f 441/6/5 437/6/5 436/6/5
f 442/6/5 437/6/5 441/6/5
f 444/6/5 439/6/5 438/6/5
f 445/6/5 439/6/5 444/6/5
f 446/6/5 443/6/5 442/6/5
f 447/6/5 443/6/5 446/6/5
f 450/4/5 449/4/5 448/4/5
f 451/4/5 449/4/5 450/4/5
f 452/3/5 451/3/5 450/3/5
f 453/3/5 451/3/5 452/3/5
f 458/6/5 455/6/5 454/6/5
f 459/6/5 455/6/5 458/6/5
f 460/6/5 457/6/5 456/6/5
f 461/6/5 457/6/5 460/6/5
f 462/2/5 459/2/5 458/2/5
f 462/2/5 460/2/5 459/2/5
f 462/2/5 461/2/5 460/2/5
f 463/2/5 461/2/5 462/2/5
f 464/2/5 461/2/5 463/2/5
f 465/2/5 461/2/5 464/2/5
f 466/6/5 463/6/5 462/6/5
f 467/6/5 465/6/5 464/6/5
f 468/6/5 463/6/5 466/6/5
f 469/3/5 464/3/5 463/3/5
f 469/6/5 463/6/5 468/6/5
f 470/6/5 467/6/5 464/6/5
f 470/3/5 464/3/5 469/3/5
f 471/6/5 467/6/5 470/6/5
f 476/6/5 473/6/5 472/6/5
f 477/3/5 474/3/5 473/3/5
f 477/6/5 473/6/5 476/6/5
f 478/6/5 475/6/5 474/6/5
f 478/3/5 474/3/5 477/3/5
f 479/6/5 475/6/5 478/6/5
f 480/3/5 478/3/5 477/3/5
f 481/3/5 478/3/5 480/3/5
f 482/6/6 483/6/6 486/6/6
f 483/3/6 484/3/6 487/3/6
f 486/6/6 483/6/6 487/6/6
f 484/6/6 485/6/6 488/6/6
f 487/3/6 484/3/6 488/3/6
f 488/6/6 485/6/6 489/6/6
f 486/6/6 487/6/6 490/6/6
f 487/6/6 488/6/6 490/6/6
f 488/6/6 489/6/6 490/6/6
f 490/6/6 489/6/6 491/6/6
f 492/4/6 493/4/6 494/4/6
f 494/4/6 493/4/6 495/4/6
f 494/3/6 495/3/6 496/3/6
f 496/3/6 495/3/6 497/3/6
f 498/3/6 499/3/6 502/3/6
f 501/6/6 502/6/6 503/6/6
f 502/3/6 499/3/6 504/3/6
f 503/6/6 502/6/6 504/6/6
f 499/6/6 500/6/6 505/6/6
f 504/3/6 499/3/6 505/3/6
f 505/6/6 500/6/6 506/6/6
f 507/6/6 508/6/6 509/6/6
f 509/6/6 508/6/6 510/6/6
f 511/5/6 512/5/6 515/5/6
f 515/5/6 512/5/6 516/5/6
f 513/5/6 514/5/6 517/5/6
f 517/5/6 514/5/6 518/5/6
f 515/4/6 516/4/6 519/4/6
f 519/4/6 516/4/6 520/4/6
f 517/4/6 518/4/6 521/4/6
f 521/4/6 518/4/6 522/4/6
f 519/3/6 520/3/6 523/3/6
f 523/3/6 520/3/6 524/3/6
f 521/3/6 522/3/6 525/3/6
f 525/3/6 522/3/6 526/3/6
f 527/5/6 528/5/6 531/5/6
f 531/5/6 528/5/6 532/5/6
f 529/5/6 530/5/6 533/5/6
f 533/5/6 530/5/6 534/5/6
f 531/2/6 532/2/6 535/2/6
f 535/2/6 532/2/6 536/2/6
f 533/2/6 534/2/6 537/2/6
f 537/2/6 534/2/6 538/2/6
f 535/3/6 536/3/6 539/3/6
f 539/3/6 536/3/6 540/3/6
f 537/3/6 538/3/6 541/3/6
f 541/3/6 538/3/6 542/3/6
f 539/6/6 540/6/6 543/6/6
f 543/6/6 540/6/6 544/6/6
f 541/6/6 542/6/6 547/6/6
f 547/6/6 542/6/6 548/6/6
f 545/5/6 546/5/6 549/5/6
f 549/5/6 546/5/6 550/5/6
f 549/4/6 550/4/6 551/4/6
f 551/4/6 550/4/6 552/4/6
f 551/3/6 552/3/6 553/3/6
f 553/3/6 552/3/6 554/3/6
f 555/6/6 556/6/6 559/6/6
f 559/6/6 556/6/6 560/6/6
f 557/6/6 558/6/6 561/6/6
f 561/6/6 558/6/6 562/6/6
f 563/2/6 564/2/6 567/2/6
f 565/2/6 566/2/6 567/2/6
f 564/2/6 565/2/6 567/2/6
f 567/2/6 566/2/6 568/2/6
f 568/2/6 566/2/6 569/2/6
f 569/2/6 566/2/6 570/2/6
f 567/6/6 568/6/6 571/6/6
f 568/3/6 569/3/6 572/3/6
f 571/6/6 568/6/6 572/6/6
f 569/6/6 570/6/6 573/6/6
f 572/3/6 569/3/6 573/3/6
f 573/6/6 570/6/6 574/6/6
f 575/6/6 576/6/6 579/6/6
f 576/3/6 577/3/6 580/3/6
f 579/6/6 576/6/6 580/6/6
f 577/6/6 578/6/6 581/6/6
f 580/3/6 577/3/6 581/3/6
f 581/6/6 578/6/6 582/6/6
