# MagicaVoxel @ Ephtracy

# group
o 

# material
mtllib Turret-1.mtl
usemtl palette

# normals
vn -1 0 0
vn 1 0 0
vn 0 0 1
vn 0 0 -1
vn 0 -1 0
vn 0 1 0

# texcoords
vt 0.892578 0.5
vt 0.896484 0.5
vt 0.904297 0.5

# verts
v 2.1 1.8 0.8
v 2.1 1.8 -0.6
v 2.1 1.9 0.8
v 2.1 1.9 -0.6
v 2.3 1.9 0.6
v 2.3 1.9 -0.4
v 2.3 2 0.6
v 2.3 2 -0.4
v 2.4 2 0.5
v 2.4 2 -0.3
v 2.4 2.1 0.5
v 2.4 2.1 -0.3
v 2.6 2.1 0.3
v 2.6 2.1 0.2
v 2.6 2.1 -5.96046e-008
v 2.6 2.1 -0.1
v 2.6 2.5 0.3
v 2.6 2.5 0.2
v 2.6 2.5 -5.96046e-008
v 2.6 2.5 -0.1
v 2.7 2.1 0.2
v 2.7 2.1 -5.96046e-008
v 2.7 2.5 0.2
v 2.7 2.5 -5.96046e-008
v 2.9 2.1 0.3
v 2.9 2.1 0.2
v 2.9 2.1 -5.96046e-008
v 2.9 2.1 -0.1
v 2.9 2.5 0.3
v 2.9 2.5 0.2
v 2.9 2.5 -5.96046e-008
v 2.9 2.5 -0.1
v 2.7 2.1 0.3
v 2.7 2.1 0.2
v 2.7 2.1 -5.96046e-008
v 2.7 2.1 -0.1
v 2.7 2.5 0.3
v 2.7 2.5 0.2
v 2.7 2.5 -5.96046e-008
v 2.7 2.5 -0.1
v 2.9 2.1 0.2
v 2.9 2.1 -5.96046e-008
v 2.9 2.5 0.2
v 2.9 2.5 -5.96046e-008
v 3 2.1 0.3
v 3 2.1 0.2
v 3 2.1 -5.96046e-008
v 3 2.1 -0.1
v 3 2.5 0.3
v 3 2.5 0.2
v 3 2.5 -5.96046e-008
v 3 2.5 -0.1
v 3.2 2 0.5
v 3.2 2 -0.3
v 3.2 2.1 0.5
v 3.2 2.1 -0.3
v 3.3 1.9 0.6
v 3.3 1.9 -0.4
v 3.3 2 0.6
v 3.3 2 -0.4
v 3.5 1.8 0.8
v 3.5 1.8 -0.6
v 3.5 1.9 0.8
v 3.5 1.9 -0.6
v 2.1 1.8 0.8
v 2.1 1.9 0.8
v 3.5 1.8 0.8
v 3.5 1.9 0.8
v 2.3 1.9 0.6
v 2.3 2 0.6
v 3.3 1.9 0.6
v 3.3 2 0.6
v 2.4 2 0.5
v 2.4 2.1 0.5
v 3.2 2 0.5
v 3.2 2.1 0.5
v 2.6 2.1 0.3
v 2.6 2.5 0.3
v 2.7 2.1 0.3
v 2.7 2.5 0.3
v 2.9 2.1 0.3
v 2.9 2.5 0.3
v 3 2.1 0.3
v 3 2.5 0.3
v 2.7 2.1 0.2
v 2.7 2.5 0.2
v 2.9 2.1 0.2
v 2.9 2.5 0.2
v 2.6 2.1 -5.96046e-008
v 2.6 2.5 -5.96046e-008
v 2.7 2.1 -5.96046e-008
v 2.7 2.5 -5.96046e-008
v 2.9 2.1 -5.96046e-008
v 2.9 2.5 -5.96046e-008
v 3 2.1 -5.96046e-008
v 3 2.5 -5.96046e-008
v 2.6 2.1 0.2
v 2.6 2.5 0.2
v 2.7 2.1 0.2
v 2.7 2.5 0.2
v 2.9 2.1 0.2
v 2.9 2.5 0.2
v 3 2.1 0.2
v 3 2.5 0.2
v 2.7 2.1 -5.96046e-008
v 2.7 2.5 -5.96046e-008
v 2.9 2.1 -5.96046e-008
v 2.9 2.5 -5.96046e-008
v 2.6 2.1 -0.1
v 2.6 2.5 -0.1
v 2.7 2.1 -0.1
v 2.7 2.5 -0.1
v 2.9 2.1 -0.1
v 2.9 2.5 -0.1
v 3 2.1 -0.1
v 3 2.5 -0.1
v 2.4 2 -0.3
v 2.4 2.1 -0.3
v 3.2 2 -0.3
v 3.2 2.1 -0.3
v 2.3 1.9 -0.4
v 2.3 2 -0.4
v 3.3 1.9 -0.4
v 3.3 2 -0.4
v 2.1 1.8 -0.6
v 2.1 1.9 -0.6
v 3.5 1.8 -0.6
v 3.5 1.9 -0.6
v 2.1 1.8 0.8
v 3.5 1.8 0.8
v 2.2 1.8 0.7
v 3.4 1.8 0.7
v 2.2 1.8 -0.5
v 3.4 1.8 -0.5
v 2.1 1.8 -0.6
v 3.5 1.8 -0.6
v 2.1 1.9 0.8
v 3.5 1.9 0.8
v 2.2 1.9 0.7
v 3.4 1.9 0.7
v 2.3 1.9 0.6
v 3.3 1.9 0.6
v 2.3 1.9 -0.4
v 3.3 1.9 -0.4
v 2.2 1.9 -0.5
v 3.4 1.9 -0.5
v 2.1 1.9 -0.6
v 3.5 1.9 -0.6
v 2.3 2 0.6
v 3.3 2 0.6
v 2.4 2 0.5
v 3.2 2 0.5
v 2.4 2 -0.3
v 3.2 2 -0.3
v 2.3 2 -0.4
v 3.3 2 -0.4
v 2.4 2.1 0.5
v 3.2 2.1 0.5
v 2.5 2.1 0.4
v 3.1 2.1 0.4
v 2.6 2.1 0.3
v 2.7 2.1 0.3
v 2.9 2.1 0.3
v 3 2.1 0.3
v 2.6 2.1 0.2
v 2.7 2.1 0.2
v 2.9 2.1 0.2
v 3 2.1 0.2
v 2.6 2.1 -5.96046e-008
v 2.7 2.1 -5.96046e-008
v 2.9 2.1 -5.96046e-008
v 3 2.1 -5.96046e-008
v 2.6 2.1 -0.1
v 2.7 2.1 -0.1
v 2.9 2.1 -0.1
v 3 2.1 -0.1
v 2.5 2.1 -0.2
v 3.1 2.1 -0.2
v 2.4 2.1 -0.3
v 3.2 2.1 -0.3
v 2.6 2.5 0.3
v 2.7 2.5 0.3
v 2.9 2.5 0.3
v 3 2.5 0.3
v 2.6 2.5 0.2
v 2.7 2.5 0.2
v 2.9 2.5 0.2
v 3 2.5 0.2
v 2.6 2.5 -5.96046e-008
v 2.7 2.5 -5.96046e-008
v 2.9 2.5 -5.96046e-008
v 3 2.5 -5.96046e-008
v 2.6 2.5 -0.1
v 2.7 2.5 -0.1
v 2.9 2.5 -0.1
v 3 2.5 -0.1

# faces
f 3/1/1 2/1/1 1/1/1
f 4/1/1 2/1/1 3/1/1
f 7/1/1 6/1/1 5/1/1
f 8/1/1 6/1/1 7/1/1
f 11/2/1 10/2/1 9/2/1
f 12/2/1 10/2/1 11/2/1
f 17/2/1 14/2/1 13/2/1
f 18/2/1 14/2/1 17/2/1
f 19/2/1 16/2/1 15/2/1
f 20/2/1 16/2/1 19/2/1
f 23/3/1 22/3/1 21/3/1
f 24/3/1 22/3/1 23/3/1
f 29/2/1 26/2/1 25/2/1
f 30/2/1 26/2/1 29/2/1
f 31/2/1 28/2/1 27/2/1
f 32/2/1 28/2/1 31/2/1
f 33/2/2 34/2/2 37/2/2
f 37/2/2 34/2/2 38/2/2
f 35/2/2 36/2/2 39/2/2
f 39/2/2 36/2/2 40/2/2
f 41/3/2 42/3/2 43/3/2
f 43/3/2 42/3/2 44/3/2
f 45/2/2 46/2/2 49/2/2
f 49/2/2 46/2/2 50/2/2
f 47/2/2 48/2/2 51/2/2
f 51/2/2 48/2/2 52/2/2
f 53/2/2 54/2/2 55/2/2
f 55/2/2 54/2/2 56/2/2
f 57/1/2 58/1/2 59/1/2
f 59/1/2 58/1/2 60/1/2
f 61/1/2 62/1/2 63/1/2
f 63/1/2 62/1/2 64/1/2
f 67/1/3 66/1/3 65/1/3
f 68/1/3 66/1/3 67/1/3
f 71/1/3 70/1/3 69/1/3
f 72/1/3 70/1/3 71/1/3
f 75/2/3 74/2/3 73/2/3
f 76/2/3 74/2/3 75/2/3
f 79/2/3 78/2/3 77/2/3
f 80/2/3 78/2/3 79/2/3
f 83/2/3 82/2/3 81/2/3
f 84/2/3 82/2/3 83/2/3
f 87/3/3 86/3/3 85/3/3
f 88/3/3 86/3/3 87/3/3
f 91/2/3 90/2/3 89/2/3
f 92/2/3 90/2/3 91/2/3
f 95/2/3 94/2/3 93/2/3
f 96/2/3 94/2/3 95/2/3
f 97/2/4 98/2/4 99/2/4
f 99/2/4 98/2/4 100/2/4
f 101/2/4 102/2/4 103/2/4
f 103/2/4 102/2/4 104/2/4
f 105/3/4 106/3/4 107/3/4
f 107/3/4 106/3/4 108/3/4
f 109/2/4 110/2/4 111/2/4
f 111/2/4 110/2/4 112/2/4
f 113/2/4 114/2/4 115/2/4
f 115/2/4 114/2/4 116/2/4
f 117/2/4 118/2/4 119/2/4
f 119/2/4 118/2/4 120/2/4
f 121/1/4 122/1/4 123/1/4
f 123/1/4 122/1/4 124/1/4
f 125/1/4 126/1/4 127/1/4
f 127/1/4 126/1/4 128/1/4
f 131/1/5 130/1/5 129/1/5
f 132/1/5 130/1/5 131/1/5
f 133/1/5 131/1/5 129/1/5
f 133/2/5 132/2/5 131/2/5
f 134/1/5 130/1/5 132/1/5
f 134/2/5 132/2/5 133/2/5
f 135/1/5 133/1/5 129/1/5
f 135/1/5 134/1/5 133/1/5
f 136/1/5 130/1/5 134/1/5
f 136/1/5 134/1/5 135/1/5
f 137/1/6 138/1/6 139/1/6
f 139/1/6 138/1/6 140/1/6
f 139/2/6 140/2/6 141/2/6
f 141/2/6 140/2/6 142/2/6
f 139/2/6 141/2/6 143/2/6
f 142/2/6 140/2/6 144/2/6
f 137/1/6 139/1/6 145/1/6
f 143/2/6 144/2/6 145/2/6
f 139/2/6 143/2/6 145/2/6
f 144/2/6 140/2/6 146/2/6
f 145/2/6 144/2/6 146/2/6
f 140/1/6 138/1/6 146/1/6
f 137/1/6 145/1/6 147/1/6
f 145/1/6 146/1/6 147/1/6
f 146/1/6 138/1/6 148/1/6
f 147/1/6 146/1/6 148/1/6
f 149/1/6 150/1/6 151/1/6
f 151/1/6 150/1/6 152/1/6
f 149/1/6 151/1/6 153/1/6
f 152/1/6 150/1/6 154/1/6
f 149/1/6 153/1/6 155/1/6
f 153/1/6 154/1/6 155/1/6
f 154/1/6 150/1/6 156/1/6
f 155/1/6 154/1/6 156/1/6
f 157/2/6 158/2/6 159/2/6
f 159/2/6 158/2/6 160/2/6
f 159/1/6 160/1/6 161/1/6
f 161/1/6 160/1/6 162/1/6
f 162/1/6 160/1/6 163/1/6
f 163/1/6 160/1/6 164/1/6
f 159/1/6 161/1/6 165/1/6
f 162/1/6 163/1/6 166/1/6
f 166/1/6 163/1/6 167/1/6
f 164/1/6 160/1/6 168/1/6
f 159/1/6 165/1/6 169/1/6
f 165/1/6 166/1/6 169/1/6
f 169/1/6 166/1/6 170/1/6
f 167/1/6 168/1/6 171/1/6
f 168/1/6 160/1/6 172/1/6
f 171/1/6 168/1/6 172/1/6
f 159/1/6 169/1/6 173/1/6
f 170/1/6 171/1/6 174/1/6
f 174/1/6 171/1/6 175/1/6
f 172/1/6 160/1/6 176/1/6
f 157/2/6 159/2/6 177/2/6
f 175/1/6 176/1/6 177/1/6
f 174/1/6 175/1/6 177/1/6
f 159/1/6 173/1/6 177/1/6
f 173/1/6 174/1/6 177/1/6
f 176/1/6 160/1/6 178/1/6
f 177/1/6 176/1/6 178/1/6
f 160/2/6 158/2/6 178/2/6
f 157/2/6 177/2/6 179/2/6
f 177/2/6 178/2/6 179/2/6
f 178/2/6 158/2/6 180/2/6
f 179/2/6 178/2/6 180/2/6
f 181/2/6 182/2/6 185/2/6
f 185/2/6 182/2/6 186/2/6
f 183/2/6 184/2/6 187/2/6
f 187/2/6 184/2/6 188/2/6
f 186/3/6 187/3/6 190/3/6
f 190/3/6 187/3/6 191/3/6
f 189/2/6 190/2/6 193/2/6
f 193/2/6 190/2/6 194/2/6
f 191/2/6 192/2/6 195/2/6
f 195/2/6 192/2/6 196/2/6
