# MagicaVoxel @ Ephtracy

# group
o 

# material
mtllib Snowman.mtl
usemtl palette

# normals
vn -1 0 0
vn 1 0 0
vn 0 0 1
vn 0 0 -1
vn 0 -1 0
vn 0 1 0

# texcoords
vt 0.939453 0.5
vt 0.943359 0.5
vt 0.947266 0.5
vt 0.951172 0.5
vt 0.955078 0.5
vt 0.958984 0.5

# verts
v 1.9 2.1 -2.1
v 1.9 2.1 -2.2
v 1.9 2.1 -2.3
v 1.9 2.1 -2.4
v 1.9 2.2 -2.2
v 1.9 2.2 -2.3
v 1.9 2.3 -2.2
v 1.9 2.3 -2.3
v 1.9 2.4 -2.1
v 1.9 2.4 -2.2
v 1.9 2.4 -2.3
v 1.9 2.4 -2.4
v 1.9 2.6 -2.2
v 1.9 2.6 -2.3
v 1.9 2.7 -2.2
v 1.9 2.7 -2.3
v 1.9 2.8 -2
v 1.9 2.8 -2.5
v 1.9 2.9 -2
v 1.9 2.9 -2.5
v 2 2 -2.1
v 2 2 -2.4
v 2 2.1 -2
v 2 2.1 -2.1
v 2 2.1 -2.2
v 2 2.1 -2.3
v 2 2.1 -2.4
v 2 2.1 -2.5
v 2 2.2 -1.9
v 2 2.2 -2
v 2 2.4 -1.9
v 2 2.4 -2
v 2 2.4 -2.1
v 2 2.4 -2.2
v 2 2.4 -2.3
v 2 2.4 -2.4
v 2 2.4 -2.5
v 2 2.5 -2
v 2 2.5 -2.1
v 2 2.5 -2.4
v 2 2.6 -2.1
v 2 2.6 -2.2
v 2 2.6 -2.3
v 2 2.6 -2.4
v 2 2.7 -2.1
v 2 2.7 -2.2
v 2 2.7 -2.3
v 2 2.7 -2.4
v 2 2.8 -1.9
v 2 2.8 -2
v 2 2.8 -2.1
v 2 2.8 -2.2
v 2 2.8 -2.3
v 2 2.8 -2.4
v 2 2.8 -2.5
v 2 2.8 -2.6
v 2 2.9 -1.9
v 2 2.9 -2
v 2 2.9 -2.1
v 2 2.9 -2.4
v 2 2.9 -2.5
v 2 2.9 -2.6
v 2 3 -2.1
v 2 3 -2.4
v 2 3.2 -2.1
v 2 3.2 -2.4
v 2.1 2 -2
v 2.1 2 -2.1
v 2.1 2 -2.4
v 2.1 2 -2.5
v 2.1 2.1 -1.9
v 2.1 2.1 -2
v 2.1 2.1 -2.1
v 2.1 2.1 -2.4
v 2.1 2.1 -2.5
v 2.1 2.1 -2.6
v 2.1 2.2 -1.9
v 2.1 2.2 -2
v 2.1 2.4 -2.4
v 2.1 2.4 -2.5
v 2.1 2.4 -2.6
v 2.1 2.5 -2
v 2.1 2.5 -2.1
v 2.1 2.5 -2.4
v 2.1 2.5 -2.5
v 2.1 2.6 -2
v 2.1 2.6 -2.1
v 2.1 2.6 -2.4
v 2.1 2.6 -2.5
v 2.1 2.7 -2.1
v 2.1 2.7 -2.4
v 2.1 2.8 -2
v 2.1 2.8 -2.1
v 2.1 2.8 -2.4
v 2.1 2.8 -2.5
v 2.1 2.9 -2
v 2.1 2.9 -2.1
v 2.1 2.9 -2.4
v 2.1 2.9 -2.5
v 2.1 3 -2
v 2.1 3 -2.1
v 2.1 3 -2.4
v 2.1 3 -2.5
v 2.1 3.2 -2
v 2.1 3.2 -2.1
v 2.1 3.2 -2.4
v 2.1 3.2 -2.5
v 2.2 2.3 -1.7
v 2.2 2.3 -1.9
v 2.2 2.3 -2.6
v 2.2 2.3 -2.8
v 2.2 2.4 -1.6
v 2.2 2.4 -1.7
v 2.2 2.4 -1.8
v 2.2 2.4 -1.9
v 2.2 2.4 -2.6
v 2.2 2.4 -2.7
v 2.2 2.4 -2.8
v 2.2 2.4 -3
v 2.2 2.5 -1.5
v 2.2 2.5 -1.6
v 2.2 2.5 -1.7
v 2.2 2.5 -1.8
v 2.2 2.5 -2.8
v 2.2 2.5 -3
v 2.2 2.6 -1.5
v 2.2 2.6 -1.6
v 2.2 2.6 -2.7
v 2.2 2.6 -2.8
v 2.2 2.8 -1.6
v 2.2 2.8 -1.7
v 2.2 2.5 -2
v 2.2 2.5 -2.1
v 2.2 2.6 -2
v 2.2 2.6 -2.1
v 2.3 2.3 -1.7
v 2.3 2.3 -1.9
v 2.3 2.3 -2.6
v 2.3 2.3 -2.8
v 2.3 2.4 -1.6
v 2.3 2.4 -1.7
v 2.3 2.4 -1.8
v 2.3 2.4 -1.9
v 2.3 2.4 -2.6
v 2.3 2.4 -2.7
v 2.3 2.4 -2.8
v 2.3 2.4 -3
v 2.3 2.5 -1.5
v 2.3 2.5 -1.6
v 2.3 2.5 -1.7
v 2.3 2.5 -1.8
v 2.3 2.5 -2.8
v 2.3 2.5 -3
v 2.3 2.6 -1.5
v 2.3 2.6 -1.6
v 2.3 2.6 -2.7
v 2.3 2.6 -2.8
v 2.3 2.8 -1.6
v 2.3 2.8 -1.7
v 2.4 2 -2
v 2.4 2 -2.1
v 2.4 2 -2.4
v 2.4 2 -2.5
v 2.4 2.1 -1.9
v 2.4 2.1 -2
v 2.4 2.1 -2.1
v 2.4 2.1 -2.4
v 2.4 2.1 -2.5
v 2.4 2.1 -2.6
v 2.4 2.4 -1.9
v 2.4 2.4 -2
v 2.4 2.4 -2.1
v 2.4 2.4 -2.4
v 2.4 2.4 -2.5
v 2.4 2.4 -2.6
v 2.4 2.5 -2
v 2.4 2.5 -2.1
v 2.4 2.5 -2.4
v 2.4 2.5 -2.5
v 2.4 2.6 -2
v 2.4 2.6 -2.1
v 2.4 2.6 -2.4
v 2.4 2.6 -2.5
v 2.4 2.8 -2
v 2.4 2.8 -2.1
v 2.4 2.8 -2.4
v 2.4 2.8 -2.5
v 2.4 2.9 -2
v 2.4 2.9 -2.1
v 2.4 2.9 -2.4
v 2.4 2.9 -2.5
v 2.4 3 -2
v 2.4 3 -2.1
v 2.4 3 -2.4
v 2.4 3 -2.5
v 2.4 3.2 -2
v 2.4 3.2 -2.1
v 2.4 3.2 -2.4
v 2.4 3.2 -2.5
v 2.5 2 -2.1
v 2.5 2 -2.4
v 2.5 2.1 -2
v 2.5 2.1 -2.1
v 2.5 2.1 -2.4
v 2.5 2.1 -2.5
v 2.5 2.4 -2
v 2.5 2.4 -2.1
v 2.5 2.4 -2.4
v 2.5 2.4 -2.5
v 2.5 2.5 -2.1
v 2.5 2.5 -2.4
v 2.5 2.6 -2.1
v 2.5 2.6 -2.4
v 2.5 2.8 -1.9
v 2.5 2.8 -2
v 2.5 2.8 -2.1
v 2.5 2.8 -2.4
v 2.5 2.8 -2.5
v 2.5 2.8 -2.6
v 2.5 2.9 -1.9
v 2.5 2.9 -2
v 2.5 2.9 -2.1
v 2.5 2.9 -2.4
v 2.5 2.9 -2.5
v 2.5 2.9 -2.6
v 2.5 3 -2.1
v 2.5 3 -2.4
v 2.5 3.2 -2.1
v 2.5 3.2 -2.4
v 2.6 2.1 -2.1
v 2.6 2.1 -2.4
v 2.6 2.4 -2.1
v 2.6 2.4 -2.4
v 2.6 2.8 -2
v 2.6 2.8 -2.5
v 2.6 2.9 -2
v 2.6 2.9 -2.5
v 2.2 2.5 -1.5
v 2.2 2.6 -1.5
v 2.3 2.5 -1.5
v 2.3 2.6 -1.5
v 2.2 2.4 -1.6
v 2.2 2.5 -1.6
v 2.2 2.6 -1.6
v 2.2 2.8 -1.6
v 2.3 2.4 -1.6
v 2.3 2.5 -1.6
v 2.3 2.6 -1.6
v 2.3 2.8 -1.6
v 2.2 2.3 -1.7
v 2.2 2.4 -1.7
v 2.3 2.3 -1.7
v 2.3 2.4 -1.7
v 2 2.2 -1.9
v 2 2.4 -1.9
v 2 2.8 -1.9
v 2 2.9 -1.9
v 2.1 2.1 -1.9
v 2.1 2.2 -1.9
v 2.1 2.4 -1.9
v 2.2 2.3 -1.9
v 2.2 2.4 -1.9
v 2.3 2.3 -1.9
v 2.3 2.4 -1.9
v 2.4 2.1 -1.9
v 2.4 2.4 -1.9
v 2.5 2.8 -1.9
v 2.5 2.9 -1.9
v 1.9 2.8 -2
v 1.9 2.9 -2
v 2 2.1 -2
v 2 2.2 -2
v 2 2.4 -2
v 2 2.5 -2
v 2 2.8 -2
v 2 2.9 -2
v 2.1 2 -2
v 2.1 2.1 -2
v 2.1 2.2 -2
v 2.1 2.4 -2
v 2.1 2.5 -2
v 2.1 2.6 -2
v 2.1 2.8 -2
v 2.1 2.9 -2
v 2.1 3 -2
v 2.1 3.2 -2
v 2.2 2.5 -2
v 2.2 2.6 -2
v 2.4 2 -2
v 2.4 2.1 -2
v 2.4 2.4 -2
v 2.4 2.5 -2
v 2.4 2.6 -2
v 2.4 2.8 -2
v 2.4 2.9 -2
v 2.4 3 -2
v 2.4 3.2 -2
v 2.5 2.1 -2
v 2.5 2.4 -2
v 2.5 2.8 -2
v 2.5 2.9 -2
v 2.6 2.8 -2
v 2.6 2.9 -2
v 1.9 2.1 -2.1
v 1.9 2.4 -2.1
v 2 2 -2.1
v 2 2.1 -2.1
v 2 2.4 -2.1
v 2 2.6 -2.1
v 2 2.7 -2.1
v 2 2.8 -2.1
v 2 2.9 -2.1
v 2 3 -2.1
v 2 3.2 -2.1
v 2.1 2 -2.1
v 2.1 2.1 -2.1
v 2.1 2.6 -2.1
v 2.1 2.7 -2.1
v 2.1 2.8 -2.1
v 2.1 2.9 -2.1
v 2.1 3 -2.1
v 2.1 3.2 -2.1
v 2.2 2.5 -2.1
v 2.2 2.6 -2.1
v 2.4 2 -2.1
v 2.4 2.1 -2.1
v 2.4 2.4 -2.1
v 2.4 2.5 -2.1
v 2.4 2.6 -2.1
v 2.4 2.8 -2.1
v 2.4 2.9 -2.1
v 2.4 3 -2.1
v 2.4 3.2 -2.1
v 2.5 2 -2.1
v 2.5 2.1 -2.1
v 2.5 2.4 -2.1
v 2.5 2.5 -2.1
v 2.5 2.6 -2.1
v 2.5 2.8 -2.1
v 2.5 2.9 -2.1
v 2.5 3 -2.1
v 2.5 3.2 -2.1
v 2.6 2.1 -2.1
v 2.6 2.4 -2.1
v 1.9 2.6 -2.2
v 1.9 2.7 -2.2
v 2 2.6 -2.2
v 2 2.7 -2.2
v 2.2 2.4 -2.7
v 2.2 2.6 -2.7
v 2.3 2.4 -2.7
v 2.3 2.6 -2.7
v 2.2 2.5 -1.7
v 2.2 2.8 -1.7
v 2.3 2.5 -1.7
v 2.3 2.8 -1.7
v 2.2 2.4 -1.8
v 2.2 2.5 -1.8
v 2.3 2.4 -1.8
v 2.3 2.5 -1.8
v 1.9 2.6 -2.3
v 1.9 2.7 -2.3
v 2 2.6 -2.3
v 2 2.7 -2.3
v 1.9 2.1 -2.4
v 1.9 2.4 -2.4
v 2 2 -2.4
v 2 2.1 -2.4
v 2 2.4 -2.4
v 2 2.5 -2.4
v 2 2.6 -2.4
v 2 2.7 -2.4
v 2 2.8 -2.4
v 2 2.9 -2.4
v 2 3 -2.4
v 2 3.2 -2.4
v 2.1 2 -2.4
v 2.1 2.1 -2.4
v 2.1 2.4 -2.4
v 2.1 2.5 -2.4
v 2.1 2.6 -2.4
v 2.1 2.7 -2.4
v 2.1 2.8 -2.4
v 2.1 2.9 -2.4
v 2.1 3 -2.4
v 2.1 3.2 -2.4
v 2.4 2 -2.4
v 2.4 2.1 -2.4
v 2.4 2.4 -2.4
v 2.4 2.5 -2.4
v 2.4 2.6 -2.4
v 2.4 2.8 -2.4
v 2.4 2.9 -2.4
v 2.4 3 -2.4
v 2.4 3.2 -2.4
v 2.5 2 -2.4
v 2.5 2.1 -2.4
v 2.5 2.4 -2.4
v 2.5 2.5 -2.4
v 2.5 2.6 -2.4
v 2.5 2.8 -2.4
v 2.5 2.9 -2.4
v 2.5 3 -2.4
v 2.5 3.2 -2.4
v 2.6 2.1 -2.4
v 2.6 2.4 -2.4
v 1.9 2.8 -2.5
v 1.9 2.9 -2.5
v 2 2.1 -2.5
v 2 2.4 -2.5
v 2 2.8 -2.5
v 2 2.9 -2.5
v 2.1 2 -2.5
v 2.1 2.1 -2.5
v 2.1 2.4 -2.5
v 2.1 2.5 -2.5
v 2.1 2.6 -2.5
v 2.1 2.8 -2.5
v 2.1 2.9 -2.5
v 2.1 3 -2.5
v 2.1 3.2 -2.5
v 2.4 2 -2.5
v 2.4 2.1 -2.5
v 2.4 2.4 -2.5
v 2.4 2.5 -2.5
v 2.4 2.6 -2.5
v 2.4 2.8 -2.5
v 2.4 2.9 -2.5
v 2.4 3 -2.5
v 2.4 3.2 -2.5
v 2.5 2.1 -2.5
v 2.5 2.4 -2.5
v 2.5 2.8 -2.5
v 2.5 2.9 -2.5
v 2.6 2.8 -2.5
v 2.6 2.9 -2.5
v 2 2.8 -2.6
v 2 2.9 -2.6
v 2.1 2.1 -2.6
v 2.1 2.4 -2.6
v 2.2 2.3 -2.6
v 2.2 2.4 -2.6
v 2.3 2.3 -2.6
v 2.3 2.4 -2.6
v 2.4 2.1 -2.6
v 2.4 2.4 -2.6
v 2.5 2.8 -2.6
v 2.5 2.9 -2.6
v 2.2 2.3 -2.8
v 2.2 2.4 -2.8
v 2.2 2.5 -2.8
v 2.2 2.6 -2.8
v 2.3 2.3 -2.8
v 2.3 2.4 -2.8
v 2.3 2.5 -2.8
v 2.3 2.6 -2.8
v 2.2 2.4 -3
v 2.2 2.5 -3
v 2.3 2.4 -3
v 2.3 2.5 -3
v 2.1 2 -2
v 2.4 2 -2
v 2 2 -2.1
v 2.1 2 -2.1
v 2.4 2 -2.1
v 2.5 2 -2.1
v 2 2 -2.4
v 2.1 2 -2.4
v 2.4 2 -2.4
v 2.5 2 -2.4
v 2.1 2 -2.5
v 2.4 2 -2.5
v 2.1 2.1 -1.9
v 2.4 2.1 -1.9
v 2 2.1 -2
v 2.1 2.1 -2
v 2.4 2.1 -2
v 2.5 2.1 -2
v 1.9 2.1 -2.1
v 2 2.1 -2.1
v 2.1 2.1 -2.1
v 2.4 2.1 -2.1
v 2.5 2.1 -2.1
v 2.6 2.1 -2.1
v 1.9 2.1 -2.2
v 2 2.1 -2.2
v 1.9 2.1 -2.3
v 2 2.1 -2.3
v 1.9 2.1 -2.4
v 2 2.1 -2.4
v 2.1 2.1 -2.4
v 2.4 2.1 -2.4
v 2.5 2.1 -2.4
v 2.6 2.1 -2.4
v 2 2.1 -2.5
v 2.1 2.1 -2.5
v 2.4 2.1 -2.5
v 2.5 2.1 -2.5
v 2.1 2.1 -2.6
v 2.4 2.1 -2.6
v 2 2.2 -1.9
v 2.1 2.2 -1.9
v 2 2.2 -2
v 2.1 2.2 -2
v 2.2 2.3 -1.7
v 2.3 2.3 -1.7
v 2.2 2.3 -1.9
v 2.3 2.3 -1.9
v 2.2 2.3 -2.6
v 2.3 2.3 -2.6
v 2.2 2.3 -2.8
v 2.3 2.3 -2.8
v 2.2 2.4 -1.6
v 2.3 2.4 -1.6
v 2.2 2.4 -1.7
v 2.3 2.4 -1.7
v 2.2 2.4 -2.8
v 2.3 2.4 -2.8
v 2.2 2.4 -3
v 2.3 2.4 -3
v 2.2 2.5 -1.5
v 2.3 2.5 -1.5
v 2.2 2.5 -1.6
v 2.3 2.5 -1.6
v 2.2 2.6 -2
v 2.4 2.6 -2
v 2 2.6 -2.1
v 2.1 2.6 -2.1
v 2.2 2.6 -2.1
v 2.4 2.6 -2.1
v 2.5 2.6 -2.1
v 1.9 2.6 -2.2
v 2 2.6 -2.2
v 1.9 2.6 -2.3
v 2 2.6 -2.3
v 2 2.6 -2.4
v 2.1 2.6 -2.4
v 2.4 2.6 -2.4
v 2.5 2.6 -2.4
v 2.1 2.6 -2.5
v 2.4 2.6 -2.5
v 2 2.8 -1.9
v 2.5 2.8 -1.9
v 1.9 2.8 -2
v 2 2.8 -2
v 2.1 2.8 -2
v 2.4 2.8 -2
v 2.5 2.8 -2
v 2.6 2.8 -2
v 2 2.8 -2.1
v 2.1 2.8 -2.1
v 2.4 2.8 -2.1
v 2.5 2.8 -2.1
v 2 2.8 -2.2
v 2 2.8 -2.3
v 2 2.8 -2.4
v 2.1 2.8 -2.4
v 2.4 2.8 -2.4
v 2.5 2.8 -2.4
v 1.9 2.8 -2.5
v 2 2.8 -2.5
v 2.1 2.8 -2.5
v 2.4 2.8 -2.5
v 2.5 2.8 -2.5
v 2.6 2.8 -2.5
v 2 2.8 -2.6
v 2.5 2.8 -2.6
v 2.2 2.4 -1.8
v 2.3 2.4 -1.8
v 2 2.4 -1.9
v 2.1 2.4 -1.9
v 2.2 2.4 -1.9
v 2.3 2.4 -1.9
v 2.4 2.4 -1.9
v 2 2.4 -2
v 2.1 2.4 -2
v 2.4 2.4 -2
v 2.5 2.4 -2
v 1.9 2.4 -2.1
v 2 2.4 -2.1
v 2.4 2.4 -2.1
v 2.5 2.4 -2.1
v 2.6 2.4 -2.1
v 1.9 2.4 -2.2
v 2 2.4 -2.2
v 1.9 2.4 -2.3
v 2 2.4 -2.3
v 1.9 2.4 -2.4
v 2 2.4 -2.4
v 2.1 2.4 -2.4
v 2.4 2.4 -2.4
v 2.5 2.4 -2.4
v 2.6 2.4 -2.4
v 2 2.4 -2.5
v 2.1 2.4 -2.5
v 2.4 2.4 -2.5
v 2.5 2.4 -2.5
v 2.1 2.4 -2.6
v 2.2 2.4 -2.6
v 2.3 2.4 -2.6
v 2.4 2.4 -2.6
v 2.2 2.4 -2.7
v 2.3 2.4 -2.7
v 2.2 2.5 -1.7
v 2.3 2.5 -1.7
v 2.2 2.5 -1.8
v 2.3 2.5 -1.8
v 2 2.5 -2
v 2.1 2.5 -2
v 2.2 2.5 -2
v 2.4 2.5 -2
v 2 2.5 -2.1
v 2.1 2.5 -2.1
v 2.2 2.5 -2.1
v 2.4 2.5 -2.1
v 2.5 2.5 -2.1
v 2 2.5 -2.4
v 2.1 2.5 -2.4
v 2.4 2.5 -2.4
v 2.5 2.5 -2.4
v 2.1 2.5 -2.5
v 2.4 2.5 -2.5
v 2.2 2.5 -2.8
v 2.3 2.5 -2.8
v 2.2 2.5 -3
v 2.3 2.5 -3
v 2.2 2.6 -1.5
v 2.3 2.6 -1.5
v 2.2 2.6 -1.6
v 2.3 2.6 -1.6
v 2.2 2.6 -2.7
v 2.3 2.6 -2.7
v 2.2 2.6 -2.8
v 2.3 2.6 -2.8
v 1.9 2.7 -2.2
v 2 2.7 -2.2
v 1.9 2.7 -2.3
v 2 2.7 -2.3
v 2.2 2.8 -1.6
v 2.3 2.8 -1.6
v 2.2 2.8 -1.7
v 2.3 2.8 -1.7
v 2 2.9 -1.9
v 2.5 2.9 -1.9
v 1.9 2.9 -2
v 2 2.9 -2
v 2.1 2.9 -2
v 2.4 2.9 -2
v 2.5 2.9 -2
v 2.6 2.9 -2
v 2 2.9 -2.1
v 2.1 2.9 -2.1
v 2.4 2.9 -2.1
v 2.5 2.9 -2.1
v 2 2.9 -2.4
v 2.1 2.9 -2.4
v 2.4 2.9 -2.4
v 2.5 2.9 -2.4
v 1.9 2.9 -2.5
v 2 2.9 -2.5
v 2.1 2.9 -2.5
v 2.4 2.9 -2.5
v 2.5 2.9 -2.5
v 2.6 2.9 -2.5
v 2 2.9 -2.6
v 2.5 2.9 -2.6
v 2.1 3.2 -2
v 2.4 3.2 -2
v 2 3.2 -2.1
v 2.1 3.2 -2.1
v 2.4 3.2 -2.1
v 2.5 3.2 -2.1
v 2 3.2 -2.4
v 2.1 3.2 -2.4
v 2.4 3.2 -2.4
v 2.5 3.2 -2.4
v 2.1 3.2 -2.5
v 2.4 3.2 -2.5

# faces
f 5/1/1 2/1/1 1/1/1
f 5/6/1 3/6/1 2/6/1
f 6/1/1 4/1/1 3/1/1
f 6/6/1 3/6/1 5/6/1
f 7/1/1 5/1/1 1/1/1
f 7/1/1 6/1/1 5/1/1
f 8/1/1 4/1/1 6/1/1
f 8/1/1 6/1/1 7/1/1
f 9/1/1 7/1/1 1/1/1
f 10/6/1 8/6/1 7/6/1
f 10/1/1 7/1/1 9/1/1
f 11/1/1 4/1/1 8/1/1
f 11/6/1 8/6/1 10/6/1
f 12/1/1 4/1/1 11/1/1
f 15/3/1 14/3/1 13/3/1
f 16/3/1 14/3/1 15/3/1
f 19/2/1 18/2/1 17/2/1
f 20/2/1 18/2/1 19/2/1
f 24/1/1 22/1/1 21/1/1
f 25/1/1 22/1/1 24/1/1
f 26/1/1 22/1/1 25/1/1
f 27/1/1 22/1/1 26/1/1
f 30/1/1 24/1/1 23/1/1
f 31/5/1 30/5/1 29/5/1
f 32/1/1 24/1/1 30/1/1
f 32/5/1 30/5/1 31/5/1
f 33/1/1 24/1/1 32/1/1
f 36/1/1 28/1/1 27/1/1
f 37/1/1 28/1/1 36/1/1
f 38/5/1 33/5/1 32/5/1
f 39/1/1 35/1/1 34/1/1
f 39/5/1 33/5/1 38/5/1
f 39/1/1 36/1/1 35/1/1
f 39/1/1 34/1/1 33/1/1
f 40/1/1 36/1/1 39/1/1
f 45/1/1 42/1/1 41/1/1
f 46/1/1 42/1/1 45/1/1
f 47/1/1 44/1/1 43/1/1
f 48/1/1 44/1/1 47/1/1
f 51/2/1 46/2/1 45/2/1
f 52/1/1 47/1/1 46/1/1
f 52/2/1 46/2/1 51/2/1
f 53/2/1 48/2/1 47/2/1
f 53/1/1 47/1/1 52/1/1
f 54/2/1 48/2/1 53/2/1
f 57/2/1 50/2/1 49/2/1
f 58/2/1 50/2/1 57/2/1
f 61/2/1 56/2/1 55/2/1
f 62/2/1 56/2/1 61/2/1
f 63/5/1 60/5/1 59/5/1
f 64/5/1 60/5/1 63/5/1
f 65/2/1 64/2/1 63/2/1
f 66/2/1 64/2/1 65/2/1
f 72/1/1 68/1/1 67/1/1
f 73/1/1 68/1/1 72/1/1
f 74/1/1 70/1/1 69/1/1
f 75/1/1 70/1/1 74/1/1
f 77/1/1 72/1/1 71/1/1
f 78/1/1 72/1/1 77/1/1
f 80/1/1 76/1/1 75/1/1
f 81/1/1 76/1/1 80/1/1
f 84/1/1 80/1/1 79/1/1
f 85/1/1 80/1/1 84/1/1
f 86/5/1 83/5/1 82/5/1
f 86/5/1 84/5/1 83/5/1
f 87/5/1 84/5/1 86/5/1
f 88/5/1 84/5/1 87/5/1
f 90/1/1 87/1/1 86/1/1
f 91/1/1 89/1/1 88/1/1
f 92/1/1 90/1/1 86/1/1
f 93/1/1 90/1/1 92/1/1
f 94/1/1 89/1/1 91/1/1
f 95/1/1 89/1/1 94/1/1
f 100/5/1 97/5/1 96/5/1
f 101/5/1 97/5/1 100/5/1
f 102/5/1 99/5/1 98/5/1
f 103/5/1 99/5/1 102/5/1
f 104/2/1 101/2/1 100/2/1
f 105/2/1 101/2/1 104/2/1
f 106/2/1 103/2/1 102/2/1
f 107/2/1 103/2/1 106/2/1
f 113/4/1 109/4/1 108/4/1
f 114/4/1 109/4/1 113/4/1
f 115/4/1 109/4/1 114/4/1
f 116/4/1 111/4/1 110/4/1
f 117/4/1 111/4/1 116/4/1
f 118/4/1 111/4/1 117/4/1
f 121/4/1 113/4/1 112/4/1
f 121/4/1 114/4/1 113/4/1
f 122/4/1 114/4/1 121/4/1
f 123/4/1 114/4/1 122/4/1
f 124/4/1 119/4/1 118/4/1
f 124/4/1 118/4/1 117/4/1
f 125/4/1 119/4/1 124/4/1
f 126/4/1 122/4/1 121/4/1
f 126/4/1 121/4/1 120/4/1
f 127/4/1 122/4/1 126/4/1
f 128/4/1 124/4/1 117/4/1
f 129/4/1 124/4/1 128/4/1
f 130/4/1 122/4/1 127/4/1
f 131/4/1 122/4/1 130/4/1
f 132/5/2 133/5/2 134/5/2
f 134/5/2 133/5/2 135/5/2
f 136/4/2 137/4/2 141/4/2
f 141/4/2 137/4/2 142/4/2
f 142/4/2 137/4/2 143/4/2
f 138/4/2 139/4/2 144/4/2
f 144/4/2 139/4/2 145/4/2
f 145/4/2 139/4/2 146/4/2
f 140/4/2 141/4/2 149/4/2
f 141/4/2 142/4/2 149/4/2
f 149/4/2 142/4/2 150/4/2
f 150/4/2 142/4/2 151/4/2
f 146/4/2 147/4/2 152/4/2
f 145/4/2 146/4/2 152/4/2
f 152/4/2 147/4/2 153/4/2
f 149/4/2 150/4/2 154/4/2
f 148/4/2 149/4/2 154/4/2
f 154/4/2 150/4/2 155/4/2
f 145/4/2 152/4/2 156/4/2
f 156/4/2 152/4/2 157/4/2
f 155/4/2 150/4/2 158/4/2
f 158/4/2 150/4/2 159/4/2
f 160/1/2 161/1/2 165/1/2
f 165/1/2 161/1/2 166/1/2
f 162/1/2 163/1/2 167/1/2
f 167/1/2 163/1/2 168/1/2
f 164/1/2 165/1/2 170/1/2
f 170/1/2 165/1/2 171/1/2
f 168/1/2 169/1/2 174/1/2
f 174/1/2 169/1/2 175/1/2
f 171/1/2 172/1/2 176/1/2
f 176/1/2 172/1/2 177/1/2
f 173/1/2 174/1/2 178/1/2
f 178/1/2 174/1/2 179/1/2
f 177/5/2 178/5/2 181/5/2
f 181/5/2 178/5/2 182/5/2
f 180/1/2 181/1/2 184/1/2
f 184/1/2 181/1/2 185/1/2
f 182/1/2 183/1/2 186/1/2
f 186/1/2 183/1/2 187/1/2
f 188/5/2 189/5/2 192/5/2
f 192/5/2 189/5/2 193/5/2
f 190/5/2 191/5/2 194/5/2
f 194/5/2 191/5/2 195/5/2
f 192/2/2 193/2/2 196/2/2
f 196/2/2 193/2/2 197/2/2
f 194/2/2 195/2/2 198/2/2
f 198/2/2 195/2/2 199/2/2
f 200/1/2 201/1/2 203/1/2
f 203/1/2 201/1/2 204/1/2
f 202/1/2 203/1/2 206/1/2
f 206/1/2 203/1/2 207/1/2
f 204/1/2 205/1/2 208/1/2
f 208/1/2 205/1/2 209/1/2
f 207/1/2 208/1/2 210/1/2
f 210/1/2 208/1/2 211/1/2
f 212/1/2 213/1/2 216/1/2
f 216/1/2 213/1/2 217/1/2
f 214/2/2 215/2/2 220/2/2
f 220/2/2 215/2/2 221/2/2
f 218/2/2 219/2/2 224/2/2
f 224/2/2 219/2/2 225/2/2
f 222/5/2 223/5/2 226/5/2
f 226/5/2 223/5/2 227/5/2
f 226/2/2 227/2/2 228/2/2
f 228/2/2 227/2/2 229/2/2
f 230/1/2 231/1/2 232/1/2
f 232/1/2 231/1/2 233/1/2
f 234/2/2 235/2/2 236/2/2
f 236/2/2 235/2/2 237/2/2
f 240/4/3 239/4/3 238/4/3
f 241/4/3 239/4/3 240/4/3
f 246/4/3 243/4/3 242/4/3
f 247/4/3 243/4/3 246/4/3
f 248/4/3 245/4/3 244/4/3
f 249/4/3 245/4/3 248/4/3
f 252/4/3 251/4/3 250/4/3
f 253/4/3 251/4/3 252/4/3
f 259/5/3 255/5/3 254/5/3
f 260/5/3 255/5/3 259/5/3
f 261/1/3 259/1/3 258/1/3
f 261/1/3 260/1/3 259/1/3
f 262/1/3 260/1/3 261/1/3
f 263/1/3 261/1/3 258/1/3
f 265/1/3 263/1/3 258/1/3
f 265/1/3 264/1/3 263/1/3
f 266/1/3 264/1/3 265/1/3
f 267/2/3 257/2/3 256/2/3
f 268/2/3 257/2/3 267/2/3
f 275/2/3 270/2/3 269/2/3
f 276/2/3 270/2/3 275/2/3
f 278/1/3 272/1/3 271/1/3
f 279/1/3 272/1/3 278/1/3
f 280/5/3 274/5/3 273/5/3
f 281/5/3 274/5/3 280/5/3
f 287/1/3 281/1/3 280/1/3
f 287/5/3 282/5/3 281/5/3
f 288/1/3 283/1/3 282/1/3
f 288/5/3 282/5/3 287/5/3
f 289/1/3 278/1/3 277/1/3
f 290/1/3 278/1/3 289/1/3
f 291/1/3 287/1/3 280/1/3
f 292/1/3 287/1/3 291/1/3
f 293/1/3 283/1/3 288/1/3
f 294/1/3 283/1/3 293/1/3
f 295/5/3 285/5/3 284/5/3
f 296/2/3 286/2/3 285/2/3
f 296/5/3 285/5/3 295/5/3
f 297/2/3 286/2/3 296/2/3
f 298/1/3 291/1/3 290/1/3
f 299/1/3 291/1/3 298/1/3
f 302/2/3 301/2/3 300/2/3
f 303/2/3 301/2/3 302/2/3
f 307/1/3 305/1/3 304/1/3
f 308/1/3 305/1/3 307/1/3
f 315/1/3 307/1/3 306/1/3
f 316/1/3 307/1/3 315/1/3
f 317/1/3 310/1/3 309/1/3
f 318/2/3 311/2/3 310/2/3
f 318/1/3 310/1/3 317/1/3
f 319/2/3 311/2/3 318/2/3
f 320/5/3 313/5/3 312/5/3
f 321/2/3 314/2/3 313/2/3
f 321/5/3 313/5/3 320/5/3
f 322/2/3 314/2/3 321/2/3
f 328/5/3 324/5/3 323/5/3
f 329/5/3 324/5/3 328/5/3
f 334/1/3 326/1/3 325/1/3
f 335/1/3 326/1/3 334/1/3
f 336/1/3 328/1/3 327/1/3
f 337/1/3 328/1/3 336/1/3
f 338/1/3 330/1/3 329/1/3
f 339/1/3 330/1/3 338/1/3
f 340/5/3 332/5/3 331/5/3
f 341/2/3 333/2/3 332/2/3
f 341/5/3 332/5/3 340/5/3
f 342/2/3 333/2/3 341/2/3
f 343/1/3 336/1/3 335/1/3
f 344/1/3 336/1/3 343/1/3
f 347/3/3 346/3/3 345/3/3
f 348/3/3 346/3/3 347/3/3
f 351/4/3 350/4/3 349/4/3
f 352/4/3 350/4/3 351/4/3
f 353/4/4 354/4/4 355/4/4
f 355/4/4 354/4/4 356/4/4
f 357/4/4 358/4/4 359/4/4
f 359/4/4 358/4/4 360/4/4
f 361/3/4 362/3/4 363/3/4
f 363/3/4 362/3/4 364/3/4
f 365/1/4 366/1/4 368/1/4
f 368/1/4 366/1/4 369/1/4
f 367/1/4 368/1/4 377/1/4
f 377/1/4 368/1/4 378/1/4
f 369/1/4 370/1/4 379/1/4
f 379/1/4 370/1/4 380/1/4
f 371/1/4 372/1/4 381/1/4
f 372/2/4 373/2/4 382/2/4
f 381/1/4 372/1/4 382/1/4
f 382/2/4 373/2/4 383/2/4
f 374/5/4 375/5/4 384/5/4
f 375/2/4 376/2/4 385/2/4
f 384/5/4 375/5/4 385/5/4
f 385/2/4 376/2/4 386/2/4
f 380/5/4 381/5/4 390/5/4
f 390/5/4 381/5/4 391/5/4
f 387/1/4 388/1/4 396/1/4
f 396/1/4 388/1/4 397/1/4
f 389/1/4 390/1/4 398/1/4
f 398/1/4 390/1/4 399/1/4
f 391/1/4 392/1/4 400/1/4
f 400/1/4 392/1/4 401/1/4
f 393/5/4 394/5/4 402/5/4
f 394/2/4 395/2/4 403/2/4
f 402/5/4 394/5/4 403/5/4
f 403/2/4 395/2/4 404/2/4
f 397/1/4 398/1/4 405/1/4
f 405/1/4 398/1/4 406/1/4
f 407/2/4 408/2/4 411/2/4
f 411/2/4 408/2/4 412/2/4
f 409/1/4 410/1/4 414/1/4
f 414/1/4 410/1/4 415/1/4
f 413/1/4 414/1/4 422/1/4
f 422/1/4 414/1/4 423/1/4
f 415/1/4 416/1/4 424/1/4
f 424/1/4 416/1/4 425/1/4
f 417/1/4 418/1/4 426/1/4
f 426/1/4 418/1/4 427/1/4
f 419/5/4 420/5/4 428/5/4
f 420/2/4 421/2/4 429/2/4
f 428/5/4 420/5/4 429/5/4
f 429/2/4 421/2/4 430/2/4
f 423/1/4 424/1/4 431/1/4
f 431/1/4 424/1/4 432/1/4
f 433/2/4 434/2/4 435/2/4
f 435/2/4 434/2/4 436/2/4
f 439/1/4 440/1/4 441/1/4
f 441/1/4 440/1/4 442/1/4
f 439/1/4 441/1/4 443/1/4
f 439/1/4 443/1/4 445/1/4
f 443/1/4 444/1/4 445/1/4
f 445/1/4 444/1/4 446/1/4
f 437/2/4 438/2/4 447/2/4
f 447/2/4 438/2/4 448/2/4
f 449/4/4 450/4/4 453/4/4
f 453/4/4 450/4/4 454/4/4
f 451/4/4 452/4/4 455/4/4
f 455/4/4 452/4/4 456/4/4
f 457/4/4 458/4/4 459/4/4
f 459/4/4 458/4/4 460/4/4
f 464/1/5 462/1/5 461/1/5
f 465/1/5 462/1/5 464/1/5
f 467/1/5 464/1/5 463/1/5
f 467/1/5 466/1/5 465/1/5
f 467/1/5 465/1/5 464/1/5
f 468/1/5 466/1/5 467/1/5
f 469/1/5 466/1/5 468/1/5
f 470/1/5 466/1/5 469/1/5
f 471/1/5 469/1/5 468/1/5
f 472/1/5 469/1/5 471/1/5
f 476/1/5 474/1/5 473/1/5
f 477/1/5 474/1/5 476/1/5
f 480/1/5 476/1/5 475/1/5
f 481/1/5 476/1/5 480/1/5
f 482/1/5 478/1/5 477/1/5
f 483/1/5 478/1/5 482/1/5
f 485/1/5 480/1/5 479/1/5
f 486/1/5 480/1/5 485/1/5
f 487/6/5 486/6/5 485/6/5
f 488/6/5 486/6/5 487/6/5
f 489/1/5 488/1/5 487/1/5
f 490/1/5 488/1/5 489/1/5
f 493/1/5 484/1/5 483/1/5
f 494/1/5 484/1/5 493/1/5
f 495/1/5 491/1/5 490/1/5
f 496/1/5 491/1/5 495/1/5
f 497/1/5 493/1/5 492/1/5
f 498/1/5 493/1/5 497/1/5
f 499/1/5 497/1/5 496/1/5
f 500/1/5 497/1/5 499/1/5
f 503/5/5 502/5/5 501/5/5
f 504/5/5 502/5/5 503/5/5
f 507/4/5 506/4/5 505/4/5
f 508/4/5 506/4/5 507/4/5
f 511/4/5 510/4/5 509/4/5
f 512/4/5 510/4/5 511/4/5
f 515/4/5 514/4/5 513/4/5
f 516/4/5 514/4/5 515/4/5
f 519/4/5 518/4/5 517/4/5
f 520/4/5 518/4/5 519/4/5
f 523/4/5 522/4/5 521/4/5
f 524/4/5 522/4/5 523/4/5
f 529/1/5 526/1/5 525/1/5
f 530/1/5 526/1/5 529/1/5
f 533/1/5 528/1/5 527/1/5
f 534/3/5 533/3/5 532/3/5
f 535/1/5 528/1/5 533/1/5
f 535/3/5 533/3/5 534/3/5
f 536/1/5 528/1/5 535/1/5
f 537/1/5 528/1/5 536/1/5
f 538/1/5 531/1/5 530/1/5
f 539/1/5 531/1/5 538/1/5
f 540/1/5 538/1/5 537/1/5
f 541/1/5 538/1/5 540/1/5
f 545/2/5 543/2/5 542/2/5
f 546/2/5 543/2/5 545/2/5
f 547/2/5 543/2/5 546/2/5
f 548/2/5 543/2/5 547/2/5
f 550/2/5 545/2/5 544/2/5
f 550/2/5 546/2/5 545/2/5
f 551/2/5 546/2/5 550/2/5
f 552/2/5 549/2/5 548/2/5
f 552/2/5 548/2/5 547/2/5
f 553/2/5 549/2/5 552/2/5
f 554/2/5 550/2/5 544/2/5
f 555/2/5 554/2/5 544/2/5
f 556/2/5 555/2/5 544/2/5
f 559/2/5 549/2/5 553/2/5
f 560/2/5 557/2/5 556/2/5
f 560/2/5 556/2/5 544/2/5
f 561/2/5 557/2/5 560/2/5
f 562/2/5 557/2/5 561/2/5
f 563/2/5 559/2/5 558/2/5
f 564/2/5 549/2/5 559/2/5
f 564/2/5 559/2/5 563/2/5
f 565/2/5 549/2/5 564/2/5
f 566/2/5 562/2/5 561/2/5
f 566/2/5 563/2/5 562/2/5
f 566/2/5 564/2/5 563/2/5
f 567/2/5 564/2/5 566/2/5
f 568/4/6 569/4/6 572/4/6
f 572/4/6 569/4/6 573/4/6
f 570/5/6 571/5/6 575/5/6
f 573/1/6 574/1/6 576/1/6
f 575/5/6 571/5/6 576/5/6
f 571/1/6 572/1/6 576/1/6
f 572/1/6 573/1/6 576/1/6
f 576/1/6 574/1/6 577/1/6
f 577/1/6 578/1/6 581/1/6
f 581/1/6 578/1/6 582/1/6
f 579/1/6 580/1/6 584/1/6
f 584/1/6 580/1/6 585/1/6
f 584/6/6 585/6/6 586/6/6
f 586/6/6 585/6/6 587/6/6
f 586/1/6 587/1/6 588/1/6
f 588/1/6 587/1/6 589/1/6
f 582/1/6 583/1/6 592/1/6
f 592/1/6 583/1/6 593/1/6
f 589/1/6 590/1/6 594/1/6
f 594/1/6 590/1/6 595/1/6
f 591/1/6 592/1/6 596/1/6
f 596/1/6 592/1/6 597/1/6
f 595/1/6 596/1/6 598/1/6
f 598/1/6 596/1/6 599/1/6
f 599/1/6 596/1/6 600/1/6
f 600/1/6 596/1/6 601/1/6
f 599/4/6 600/4/6 602/4/6
f 602/4/6 600/4/6 603/4/6
f 604/4/6 605/4/6 606/4/6
f 606/4/6 605/4/6 607/4/6
f 608/5/6 609/5/6 612/5/6
f 612/5/6 609/5/6 613/5/6
f 610/1/6 611/1/6 614/1/6
f 614/1/6 611/1/6 615/1/6
f 612/1/6 613/1/6 617/1/6
f 617/1/6 613/1/6 618/1/6
f 615/1/6 616/1/6 619/1/6
f 619/1/6 616/1/6 620/1/6
f 618/1/6 619/1/6 621/1/6
f 621/1/6 619/1/6 622/1/6
f 623/4/6 624/4/6 625/4/6
f 625/4/6 624/4/6 626/4/6
f 627/4/6 628/4/6 629/4/6
f 629/4/6 628/4/6 630/4/6
f 631/4/6 632/4/6 633/4/6
f 633/4/6 632/4/6 634/4/6
f 635/3/6 636/3/6 637/3/6
f 637/3/6 636/3/6 638/3/6
f 639/4/6 640/4/6 641/4/6
f 641/4/6 640/4/6 642/4/6
f 643/2/6 644/2/6 646/2/6
f 646/2/6 644/2/6 647/2/6
f 647/2/6 644/2/6 648/2/6
f 648/2/6 644/2/6 649/2/6
f 645/2/6 646/2/6 651/2/6
f 646/2/6 647/2/6 651/2/6
f 651/2/6 647/2/6 652/2/6
f 649/2/6 650/2/6 653/2/6
f 648/2/6 649/2/6 653/2/6
f 653/2/6 650/2/6 654/2/6
f 645/2/6 651/2/6 655/2/6
f 654/2/6 650/2/6 658/2/6
f 655/2/6 656/2/6 659/2/6
f 645/2/6 655/2/6 659/2/6
f 659/2/6 656/2/6 660/2/6
f 660/2/6 656/2/6 661/2/6
f 657/2/6 658/2/6 662/2/6
f 658/2/6 650/2/6 663/2/6
f 662/2/6 658/2/6 663/2/6
f 663/2/6 650/2/6 664/2/6
f 660/2/6 661/2/6 665/2/6
f 661/2/6 662/2/6 665/2/6
f 662/2/6 663/2/6 665/2/6
f 665/2/6 663/2/6 666/2/6
f 667/2/6 668/2/6 670/2/6
f 670/2/6 668/2/6 671/2/6
f 669/2/6 670/2/6 673/2/6
f 671/2/6 672/2/6 673/2/6
f 670/2/6 671/2/6 673/2/6
f 673/2/6 672/2/6 674/2/6
f 674/2/6 672/2/6 675/2/6
f 675/2/6 672/2/6 676/2/6
f 674/2/6 675/2/6 677/2/6
f 677/2/6 675/2/6 678/2/6
