# MagicaVoxel @ Ephtracy

# group
o 

# material
mtllib Cloud1.mtl
usemtl palette

# normals
vn -1 0 0
vn 1 0 0
vn 0 0 1
vn 0 0 -1
vn 0 -1 0
vn 0 1 0

# texcoords
vt 0.310547 0.5

# verts
v 0 2 -0.4
v 0 2 -1.2
v 0 2.2 -0.4
v 0 2.2 -1.2
v 0.2 2 -0.3
v 0.2 2 -0.4
v 0.2 2.2 -0.4
v 0.2 2.2 -1
v 0.2 2.6 -0.3
v 0.2 2.6 -1
v 0.7 2 0
v 0.7 2 -0.3
v 0.7 2.3 0
v 0.7 2.3 -0.3
v 0.8 2 -1.2
v 0.8 2 -1.3
v 0.8 2.2 -1
v 0.8 2.2 -1.2
v 0.8 2.3 -1
v 0.8 2.3 -1.3
v 1.3 2.3 -0.9
v 1.3 2.3 -1
v 1.3 2.4 -0.3
v 1.3 2.4 -0.9
v 1.3 2.6 -0.3
v 1.3 2.6 -1
v 1.6 2 0
v 1.6 2 -0.3
v 1.6 2.3 0
v 1.6 2.3 -0.3
v 1.9 2 -0.9
v 1.9 2 -1.3
v 1.9 2.3 -0.9
v 1.9 2.3 -1.3
v 2.1 2 -0.3
v 2.1 2 -0.9
v 2.1 2.4 -0.3
v 2.1 2.4 -0.9
v 0.7 2 0
v 0.7 2.3 0
v 1.6 2 0
v 1.6 2.3 0
v 0.2 2 -0.3
v 0.2 2.6 -0.3
v 0.7 2 -0.3
v 0.7 2.3 -0.3
v 1.3 2.4 -0.3
v 1.3 2.6 -0.3
v 1.6 2 -0.3
v 1.6 2.3 -0.3
v 2.1 2 -0.3
v 2.1 2.4 -0.3
v 0 2 -0.4
v 0 2.2 -0.4
v 0.2 2 -0.4
v 0.2 2.2 -0.4
v 1.3 2.3 -0.9
v 1.3 2.4 -0.9
v 1.9 2 -0.9
v 1.9 2.3 -0.9
v 2.1 2 -0.9
v 2.1 2.4 -0.9
v 0.2 2.2 -1
v 0.2 2.6 -1
v 0.8 2.2 -1
v 0.8 2.3 -1
v 1.3 2.3 -1
v 1.3 2.6 -1
v 0 2 -1.2
v 0 2.2 -1.2
v 0.8 2 -1.2
v 0.8 2.2 -1.2
v 0.8 2 -1.3
v 0.8 2.3 -1.3
v 1.9 2 -1.3
v 1.9 2.3 -1.3
v 0.7 2 0
v 1.6 2 0
v 0.2 2 -0.3
v 0.7 2 -0.3
v 1.6 2 -0.3
v 2.1 2 -0.3
v 0 2 -0.4
v 0.2 2 -0.4
v 1.9 2 -0.9
v 2.1 2 -0.9
v 0 2 -1.2
v 0.8 2 -1.2
v 0.8 2 -1.3
v 1.9 2 -1.3
v 0 2.2 -0.4
v 0.2 2.2 -0.4
v 0.2 2.2 -1
v 0.8 2.2 -1
v 0 2.2 -1.2
v 0.8 2.2 -1.2
v 0.7 2.3 0
v 1.6 2.3 0
v 0.7 2.3 -0.3
v 1.6 2.3 -0.3
v 1.3 2.3 -0.9
v 1.9 2.3 -0.9
v 0.8 2.3 -1
v 1.3 2.3 -1
v 0.8 2.3 -1.3
v 1.9 2.3 -1.3
v 1.3 2.4 -0.3
v 2.1 2.4 -0.3
v 1.3 2.4 -0.9
v 2.1 2.4 -0.9
v 0.2 2.6 -0.3
v 1.3 2.6 -0.3
v 0.2 2.6 -1
v 1.3 2.6 -1

# faces
f 3/1/1 2/1/1 1/1/1
f 4/1/1 2/1/1 3/1/1
f 7/1/1 6/1/1 5/1/1
f 9/1/1 7/1/1 5/1/1
f 9/1/1 8/1/1 7/1/1
f 10/1/1 8/1/1 9/1/1
f 13/1/1 12/1/1 11/1/1
f 14/1/1 12/1/1 13/1/1
f 18/1/1 16/1/1 15/1/1
f 19/1/1 18/1/1 17/1/1
f 20/1/1 16/1/1 18/1/1
f 20/1/1 18/1/1 19/1/1
f 21/1/2 22/1/2 24/1/2
f 23/1/2 24/1/2 25/1/2
f 24/1/2 22/1/2 26/1/2
f 25/1/2 24/1/2 26/1/2
f 27/1/2 28/1/2 29/1/2
f 29/1/2 28/1/2 30/1/2
f 31/1/2 32/1/2 33/1/2
f 33/1/2 32/1/2 34/1/2
f 35/1/2 36/1/2 37/1/2
f 37/1/2 36/1/2 38/1/2
f 41/1/3 40/1/3 39/1/3
f 42/1/3 40/1/3 41/1/3
f 45/1/3 44/1/3 43/1/3
f 46/1/3 44/1/3 45/1/3
f 47/1/3 44/1/3 46/1/3
f 48/1/3 44/1/3 47/1/3
f 50/1/3 47/1/3 46/1/3
f 51/1/3 50/1/3 49/1/3
f 52/1/3 47/1/3 50/1/3
f 52/1/3 50/1/3 51/1/3
f 55/1/3 54/1/3 53/1/3
f 56/1/3 54/1/3 55/1/3
f 57/1/4 58/1/4 60/1/4
f 59/1/4 60/1/4 61/1/4
f 60/1/4 58/1/4 62/1/4
f 61/1/4 60/1/4 62/1/4
f 63/1/4 64/1/4 65/1/4
f 65/1/4 64/1/4 66/1/4
f 66/1/4 64/1/4 67/1/4
f 67/1/4 64/1/4 68/1/4
f 69/1/4 70/1/4 71/1/4
f 71/1/4 70/1/4 72/1/4
f 73/1/4 74/1/4 75/1/4
f 75/1/4 74/1/4 76/1/4
f 80/1/5 78/1/5 77/1/5
f 81/1/5 78/1/5 80/1/5
f 84/1/5 80/1/5 79/1/5
f 84/1/5 82/1/5 81/1/5
f 84/1/5 81/1/5 80/1/5
f 85/1/5 82/1/5 84/1/5
f 85/1/5 84/1/5 83/1/5
f 86/1/5 82/1/5 85/1/5
f 87/1/5 85/1/5 83/1/5
f 88/1/5 85/1/5 87/1/5
f 89/1/5 85/1/5 88/1/5
f 90/1/5 85/1/5 89/1/5
f 91/1/6 92/1/6 93/1/6
f 91/1/6 93/1/6 95/1/6
f 93/1/6 94/1/6 95/1/6
f 95/1/6 94/1/6 96/1/6
f 97/1/6 98/1/6 99/1/6
f 99/1/6 98/1/6 100/1/6
f 101/1/6 102/1/6 104/1/6
f 103/1/6 104/1/6 105/1/6
f 104/1/6 102/1/6 106/1/6
f 105/1/6 104/1/6 106/1/6
f 107/1/6 108/1/6 109/1/6
f 109/1/6 108/1/6 110/1/6
f 111/1/6 112/1/6 113/1/6
f 113/1/6 112/1/6 114/1/6
