# MagicaVoxel @ Ephtracy

# group
o 

# material
mtllib Pumpkin2.mtl
usemtl palette

# normals
vn -1 0 0
vn 1 0 0
vn 0 0 1
vn 0 0 -1
vn 0 -1 0
vn 0 1 0

# texcoords
vt 0.876953 0.5
vt 0.939453 0.5
vt 0.947266 0.5
vt 0.951172 0.5

# verts
v 0.4 2.1 -0.4
v 0.4 2.1 -0.5
v 0.4 2.1 -0.6
v 0.4 2.1 -0.7
v 0.4 2.1 -0.8
v 0.4 2.1 -0.9
v 0.4 2.1 -1
v 0.4 2.1 -1.1
v 0.4 2.8 -0.4
v 0.4 2.8 -0.5
v 0.4 2.8 -0.6
v 0.4 2.8 -0.7
v 0.4 2.8 -0.8
v 0.4 2.8 -0.9
v 0.4 2.8 -1
v 0.4 2.8 -1.1
v 0.5 2 -0.4
v 0.5 2 -0.5
v 0.5 2 -0.6
v 0.5 2 -0.7
v 0.5 2 -0.8
v 0.5 2 -0.9
v 0.5 2 -1
v 0.5 2 -1.1
v 0.5 2.1 -0.3
v 0.5 2.1 -0.4
v 0.5 2.1 -0.5
v 0.5 2.1 -0.6
v 0.5 2.1 -0.7
v 0.5 2.1 -0.8
v 0.5 2.1 -0.9
v 0.5 2.1 -1
v 0.5 2.1 -1.1
v 0.5 2.1 -1.2
v 0.5 2.8 -0.3
v 0.5 2.8 -0.4
v 0.5 2.8 -0.5
v 0.5 2.8 -0.6
v 0.5 2.8 -0.7
v 0.5 2.8 -0.8
v 0.5 2.8 -0.9
v 0.5 2.8 -1
v 0.5 2.8 -1.1
v 0.5 2.8 -1.2
v 0.5 2.9 -0.4
v 0.5 2.9 -0.5
v 0.5 2.9 -0.6
v 0.5 2.9 -0.7
v 0.5 2.9 -0.8
v 0.5 2.9 -0.9
v 0.5 2.9 -1
v 0.5 2.9 -1.1
v 0.6 3.1 -0.7
v 0.6 3.1 -0.8
v 0.6 3.2 -0.7
v 0.6 3.2 -0.8
v 0.7 3 -0.7
v 0.7 3 -0.8
v 0.7 3.1 -0.7
v 0.7 3.1 -0.8
v 0.8 2.9 -0.7
v 0.8 2.9 -0.8
v 0.8 3 -0.7
v 0.8 3 -0.8
v 0.8 3.1 -0.7
v 0.8 3.1 -0.8
v 0.8 3.3 -0.7
v 0.8 3.3 -0.8
v 0.9 3.1 -0.8
v 0.9 3.1 -0.9
v 0.9 3.3 -0.8
v 0.9 3.4 -0.8
v 0.9 3.4 -0.9
v 0.7 3.1 -0.7
v 0.7 3.1 -0.8
v 0.7 3.2 -0.7
v 0.7 3.2 -0.8
v 0.9 2.9 -0.7
v 0.9 2.9 -0.8
v 0.9 3.1 -0.7
v 0.9 3.1 -0.8
v 0.9 3.2 -0.7
v 0.9 3.2 -0.8
v 0.9 3.3 -0.7
v 0.9 3.3 -0.8
v 1 3.1 -0.7
v 1 3.1 -0.9
v 1 3.2 -0.7
v 1 3.2 -0.8
v 1 3.4 -0.8
v 1 3.4 -0.9
v 1.2 2 -0.4
v 1.2 2 -0.5
v 1.2 2 -0.6
v 1.2 2 -0.7
v 1.2 2 -0.8
v 1.2 2 -0.9
v 1.2 2 -1
v 1.2 2 -1.1
v 1.2 2.1 -0.3
v 1.2 2.1 -0.4
v 1.2 2.1 -0.5
v 1.2 2.1 -0.6
v 1.2 2.1 -0.7
v 1.2 2.1 -0.8
v 1.2 2.1 -0.9
v 1.2 2.1 -1
v 1.2 2.1 -1.1
v 1.2 2.1 -1.2
v 1.2 2.8 -0.3
v 1.2 2.8 -0.4
v 1.2 2.8 -0.5
v 1.2 2.8 -0.6
v 1.2 2.8 -0.7
v 1.2 2.8 -0.8
v 1.2 2.8 -0.9
v 1.2 2.8 -1
v 1.2 2.8 -1.1
v 1.2 2.8 -1.2
v 1.2 2.9 -0.4
v 1.2 2.9 -0.5
v 1.2 2.9 -0.6
v 1.2 2.9 -0.7
v 1.2 2.9 -0.8
v 1.2 2.9 -0.9
v 1.2 2.9 -1
v 1.2 2.9 -1.1
v 1.3 2.1 -0.4
v 1.3 2.1 -0.5
v 1.3 2.1 -0.6
v 1.3 2.1 -0.7
v 1.3 2.1 -0.8
v 1.3 2.1 -0.9
v 1.3 2.1 -1
v 1.3 2.1 -1.1
v 1.3 2.8 -0.4
v 1.3 2.8 -0.5
v 1.3 2.8 -0.6
v 1.3 2.8 -0.7
v 1.3 2.8 -0.8
v 1.3 2.8 -0.9
v 1.3 2.8 -1
v 1.3 2.8 -1.1
v 0.5 2.1 -0.3
v 0.5 2.8 -0.3
v 0.6 2.1 -0.3
v 0.6 2.8 -0.3
v 0.7 2.1 -0.3
v 0.7 2.8 -0.3
v 0.8 2.1 -0.3
v 0.8 2.8 -0.3
v 0.9 2.1 -0.3
v 0.9 2.8 -0.3
v 1 2.1 -0.3
v 1 2.8 -0.3
v 1.1 2.1 -0.3
v 1.1 2.8 -0.3
v 1.2 2.1 -0.3
v 1.2 2.8 -0.3
v 0.4 2.1 -0.4
v 0.4 2.8 -0.4
v 0.5 2 -0.4
v 0.5 2.1 -0.4
v 0.5 2.8 -0.4
v 0.5 2.9 -0.4
v 0.6 2 -0.4
v 0.6 2.1 -0.4
v 0.6 2.8 -0.4
v 0.6 2.9 -0.4
v 0.7 2 -0.4
v 0.7 2.1 -0.4
v 0.7 2.8 -0.4
v 0.7 2.9 -0.4
v 0.8 2 -0.4
v 0.8 2.1 -0.4
v 0.8 2.8 -0.4
v 0.8 2.9 -0.4
v 0.9 2 -0.4
v 0.9 2.1 -0.4
v 0.9 2.8 -0.4
v 0.9 2.9 -0.4
v 1 2 -0.4
v 1 2.1 -0.4
v 1 2.8 -0.4
v 1 2.9 -0.4
v 1.1 2 -0.4
v 1.1 2.1 -0.4
v 1.1 2.8 -0.4
v 1.1 2.9 -0.4
v 1.2 2 -0.4
v 1.2 2.1 -0.4
v 1.2 2.8 -0.4
v 1.2 2.9 -0.4
v 1.3 2.1 -0.4
v 1.3 2.8 -0.4
v 0.6 3.1 -0.7
v 0.6 3.2 -0.7
v 0.7 3 -0.7
v 0.7 3.1 -0.7
v 0.7 3.2 -0.7
v 0.8 2.9 -0.7
v 0.8 3 -0.7
v 0.8 3.1 -0.7
v 0.8 3.3 -0.7
v 0.9 2.9 -0.7
v 0.9 3.1 -0.7
v 0.9 3.2 -0.7
v 0.9 3.3 -0.7
v 1 3.1 -0.7
v 1 3.2 -0.7
v 0.9 3.2 -0.8
v 0.9 3.3 -0.8
v 0.9 3.4 -0.8
v 1 3.2 -0.8
v 1 3.4 -0.8
v 0.6 3.1 -0.8
v 0.6 3.2 -0.8
v 0.7 3 -0.8
v 0.7 3.1 -0.8
v 0.7 3.2 -0.8
v 0.8 2.9 -0.8
v 0.8 3 -0.8
v 0.8 3.1 -0.8
v 0.8 3.3 -0.8
v 0.9 2.9 -0.8
v 0.9 3.1 -0.8
v 0.9 3.3 -0.8
v 0.9 3.1 -0.9
v 0.9 3.4 -0.9
v 1 3.1 -0.9
v 1 3.4 -0.9
v 0.4 2.1 -1.1
v 0.4 2.8 -1.1
v 0.5 2 -1.1
v 0.5 2.1 -1.1
v 0.5 2.8 -1.1
v 0.5 2.9 -1.1
v 0.6 2 -1.1
v 0.6 2.1 -1.1
v 0.6 2.8 -1.1
v 0.6 2.9 -1.1
v 0.7 2 -1.1
v 0.7 2.1 -1.1
v 0.7 2.8 -1.1
v 0.7 2.9 -1.1
v 0.8 2 -1.1
v 0.8 2.1 -1.1
v 0.8 2.8 -1.1
v 0.8 2.9 -1.1
v 0.9 2 -1.1
v 0.9 2.1 -1.1
v 0.9 2.8 -1.1
v 0.9 2.9 -1.1
v 1 2 -1.1
v 1 2.1 -1.1
v 1 2.8 -1.1
v 1 2.9 -1.1
v 1.1 2 -1.1
v 1.1 2.1 -1.1
v 1.1 2.8 -1.1
v 1.1 2.9 -1.1
v 1.2 2 -1.1
v 1.2 2.1 -1.1
v 1.2 2.8 -1.1
v 1.2 2.9 -1.1
v 1.3 2.1 -1.1
v 1.3 2.8 -1.1
v 0.5 2.1 -1.2
v 0.5 2.8 -1.2
v 0.6 2.1 -1.2
v 0.6 2.8 -1.2
v 0.7 2.1 -1.2
v 0.7 2.8 -1.2
v 0.8 2.1 -1.2
v 0.8 2.8 -1.2
v 0.9 2.1 -1.2
v 0.9 2.8 -1.2
v 1 2.1 -1.2
v 1 2.8 -1.2
v 1.1 2.1 -1.2
v 1.1 2.8 -1.2
v 1.2 2.1 -1.2
v 1.2 2.8 -1.2
v 0.5 2 -0.4
v 0.6 2 -0.4
v 0.7 2 -0.4
v 0.8 2 -0.4
v 0.9 2 -0.4
v 1 2 -0.4
v 1.1 2 -0.4
v 1.2 2 -0.4
v 0.5 2 -0.5
v 0.6 2 -0.5
v 0.7 2 -0.5
v 0.8 2 -0.5
v 0.9 2 -0.5
v 1 2 -0.5
v 1.1 2 -0.5
v 1.2 2 -0.5
v 0.5 2 -0.6
v 0.6 2 -0.6
v 1.1 2 -0.6
v 1.2 2 -0.6
v 0.5 2 -0.7
v 0.6 2 -0.7
v 1.1 2 -0.7
v 1.2 2 -0.7
v 0.5 2 -0.8
v 0.6 2 -0.8
v 1.1 2 -0.8
v 1.2 2 -0.8
v 0.5 2 -0.9
v 0.6 2 -0.9
v 1.1 2 -0.9
v 1.2 2 -0.9
v 0.5 2 -1
v 0.6 2 -1
v 0.7 2 -1
v 0.8 2 -1
v 0.9 2 -1
v 1 2 -1
v 1.1 2 -1
v 1.2 2 -1
v 0.5 2 -1.1
v 0.6 2 -1.1
v 0.7 2 -1.1
v 0.8 2 -1.1
v 0.9 2 -1.1
v 1 2 -1.1
v 1.1 2 -1.1
v 1.2 2 -1.1
v 0.5 2.1 -0.3
v 0.6 2.1 -0.3
v 0.7 2.1 -0.3
v 0.8 2.1 -0.3
v 0.9 2.1 -0.3
v 1 2.1 -0.3
v 1.1 2.1 -0.3
v 1.2 2.1 -0.3
v 0.4 2.1 -0.4
v 0.5 2.1 -0.4
v 0.6 2.1 -0.4
v 0.7 2.1 -0.4
v 0.8 2.1 -0.4
v 0.9 2.1 -0.4
v 1 2.1 -0.4
v 1.1 2.1 -0.4
v 1.2 2.1 -0.4
v 1.3 2.1 -0.4
v 0.4 2.1 -0.5
v 0.5 2.1 -0.5
v 1.2 2.1 -0.5
v 1.3 2.1 -0.5
v 0.4 2.1 -0.6
v 0.5 2.1 -0.6
v 1.2 2.1 -0.6
v 1.3 2.1 -0.6
v 0.4 2.1 -0.7
v 0.5 2.1 -0.7
v 1.2 2.1 -0.7
v 1.3 2.1 -0.7
v 0.4 2.1 -0.8
v 0.5 2.1 -0.8
v 1.2 2.1 -0.8
v 1.3 2.1 -0.8
v 0.4 2.1 -0.9
v 0.5 2.1 -0.9
v 1.2 2.1 -0.9
v 1.3 2.1 -0.9
v 0.4 2.1 -1
v 0.5 2.1 -1
v 1.2 2.1 -1
v 1.3 2.1 -1
v 0.4 2.1 -1.1
v 0.5 2.1 -1.1
v 0.6 2.1 -1.1
v 0.7 2.1 -1.1
v 0.8 2.1 -1.1
v 0.9 2.1 -1.1
v 1 2.1 -1.1
v 1.1 2.1 -1.1
v 1.2 2.1 -1.1
v 1.3 2.1 -1.1
v 0.5 2.1 -1.2
v 0.6 2.1 -1.2
v 0.7 2.1 -1.2
v 0.8 2.1 -1.2
v 0.9 2.1 -1.2
v 1 2.1 -1.2
v 1.1 2.1 -1.2
v 1.2 2.1 -1.2
v 0.7 3 -0.7
v 0.8 3 -0.7
v 0.7 3 -0.8
v 0.8 3 -0.8
v 0.6 3.1 -0.7
v 0.7 3.1 -0.7
v 0.9 3.1 -0.7
v 1 3.1 -0.7
v 0.6 3.1 -0.8
v 0.7 3.1 -0.8
v 0.9 3.1 -0.8
v 0.9 3.1 -0.9
v 1 3.1 -0.9
v 0.5 2.8 -0.3
v 0.6 2.8 -0.3
v 0.7 2.8 -0.3
v 0.8 2.8 -0.3
v 0.9 2.8 -0.3
v 1 2.8 -0.3
v 1.1 2.8 -0.3
v 1.2 2.8 -0.3
v 0.4 2.8 -0.4
v 0.5 2.8 -0.4
v 0.6 2.8 -0.4
v 0.7 2.8 -0.4
v 0.8 2.8 -0.4
v 0.9 2.8 -0.4
v 1 2.8 -0.4
v 1.1 2.8 -0.4
v 1.2 2.8 -0.4
v 1.3 2.8 -0.4
v 0.4 2.8 -0.5
v 0.5 2.8 -0.5
v 1.2 2.8 -0.5
v 1.3 2.8 -0.5
v 0.4 2.8 -0.6
v 0.5 2.8 -0.6
v 1.2 2.8 -0.6
v 1.3 2.8 -0.6
v 0.4 2.8 -0.7
v 0.5 2.8 -0.7
v 1.2 2.8 -0.7
v 1.3 2.8 -0.7
v 0.4 2.8 -0.8
v 0.5 2.8 -0.8
v 1.2 2.8 -0.8
v 1.3 2.8 -0.8
v 0.4 2.8 -0.9
v 0.5 2.8 -0.9
v 1.2 2.8 -0.9
v 1.3 2.8 -0.9
v 0.4 2.8 -1
v 0.5 2.8 -1
v 1.2 2.8 -1
v 1.3 2.8 -1
v 0.4 2.8 -1.1
v 0.5 2.8 -1.1
v 0.6 2.8 -1.1
v 0.7 2.8 -1.1
v 0.8 2.8 -1.1
v 0.9 2.8 -1.1
v 1 2.8 -1.1
v 1.1 2.8 -1.1
v 1.2 2.8 -1.1
v 1.3 2.8 -1.1
v 0.5 2.8 -1.2
v 0.6 2.8 -1.2
v 0.7 2.8 -1.2
v 0.8 2.8 -1.2
v 0.9 2.8 -1.2
v 1 2.8 -1.2
v 1.1 2.8 -1.2
v 1.2 2.8 -1.2
v 0.5 2.9 -0.4
v 0.6 2.9 -0.4
v 0.7 2.9 -0.4
v 0.8 2.9 -0.4
v 0.9 2.9 -0.4
v 1 2.9 -0.4
v 1.1 2.9 -0.4
v 1.2 2.9 -0.4
v 0.5 2.9 -0.5
v 0.6 2.9 -0.5
v 1.1 2.9 -0.5
v 1.2 2.9 -0.5
v 0.5 2.9 -0.6
v 0.7 2.9 -0.6
v 0.8 2.9 -0.6
v 0.9 2.9 -0.6
v 1 2.9 -0.6
v 1.2 2.9 -0.6
v 0.5 2.9 -0.7
v 0.7 2.9 -0.7
v 0.8 2.9 -0.7
v 0.9 2.9 -0.7
v 1 2.9 -0.7
v 1.2 2.9 -0.7
v 0.5 2.9 -0.8
v 0.7 2.9 -0.8
v 0.8 2.9 -0.8
v 0.9 2.9 -0.8
v 1 2.9 -0.8
v 1.2 2.9 -0.8
v 0.5 2.9 -0.9
v 0.7 2.9 -0.9
v 0.8 2.9 -0.9
v 0.9 2.9 -0.9
v 1 2.9 -0.9
v 1.2 2.9 -0.9
v 0.5 2.9 -1
v 0.6 2.9 -1
v 1.1 2.9 -1
v 1.2 2.9 -1
v 0.5 2.9 -1.1
v 0.6 2.9 -1.1
v 0.7 2.9 -1.1
v 0.8 2.9 -1.1
v 0.9 2.9 -1.1
v 1 2.9 -1.1
v 1.1 2.9 -1.1
v 1.2 2.9 -1.1
v 0.7 3.1 -0.7
v 0.8 3.1 -0.7
v 0.7 3.1 -0.8
v 0.8 3.1 -0.8
v 0.6 3.2 -0.7
v 0.7 3.2 -0.7
v 0.9 3.2 -0.7
v 1 3.2 -0.7
v 0.6 3.2 -0.8
v 0.7 3.2 -0.8
v 0.9 3.2 -0.8
v 1 3.2 -0.8
v 0.8 3.3 -0.7
v 0.9 3.3 -0.7
v 0.8 3.3 -0.8
v 0.9 3.3 -0.8
v 0.9 3.4 -0.8
v 1 3.4 -0.8
v 0.9 3.4 -0.9
v 1 3.4 -0.9

# faces
f 9/2/1 2/2/1 1/2/1
f 10/3/1 3/3/1 2/3/1
f 10/2/1 2/2/1 9/2/1
f 11/2/1 4/2/1 3/2/1
f 11/3/1 3/3/1 10/3/1
f 12/3/1 5/3/1 4/3/1
f 12/2/1 4/2/1 11/2/1
f 13/2/1 6/2/1 5/2/1
f 13/3/1 5/3/1 12/3/1
f 14/3/1 7/3/1 6/3/1
f 14/2/1 6/2/1 13/2/1
f 15/2/1 8/2/1 7/2/1
f 15/3/1 7/3/1 14/3/1
f 16/2/1 8/2/1 15/2/1
f 26/2/1 18/2/1 17/2/1
f 27/3/1 19/3/1 18/3/1
f 27/2/1 18/2/1 26/2/1
f 28/2/1 20/2/1 19/2/1
f 28/3/1 19/3/1 27/3/1
f 29/3/1 21/3/1 20/3/1
f 29/2/1 20/2/1 28/2/1
f 30/2/1 22/2/1 21/2/1
f 30/3/1 21/3/1 29/3/1
f 31/3/1 23/3/1 22/3/1
f 31/2/1 22/2/1 30/2/1
f 32/2/1 24/2/1 23/2/1
f 32/3/1 23/3/1 31/3/1
f 33/2/1 24/2/1 32/2/1
f 35/2/1 26/2/1 25/2/1
f 36/2/1 26/2/1 35/2/1
f 43/2/1 34/2/1 33/2/1
f 44/2/1 34/2/1 43/2/1
f 45/2/1 37/2/1 36/2/1
f 46/3/1 38/3/1 37/3/1
f 46/2/1 37/2/1 45/2/1
f 47/2/1 39/2/1 38/2/1
f 47/3/1 38/3/1 46/3/1
f 48/3/1 40/3/1 39/3/1
f 48/2/1 39/2/1 47/2/1
f 49/2/1 41/2/1 40/2/1
f 49/3/1 40/3/1 48/3/1
f 50/3/1 42/3/1 41/3/1
f 50/2/1 41/2/1 49/2/1
f 51/2/1 43/2/1 42/2/1
f 51/3/1 42/3/1 50/3/1
f 52/2/1 43/2/1 51/2/1
f 55/1/1 54/1/1 53/1/1
f 56/1/1 54/1/1 55/1/1
f 59/1/1 58/1/1 57/1/1
f 60/1/1 58/1/1 59/1/1
f 63/1/1 62/1/1 61/1/1
f 64/1/1 62/1/1 63/1/1
f 67/1/1 66/1/1 65/1/1
f 68/1/1 66/1/1 67/1/1
f 71/1/1 70/1/1 69/1/1
f 72/1/1 70/1/1 71/1/1
f 73/1/1 70/1/1 72/1/1
f 74/1/2 75/1/2 76/1/2
f 76/1/2 75/1/2 77/1/2
f 78/1/2 79/1/2 80/1/2
f 80/1/2 79/1/2 81/1/2
f 82/1/2 83/1/2 84/1/2
f 84/1/2 83/1/2 85/1/2
f 86/1/2 87/1/2 88/1/2
f 88/1/2 87/1/2 89/1/2
f 89/1/2 87/1/2 90/1/2
f 90/1/2 87/1/2 91/1/2
f 92/2/2 93/2/2 101/2/2
f 93/3/2 94/3/2 102/3/2
f 101/2/2 93/2/2 102/2/2
f 94/2/2 95/2/2 103/2/2
f 102/3/2 94/3/2 103/3/2
f 95/3/2 96/3/2 104/3/2
f 103/2/2 95/2/2 104/2/2
f 96/2/2 97/2/2 105/2/2
f 104/3/2 96/3/2 105/3/2
f 97/3/2 98/3/2 106/3/2
f 105/2/2 97/2/2 106/2/2
f 98/2/2 99/2/2 107/2/2
f 106/3/2 98/3/2 107/3/2
f 107/2/2 99/2/2 108/2/2
f 100/2/2 101/2/2 110/2/2
f 110/2/2 101/2/2 111/2/2
f 108/2/2 109/2/2 118/2/2
f 118/2/2 109/2/2 119/2/2
f 111/2/2 112/2/2 120/2/2
f 112/3/2 113/3/2 121/3/2
f 120/2/2 112/2/2 121/2/2
f 113/2/2 114/2/2 122/2/2
f 121/3/2 113/3/2 122/3/2
f 114/3/2 115/3/2 123/3/2
f 122/2/2 114/2/2 123/2/2
f 115/2/2 116/2/2 124/2/2
f 123/3/2 115/3/2 124/3/2
f 116/3/2 117/3/2 125/3/2
f 124/2/2 116/2/2 125/2/2
f 117/2/2 118/2/2 126/2/2
f 125/3/2 117/3/2 126/3/2
f 126/2/2 118/2/2 127/2/2
f 128/2/2 129/2/2 136/2/2
f 129/4/2 130/4/2 137/4/2
f 136/2/2 129/2/2 137/2/2
f 130/2/2 131/2/2 138/2/2
f 137/4/2 130/4/2 138/4/2
f 131/4/2 132/4/2 139/4/2
f 138/2/2 131/2/2 139/2/2
f 132/2/2 133/2/2 140/2/2
f 139/4/2 132/4/2 140/4/2
f 133/4/2 134/4/2 141/4/2
f 140/2/2 133/2/2 141/2/2
f 134/2/2 135/2/2 142/2/2
f 141/4/2 134/4/2 142/4/2
f 142/2/2 135/2/2 143/2/2
f 146/2/3 145/2/3 144/2/3
f 147/2/3 145/2/3 146/2/3
f 148/3/3 147/3/3 146/3/3
f 149/3/3 147/3/3 148/3/3
f 150/2/3 149/2/3 148/2/3
f 151/2/3 149/2/3 150/2/3
f 152/3/3 151/3/3 150/3/3
f 153/3/3 151/3/3 152/3/3
f 154/2/3 153/2/3 152/2/3
f 155/2/3 153/2/3 154/2/3
f 156/3/3 155/3/3 154/3/3
f 157/3/3 155/3/3 156/3/3
f 158/2/3 157/2/3 156/2/3
f 159/2/3 157/2/3 158/2/3
f 163/2/3 161/2/3 160/2/3
f 164/2/3 161/2/3 163/2/3
f 166/2/3 163/2/3 162/2/3
f 167/2/3 163/2/3 166/2/3
f 168/2/3 165/2/3 164/2/3
f 169/2/3 165/2/3 168/2/3
f 170/3/3 167/3/3 166/3/3
f 171/3/3 167/3/3 170/3/3
f 172/3/3 169/3/3 168/3/3
f 173/3/3 169/3/3 172/3/3
f 174/2/3 171/2/3 170/2/3
f 175/2/3 171/2/3 174/2/3
f 176/2/3 173/2/3 172/2/3
f 177/2/3 173/2/3 176/2/3
f 178/3/3 175/3/3 174/3/3
f 179/3/3 175/3/3 178/3/3
f 180/3/3 177/3/3 176/3/3
f 181/3/3 177/3/3 180/3/3
f 182/2/3 179/2/3 178/2/3
f 183/2/3 179/2/3 182/2/3
f 184/2/3 181/2/3 180/2/3
f 185/2/3 181/2/3 184/2/3
f 186/3/3 183/3/3 182/3/3
f 187/3/3 183/3/3 186/3/3
f 188/3/3 185/3/3 184/3/3
f 189/3/3 185/3/3 188/3/3
f 190/2/3 187/2/3 186/2/3
f 191/2/3 187/2/3 190/2/3
f 192/2/3 189/2/3 188/2/3
f 193/2/3 189/2/3 192/2/3
f 194/2/3 192/2/3 191/2/3
f 195/2/3 192/2/3 194/2/3
f 199/1/3 197/1/3 196/1/3
f 200/1/3 197/1/3 199/1/3
f 202/1/3 199/1/3 198/1/3
f 203/1/3 199/1/3 202/1/3
f 205/1/3 203/1/3 202/1/3
f 205/1/3 204/1/3 203/1/3
f 205/1/3 202/1/3 201/1/3
f 206/1/3 204/1/3 205/1/3
f 207/1/3 204/1/3 206/1/3
f 208/1/3 204/1/3 207/1/3
f 209/1/3 207/1/3 206/1/3
f 210/1/3 207/1/3 209/1/3
f 214/1/3 212/1/3 211/1/3
f 214/1/3 213/1/3 212/1/3
f 215/1/3 213/1/3 214/1/3
f 216/1/4 217/1/4 219/1/4
f 219/1/4 217/1/4 220/1/4
f 218/1/4 219/1/4 222/1/4
f 222/1/4 219/1/4 223/1/4
f 222/1/4 223/1/4 225/1/4
f 223/1/4 224/1/4 225/1/4
f 221/1/4 222/1/4 225/1/4
f 225/1/4 224/1/4 226/1/4
f 226/1/4 224/1/4 227/1/4
f 228/1/4 229/1/4 230/1/4
f 230/1/4 229/1/4 231/1/4
f 232/2/4 233/2/4 235/2/4
f 235/2/4 233/2/4 236/2/4
f 234/2/4 235/2/4 238/2/4
f 238/2/4 235/2/4 239/2/4
f 236/2/4 237/2/4 240/2/4
f 240/2/4 237/2/4 241/2/4
f 238/3/4 239/3/4 242/3/4
f 242/3/4 239/3/4 243/3/4
f 240/3/4 241/3/4 244/3/4
f 244/3/4 241/3/4 245/3/4
f 242/2/4 243/2/4 246/2/4
f 246/2/4 243/2/4 247/2/4
f 244/2/4 245/2/4 248/2/4
f 248/2/4 245/2/4 249/2/4
f 246/3/4 247/3/4 250/3/4
f 250/3/4 247/3/4 251/3/4
f 248/3/4 249/3/4 252/3/4
f 252/3/4 249/3/4 253/3/4
f 250/2/4 251/2/4 254/2/4
f 254/2/4 251/2/4 255/2/4
f 252/2/4 253/2/4 256/2/4
f 256/2/4 253/2/4 257/2/4
f 254/3/4 255/3/4 258/3/4
f 258/3/4 255/3/4 259/3/4
f 256/3/4 257/3/4 260/3/4
f 260/3/4 257/3/4 261/3/4
f 258/2/4 259/2/4 262/2/4
f 262/2/4 259/2/4 263/2/4
f 260/2/4 261/2/4 264/2/4
f 264/2/4 261/2/4 265/2/4
f 263/2/4 264/2/4 266/2/4
f 266/2/4 264/2/4 267/2/4
f 268/2/4 269/2/4 270/2/4
f 270/2/4 269/2/4 271/2/4
f 270/3/4 271/3/4 272/3/4
f 272/3/4 271/3/4 273/3/4
f 272/2/4 273/2/4 274/2/4
f 274/2/4 273/2/4 275/2/4
f 274/4/4 275/4/4 276/4/4
f 276/4/4 275/4/4 277/4/4
f 276/2/4 277/2/4 278/2/4
f 278/2/4 277/2/4 279/2/4
f 278/4/4 279/4/4 280/4/4
f 280/4/4 279/4/4 281/4/4
f 280/2/4 281/2/4 282/2/4
f 282/2/4 281/2/4 283/2/4
f 292/2/5 285/2/5 284/2/5
f 293/3/5 286/3/5 285/3/5
f 293/2/5 285/2/5 292/2/5
f 294/2/5 287/2/5 286/2/5
f 294/3/5 286/3/5 293/3/5
f 295/3/5 288/3/5 287/3/5
f 295/2/5 287/2/5 294/2/5
f 296/2/5 289/2/5 288/2/5
f 296/3/5 288/3/5 295/3/5
f 297/3/5 290/3/5 289/3/5
f 297/2/5 289/2/5 296/2/5
f 298/2/5 291/2/5 290/2/5
f 298/3/5 290/3/5 297/3/5
f 299/2/5 291/2/5 298/2/5
f 300/3/5 297/3/5 296/3/5
f 300/3/5 293/3/5 292/3/5
f 300/3/5 299/3/5 298/3/5
f 300/3/5 298/3/5 297/3/5
f 300/3/5 296/3/5 295/3/5
f 300/3/5 295/3/5 294/3/5
f 300/3/5 294/3/5 293/3/5
f 301/3/5 299/3/5 300/3/5
f 302/3/5 299/3/5 301/3/5
f 303/3/5 299/3/5 302/3/5
f 304/2/5 301/2/5 300/2/5
f 305/3/5 302/3/5 301/3/5
f 305/2/5 301/2/5 304/2/5
f 306/2/5 303/2/5 302/2/5
f 306/3/5 302/3/5 305/3/5
f 307/2/5 303/2/5 306/2/5
f 308/3/5 305/3/5 304/3/5
f 308/3/5 306/3/5 305/3/5
f 308/3/5 307/3/5 306/3/5
f 309/3/5 307/3/5 308/3/5
f 310/3/5 307/3/5 309/3/5
f 311/3/5 307/3/5 310/3/5
f 312/2/5 309/2/5 308/2/5
f 313/3/5 310/3/5 309/3/5
f 313/2/5 309/2/5 312/2/5
f 314/2/5 311/2/5 310/2/5
f 314/3/5 310/3/5 313/3/5
f 315/2/5 311/2/5 314/2/5
f 316/3/5 313/3/5 312/3/5
f 316/3/5 314/3/5 313/3/5
f 316/3/5 315/3/5 314/3/5
f 317/3/5 315/3/5 316/3/5
f 318/3/5 315/3/5 317/3/5
f 319/3/5 315/3/5 318/3/5
f 320/3/5 315/3/5 319/3/5
f 321/3/5 315/3/5 320/3/5
f 322/3/5 315/3/5 321/3/5
f 323/3/5 315/3/5 322/3/5
f 324/2/5 317/2/5 316/2/5
f 325/3/5 318/3/5 317/3/5
f 325/2/5 317/2/5 324/2/5
f 326/2/5 319/2/5 318/2/5
f 326/3/5 318/3/5 325/3/5
f 327/3/5 320/3/5 319/3/5
f 327/2/5 319/2/5 326/2/5
f 328/2/5 321/2/5 320/2/5
f 328/3/5 320/3/5 327/3/5
f 329/3/5 322/3/5 321/3/5
f 329/2/5 321/2/5 328/2/5
f 330/2/5 323/2/5 322/2/5
f 330/3/5 322/3/5 329/3/5
f 331/2/5 323/2/5 330/2/5
f 341/2/5 333/2/5 332/2/5
f 342/3/5 334/3/5 333/3/5
f 342/2/5 333/2/5 341/2/5
f 343/2/5 335/2/5 334/2/5
f 343/3/5 334/3/5 342/3/5
f 344/3/5 336/3/5 335/3/5
f 344/2/5 335/2/5 343/2/5
f 345/2/5 337/2/5 336/2/5
f 345/3/5 336/3/5 344/3/5
f 346/3/5 338/3/5 337/3/5
f 346/2/5 337/2/5 345/2/5
f 347/2/5 339/2/5 338/2/5
f 347/3/5 338/3/5 346/3/5
f 348/2/5 339/2/5 347/2/5
f 350/2/5 341/2/5 340/2/5
f 351/2/5 341/2/5 350/2/5
f 352/2/5 349/2/5 348/2/5
f 353/2/5 349/2/5 352/2/5
f 354/3/5 351/3/5 350/3/5
f 355/3/5 351/3/5 354/3/5
f 356/4/5 353/4/5 352/4/5
f 357/4/5 353/4/5 356/4/5
f 358/2/5 355/2/5 354/2/5
f 359/2/5 355/2/5 358/2/5
f 360/2/5 357/2/5 356/2/5
f 361/2/5 357/2/5 360/2/5
f 362/3/5 359/3/5 358/3/5
f 363/3/5 359/3/5 362/3/5
f 364/4/5 361/4/5 360/4/5
f 365/4/5 361/4/5 364/4/5
f 366/2/5 363/2/5 362/2/5
f 367/2/5 363/2/5 366/2/5
f 368/2/5 365/2/5 364/2/5
f 369/2/5 365/2/5 368/2/5
f 370/3/5 367/3/5 366/3/5
f 371/3/5 367/3/5 370/3/5
f 372/4/5 369/4/5 368/4/5
f 373/4/5 369/4/5 372/4/5
f 374/2/5 371/2/5 370/2/5
f 375/2/5 371/2/5 374/2/5
f 382/2/5 373/2/5 372/2/5
f 383/2/5 373/2/5 382/2/5
f 384/2/5 376/2/5 375/2/5
f 385/3/5 377/3/5 376/3/5
f 385/2/5 376/2/5 384/2/5
f 386/2/5 378/2/5 377/2/5
f 386/3/5 377/3/5 385/3/5
f 387/4/5 379/4/5 378/4/5
f 387/2/5 378/2/5 386/2/5
f 388/2/5 380/2/5 379/2/5
f 388/4/5 379/4/5 387/4/5
f 389/4/5 381/4/5 380/4/5
f 389/2/5 380/2/5 388/2/5
f 390/2/5 382/2/5 381/2/5
f 390/4/5 381/4/5 389/4/5
f 391/2/5 382/2/5 390/2/5
f 394/1/5 393/1/5 392/1/5
f 395/1/5 393/1/5 394/1/5
f 400/1/5 397/1/5 396/1/5
f 401/1/5 397/1/5 400/1/5
f 402/1/5 399/1/5 398/1/5
f 403/1/5 399/1/5 402/1/5
f 404/1/5 399/1/5 403/1/5
f 405/2/6 406/2/6 414/2/6
f 406/3/6 407/3/6 415/3/6
f 414/2/6 406/2/6 415/2/6
f 407/2/6 408/2/6 416/2/6
f 415/3/6 407/3/6 416/3/6
f 408/3/6 409/3/6 417/3/6
f 416/2/6 408/2/6 417/2/6
f 409/2/6 410/2/6 418/2/6
f 417/3/6 409/3/6 418/3/6
f 410/3/6 411/3/6 419/3/6
f 418/2/6 410/2/6 419/2/6
f 411/2/6 412/2/6 420/2/6
f 419/3/6 411/3/6 420/3/6
f 420/2/6 412/2/6 421/2/6
f 413/2/6 414/2/6 423/2/6
f 423/2/6 414/2/6 424/2/6
f 421/2/6 422/2/6 425/2/6
f 425/2/6 422/2/6 426/2/6
f 423/3/6 424/3/6 427/3/6
f 427/3/6 424/3/6 428/3/6
f 425/4/6 426/4/6 429/4/6
f 429/4/6 426/4/6 430/4/6
f 427/2/6 428/2/6 431/2/6
f 431/2/6 428/2/6 432/2/6
f 429/2/6 430/2/6 433/2/6
f 433/2/6 430/2/6 434/2/6
f 431/3/6 432/3/6 435/3/6
f 435/3/6 432/3/6 436/3/6
f 433/4/6 434/4/6 437/4/6
f 437/4/6 434/4/6 438/4/6
f 435/2/6 436/2/6 439/2/6
f 439/2/6 436/2/6 440/2/6
f 437/2/6 438/2/6 441/2/6
f 441/2/6 438/2/6 442/2/6
f 439/3/6 440/3/6 443/3/6
f 443/3/6 440/3/6 444/3/6
f 441/4/6 442/4/6 445/4/6
f 445/4/6 442/4/6 446/4/6
f 443/2/6 444/2/6 447/2/6
f 447/2/6 444/2/6 448/2/6
f 445/2/6 446/2/6 455/2/6
f 455/2/6 446/2/6 456/2/6
f 448/2/6 449/2/6 457/2/6
f 449/3/6 450/3/6 458/3/6
f 457/2/6 449/2/6 458/2/6
f 450/2/6 451/2/6 459/2/6
f 458/3/6 450/3/6 459/3/6
f 451/4/6 452/4/6 460/4/6
f 459/2/6 451/2/6 460/2/6
f 452/2/6 453/2/6 461/2/6
f 460/4/6 452/4/6 461/4/6
f 453/4/6 454/4/6 462/4/6
f 461/2/6 453/2/6 462/2/6
f 454/2/6 455/2/6 463/2/6
f 462/4/6 454/4/6 463/4/6
f 463/2/6 455/2/6 464/2/6
f 465/2/6 466/2/6 473/2/6
f 466/3/6 467/3/6 474/3/6
f 473/2/6 466/2/6 474/2/6
f 471/2/6 472/2/6 475/2/6
f 470/3/6 471/3/6 475/3/6
f 475/2/6 472/2/6 476/2/6
f 473/3/6 474/3/6 477/3/6
f 474/3/6 467/3/6 478/3/6
f 477/3/6 474/3/6 478/3/6
f 467/2/6 468/2/6 478/2/6
f 468/3/6 469/3/6 479/3/6
f 478/2/6 468/2/6 479/2/6
f 469/2/6 470/2/6 480/2/6
f 479/3/6 469/3/6 480/3/6
f 475/3/6 476/3/6 481/3/6
f 480/2/6 470/2/6 481/2/6
f 470/3/6 475/3/6 481/3/6
f 481/3/6 476/3/6 482/3/6
f 477/2/6 478/2/6 483/2/6
f 479/3/6 480/3/6 484/3/6
f 483/2/6 478/2/6 484/2/6
f 478/3/6 479/3/6 484/3/6
f 480/3/6 481/3/6 484/3/6
f 484/3/6 481/3/6 485/3/6
f 485/3/6 481/3/6 486/3/6
f 481/2/6 482/2/6 487/2/6
f 486/3/6 481/3/6 487/3/6
f 487/2/6 482/2/6 488/2/6
f 483/3/6 484/3/6 489/3/6
f 484/3/6 485/3/6 489/3/6
f 489/3/6 485/3/6 490/3/6
f 490/3/6 485/3/6 491/3/6
f 487/3/6 488/3/6 492/3/6
f 486/3/6 487/3/6 492/3/6
f 492/3/6 488/3/6 493/3/6
f 493/3/6 488/3/6 494/3/6
f 489/2/6 490/2/6 495/2/6
f 490/3/6 491/3/6 496/3/6
f 495/2/6 490/2/6 496/2/6
f 491/3/6 492/3/6 496/3/6
f 492/3/6 493/3/6 496/3/6
f 496/3/6 493/3/6 497/3/6
f 497/3/6 493/3/6 498/3/6
f 493/2/6 494/2/6 499/2/6
f 498/3/6 493/3/6 499/3/6
f 499/2/6 494/2/6 500/2/6
f 495/3/6 496/3/6 501/3/6
f 501/3/6 496/3/6 502/3/6
f 499/3/6 500/3/6 503/3/6
f 503/3/6 500/3/6 504/3/6
f 501/2/6 502/2/6 505/2/6
f 502/3/6 496/3/6 506/3/6
f 505/2/6 502/2/6 506/2/6
f 496/2/6 497/2/6 507/2/6
f 506/3/6 496/3/6 507/3/6
f 497/3/6 498/3/6 508/3/6
f 507/2/6 497/2/6 508/2/6
f 498/2/6 499/2/6 509/2/6
f 508/3/6 498/3/6 509/3/6
f 499/3/6 503/3/6 510/3/6
f 509/2/6 499/2/6 510/2/6
f 503/2/6 504/2/6 511/2/6
f 510/3/6 503/3/6 511/3/6
f 511/2/6 504/2/6 512/2/6
f 513/1/6 514/1/6 515/1/6
f 515/1/6 514/1/6 516/1/6
f 517/1/6 518/1/6 521/1/6
f 521/1/6 518/1/6 522/1/6
f 519/1/6 520/1/6 523/1/6
f 523/1/6 520/1/6 524/1/6
f 525/1/6 526/1/6 527/1/6
f 527/1/6 526/1/6 528/1/6
f 529/1/6 530/1/6 531/1/6
f 531/1/6 530/1/6 532/1/6
