# MagicaVoxel @ Ephtracy

# group
o 

# material
mtllib Bush1-2.mtl
usemtl palette

# normals
vn -1 0 0
vn 1 0 0
vn 0 0 1
vn 0 0 -1
vn 0 -1 0
vn 0 1 0

# texcoords
vt 0.166016 0.5
vt 0.169922 0.5
vt 0.224609 0.5
vt 0.228516 0.5

# verts
v 2.3 2.9 -2.5
v 2.3 2.9 -3.7
v 2.3 3.1 -2.5
v 2.3 3.1 -3.7
v 2.3 3.4 -2.5
v 2.3 3.4 -3.7
v 2.3 3.6 -2.5
v 2.3 3.6 -3.7
v 2.3 3.8 -2.5
v 2.3 3.8 -3.7
v 2.3 4 -2.5
v 2.3 4 -3.7
v 2.6 2 -2.8
v 2.6 2 -3.1
v 2.6 2.1 -2.8
v 2.6 2.1 -3.1
v 2.6 2.7 -2.3
v 2.6 2.7 -2.9
v 2.6 2.8 -2.3
v 2.6 2.8 -2.9
v 2.6 2.9 -2.5
v 2.6 2.9 -2.9
v 2.6 3 -2.3
v 2.6 3 -2.5
v 2.6 3.1 -2.5
v 2.6 3.2 -2.3
v 2.6 3.2 -2.5
v 2.6 3.3 -2.3
v 2.6 3.3 -2.5
v 2.6 3.4 -2.3
v 2.6 3.4 -2.5
v 2.7 2 -3.1
v 2.7 2 -3.3
v 2.7 2.1 -2.9
v 2.7 2.1 -3
v 2.7 2.1 -3.1
v 2.7 2.1 -3.2
v 2.7 2.1 -3.3
v 2.7 2.2 -3.1
v 2.7 2.2 -3.2
v 2.7 2.3 -2.9
v 2.7 2.3 -3
v 2.7 2.5 -2.9
v 2.7 2.5 -3
v 2.7 2.6 -2.9
v 2.7 2.6 -3
v 2.7 2.7 -2.9
v 2.7 2.8 -2.9
v 2.7 2.9 -2.9
v 2.7 2.9 -3.3
v 2.8 2.4 -2.6
v 2.8 2.4 -2.8
v 2.8 2.4 -2.9
v 2.8 2.5 -2.6
v 2.8 2.5 -2.7
v 2.8 2.5 -2.9
v 2.8 2.6 -2.6
v 2.8 2.6 -2.7
v 2.8 2.6 -2.8
v 2.8 2.6 -2.9
v 2.9 2 -3.3
v 2.9 2 -3.4
v 2.9 2.1 -3.3
v 2.9 2.1 -3.4
v 2.9 2.2 -3.3
v 2.9 2.2 -3.4
v 2.9 2.5 -2.5
v 2.9 2.5 -2.6
v 2.9 2.6 -2.5
v 2.9 2.6 -2.6
v 2.9 2.6 -2.7
v 2.9 2.7 -2.5
v 2.9 2.7 -2.7
v 3 2 -2.8
v 3 2 -2.9
v 3 2.1 -2.9
v 3 2.2 -2.8
v 3 2.2 -2.9
v 2.8 2 -2.8
v 2.8 2 -2.9
v 2.8 2.1 -2.8
v 2.8 2.1 -2.9
v 3 2.4 -2.6
v 3 2.4 -2.7
v 3 2.4 -2.9
v 3 2.5 -2.6
v 3 2.5 -2.7
v 3 2.5 -2.8
v 3 2.5 -2.9
v 3 2.6 -2.7
v 3 2.6 -2.8
v 3 2.6 -2.9
v 3.1 2 -3
v 3.1 2 -3.2
v 3.1 2.1 -2.8
v 3.1 2.1 -2.9
v 3.1 2.1 -3
v 3.1 2.1 -3.1
v 3.1 2.1 -3.2
v 3.1 2.2 -2.8
v 3.1 2.2 -2.9
v 3.1 2.2 -3.1
v 3.1 2.2 -3.2
v 3.1 2.2 -3.3
v 3.1 2.3 -2.9
v 3.1 2.3 -3
v 3.1 2.3 -3.2
v 3.1 2.3 -3.3
v 3.1 2.4 -2.9
v 3.1 2.4 -3
v 3.1 2.5 -2.5
v 3.1 2.5 -2.6
v 3.1 2.5 -2.7
v 3.1 2.5 -2.9
v 3.1 2.5 -3
v 3.1 2.6 -2.6
v 3.1 2.6 -2.7
v 3.1 2.7 -2.5
v 3.1 2.7 -2.7
v 3.1 2.7 -2.9
v 3.1 2.8 -2.9
v 3.1 2.9 -2.9
v 3.1 2.9 -3.3
v 3.2 2 -2.8
v 3.2 2 -3
v 3.2 2 -3.2
v 3.2 2 -3.3
v 3.2 2 -3.4
v 3.2 2.1 -2.8
v 3.2 2.1 -2.9
v 3.2 2.1 -3.2
v 3.2 2.1 -3.3
v 3.2 2.2 -3.2
v 3.2 2.2 -3.4
v 3.2 2.3 -2.9
v 3.2 2.3 -3
v 3.4 2.7 -2.3
v 3.4 2.7 -2.9
v 3.4 2.8 -2.3
v 3.4 2.8 -2.9
v 3.4 2.9 -2.5
v 3.4 2.9 -2.9
v 3.4 3 -2.3
v 3.4 3 -2.5
v 3.4 3.1 -2.5
v 3.4 3.2 -2.3
v 3.4 3.2 -2.5
v 3.4 3.3 -2.3
v 3.4 3.3 -2.5
v 3.4 3.4 -2.3
v 3.4 3.4 -2.5
v 3.5 2.9 -2.5
v 3.5 2.9 -3.7
v 3.5 3.1 -2.5
v 3.5 3.1 -3.7
v 3.5 3.4 -2.5
v 3.5 3.4 -3.7
v 3.5 3.6 -2.5
v 3.5 3.6 -3.7
v 3.5 3.8 -2.5
v 3.5 3.8 -3.7
v 3.5 4 -2.5
v 3.5 4 -3.7
v 2.6 2.7 -2.3
v 2.6 2.8 -2.3
v 2.6 3 -2.3
v 2.6 3.2 -2.3
v 2.6 3.3 -2.3
v 2.6 3.4 -2.3
v 3.4 2.7 -2.3
v 3.4 2.8 -2.3
v 3.4 3 -2.3
v 3.4 3.2 -2.3
v 3.4 3.3 -2.3
v 3.4 3.4 -2.3
v 2.3 2.9 -2.5
v 2.3 3.1 -2.5
v 2.3 3.4 -2.5
v 2.3 3.6 -2.5
v 2.3 3.8 -2.5
v 2.3 4 -2.5
v 2.6 2.9 -2.5
v 2.6 3 -2.5
v 2.6 3.1 -2.5
v 2.6 3.2 -2.5
v 2.6 3.3 -2.5
v 2.6 3.4 -2.5
v 2.9 2.5 -2.5
v 2.9 2.6 -2.5
v 2.9 2.7 -2.5
v 3 2.5 -2.5
v 3 2.6 -2.5
v 3.1 2.5 -2.5
v 3.1 2.7 -2.5
v 3.4 2.9 -2.5
v 3.4 3 -2.5
v 3.4 3.1 -2.5
v 3.4 3.2 -2.5
v 3.4 3.3 -2.5
v 3.4 3.4 -2.5
v 3.5 2.9 -2.5
v 3.5 3.1 -2.5
v 3.5 3.4 -2.5
v 3.5 3.6 -2.5
v 3.5 3.8 -2.5
v 3.5 4 -2.5
v 2.8 2.4 -2.6
v 2.8 2.5 -2.6
v 2.8 2.6 -2.6
v 2.9 2.4 -2.6
v 2.9 2.5 -2.6
v 2.9 2.6 -2.6
v 3 2.4 -2.6
v 3 2.5 -2.6
v 2.6 2 -2.8
v 2.6 2.1 -2.8
v 2.8 2 -2.8
v 2.8 2.1 -2.8
v 3 2 -2.8
v 3 2.2 -2.8
v 3.1 2.1 -2.8
v 3.1 2.2 -2.8
v 3.2 2 -2.8
v 3.2 2.1 -2.8
v 2.7 2.1 -2.9
v 2.7 2.3 -2.9
v 2.7 2.5 -2.9
v 2.7 2.6 -2.9
v 2.7 2.7 -2.9
v 2.8 2 -2.9
v 2.8 2.1 -2.9
v 2.8 2.2 -2.9
v 2.8 2.3 -2.9
v 2.8 2.4 -2.9
v 2.8 2.5 -2.9
v 2.8 2.6 -2.9
v 2.9 2.1 -2.9
v 2.9 2.2 -2.9
v 2.9 2.3 -2.9
v 2.9 2.4 -2.9
v 2.9 2.6 -2.9
v 2.9 2.7 -2.9
v 3 2 -2.9
v 3 2.1 -2.9
v 3 2.2 -2.9
v 3 2.3 -2.9
v 3 2.4 -2.9
v 3 2.5 -2.9
v 3 2.6 -2.9
v 3 2.7 -2.9
v 3.1 2.1 -2.9
v 3.1 2.2 -2.9
v 3.1 2.3 -2.9
v 3.1 2.4 -2.9
v 3.1 2.5 -2.9
v 3.1 2.7 -2.9
v 3.2 2.1 -2.9
v 3.2 2.3 -2.9
v 3.1 2 -3.2
v 3.1 2.1 -3.2
v 3.1 2.2 -3.2
v 3.2 2 -3.2
v 3.2 2.1 -3.2
v 3.2 2.2 -3.2
v 2.9 2.6 -2.7
v 2.9 2.7 -2.7
v 3 2.5 -2.7
v 3 2.6 -2.7
v 3.1 2.5 -2.7
v 3.1 2.6 -2.7
v 3.1 2.7 -2.7
v 2.6 2.7 -2.9
v 2.6 2.8 -2.9
v 2.6 2.9 -2.9
v 2.7 2.7 -2.9
v 2.7 2.8 -2.9
v 2.7 2.9 -2.9
v 3.1 2.7 -2.9
v 3.1 2.8 -2.9
v 3.1 2.9 -2.9
v 3.4 2.7 -2.9
v 3.4 2.8 -2.9
v 3.4 2.9 -2.9
v 3.1 2 -3
v 3.1 2.1 -3
v 3.1 2.3 -3
v 3.2 2 -3
v 3.2 2.3 -3
v 2.6 2 -3.1
v 2.6 2.1 -3.1
v 2.7 2 -3.1
v 2.7 2.1 -3.1
v 2.7 2 -3.3
v 2.7 2.1 -3.3
v 2.7 2.9 -3.3
v 2.8 2.1 -3.3
v 2.8 2.3 -3.3
v 2.9 2 -3.3
v 2.9 2.1 -3.3
v 2.9 2.2 -3.3
v 2.9 2.3 -3.3
v 3 2.2 -3.3
v 3 2.3 -3.3
v 3.1 2.2 -3.3
v 3.1 2.3 -3.3
v 3.1 2.9 -3.3
v 2.9 2 -3.4
v 2.9 2.1 -3.4
v 2.9 2.2 -3.4
v 3 2 -3.4
v 3 2.1 -3.4
v 3.2 2 -3.4
v 3.2 2.2 -3.4
v 2.3 2.9 -3.7
v 2.3 3.1 -3.7
v 2.3 3.4 -3.7
v 2.3 3.6 -3.7
v 2.3 3.8 -3.7
v 2.3 4 -3.7
v 3.5 2.9 -3.7
v 3.5 3.1 -3.7
v 3.5 3.4 -3.7
v 3.5 3.6 -3.7
v 3.5 3.8 -3.7
v 3.5 4 -3.7
v 2.6 2 -2.8
v 2.8 2 -2.8
v 3 2 -2.8
v 3.2 2 -2.8
v 2.8 2 -2.9
v 3 2 -2.9
v 3.1 2 -2.9
v 2.8 2 -3
v 3 2 -3
v 3.1 2 -3
v 3.2 2 -3
v 2.6 2 -3.1
v 2.7 2 -3.1
v 2.8 2 -3.1
v 2.8 2 -3.2
v 2.9 2 -3.2
v 3 2 -3.2
v 3.1 2 -3.2
v 3.2 2 -3.2
v 2.7 2 -3.3
v 2.9 2 -3.3
v 3 2 -3.3
v 3.1 2 -3.3
v 3.2 2 -3.3
v 2.9 2 -3.4
v 3 2 -3.4
v 3.2 2 -3.4
v 2.8 2.4 -2.6
v 2.9 2.4 -2.6
v 3 2.4 -2.6
v 2.9 2.4 -2.7
v 3 2.4 -2.7
v 2.8 2.4 -2.8
v 2.9 2.4 -2.8
v 2.8 2.4 -2.9
v 2.9 2.4 -2.9
v 3 2.4 -2.9
v 2.9 2.5 -2.5
v 3 2.5 -2.5
v 3.1 2.5 -2.5
v 2.9 2.5 -2.6
v 3 2.5 -2.6
v 3.1 2.5 -2.6
v 3 2.5 -2.7
v 3.1 2.5 -2.7
v 2.6 2.7 -2.3
v 3.4 2.7 -2.3
v 2.9 2.7 -2.5
v 3.1 2.7 -2.5
v 2.9 2.7 -2.7
v 3.1 2.7 -2.7
v 2.6 2.7 -2.9
v 2.7 2.7 -2.9
v 2.9 2.7 -2.9
v 3 2.7 -2.9
v 3.1 2.7 -2.9
v 3.4 2.7 -2.9
v 2.3 2.9 -2.5
v 2.6 2.9 -2.5
v 3.4 2.9 -2.5
v 3.5 2.9 -2.5
v 2.6 2.9 -2.9
v 2.7 2.9 -2.9
v 3.1 2.9 -2.9
v 3.4 2.9 -2.9
v 2.7 2.9 -3.3
v 3.1 2.9 -3.3
v 2.3 2.9 -3.7
v 3.5 2.9 -3.7
v 2.6 2.1 -2.8
v 2.8 2.1 -2.8
v 3.1 2.1 -2.8
v 3.2 2.1 -2.8
v 2.7 2.1 -2.9
v 2.8 2.1 -2.9
v 3.1 2.1 -2.9
v 3.2 2.1 -2.9
v 2.7 2.1 -3
v 2.6 2.1 -3.1
v 2.7 2.1 -3.1
v 3 2.2 -2.8
v 3.1 2.2 -2.8
v 3 2.2 -2.9
v 3.1 2.2 -2.9
v 3.1 2.2 -3.2
v 3.2 2.2 -3.2
v 2.9 2.2 -3.3
v 3 2.2 -3.3
v 3.1 2.2 -3.3
v 2.9 2.2 -3.4
v 3.2 2.2 -3.4
v 3.1 2.3 -2.9
v 3.2 2.3 -2.9
v 3.1 2.3 -3
v 3.2 2.3 -3
v 2.8 2.6 -2.6
v 2.9 2.6 -2.6
v 2.8 2.6 -2.7
v 2.9 2.6 -2.7
v 3 2.6 -2.7
v 2.8 2.6 -2.8
v 3 2.6 -2.8
v 2.8 2.6 -2.9
v 2.9 2.6 -2.9
v 3 2.6 -2.9
v 2.6 3.4 -2.3
v 3.4 3.4 -2.3
v 2.6 3.4 -2.5
v 3.4 3.4 -2.5
v 2.3 4 -2.5
v 3.5 4 -2.5
v 2.3 4 -3.7
v 3.5 4 -3.7

# faces
f 3/2/1 2/2/1 1/2/1
f 4/2/1 2/2/1 3/2/1
f 5/1/1 4/1/1 3/1/1
f 6/1/1 4/1/1 5/1/1
f 7/2/1 6/2/1 5/2/1
f 8/2/1 6/2/1 7/2/1
f 9/1/1 8/1/1 7/1/1
f 10/1/1 8/1/1 9/1/1
f 11/2/1 10/2/1 9/2/1
f 12/2/1 10/2/1 11/2/1
f 15/4/1 14/4/1 13/4/1
f 16/4/1 14/4/1 15/4/1
f 19/2/1 18/2/1 17/2/1
f 20/2/1 18/2/1 19/2/1
f 21/1/1 20/1/1 19/1/1
f 22/1/1 20/1/1 21/1/1
f 23/1/1 21/1/1 19/1/1
f 24/1/1 21/1/1 23/1/1
f 25/2/1 24/2/1 23/2/1
f 26/2/1 25/2/1 23/2/1
f 27/2/1 25/2/1 26/2/1
f 28/1/1 27/1/1 26/1/1
f 29/1/1 27/1/1 28/1/1
f 30/2/1 29/2/1 28/2/1
f 31/2/1 29/2/1 30/2/1
f 36/3/1 33/3/1 32/3/1
f 37/3/1 33/3/1 36/3/1
f 38/3/1 33/3/1 37/3/1
f 39/4/1 36/4/1 35/4/1
f 39/3/1 37/3/1 36/3/1
f 40/4/1 38/4/1 37/4/1
f 40/3/1 37/3/1 39/3/1
f 41/3/1 35/3/1 34/3/1
f 42/4/1 39/4/1 35/4/1
f 42/3/1 35/3/1 41/3/1
f 42/4/1 40/4/1 39/4/1
f 43/4/1 42/4/1 41/4/1
f 44/4/1 40/4/1 42/4/1
f 44/4/1 42/4/1 43/4/1
f 45/3/1 44/3/1 43/3/1
f 46/4/1 40/4/1 44/4/1
f 46/3/1 44/3/1 45/3/1
f 47/4/1 46/4/1 45/4/1
f 48/4/1 46/4/1 47/4/1
f 49/4/1 46/4/1 48/4/1
f 50/4/1 38/4/1 40/4/1
f 50/4/1 46/4/1 49/4/1
f 50/4/1 40/4/1 46/4/1
f 54/4/1 52/4/1 51/4/1
f 55/4/1 52/4/1 54/4/1
f 56/3/1 53/3/1 52/3/1
f 57/3/1 55/3/1 54/3/1
f 58/4/1 52/4/1 55/4/1
f 58/3/1 55/3/1 57/3/1
f 59/3/1 56/3/1 52/3/1
f 59/4/1 52/4/1 58/4/1
f 60/3/1 56/3/1 59/3/1
f 63/3/1 62/3/1 61/3/1
f 64/3/1 62/3/1 63/3/1
f 65/4/1 64/4/1 63/4/1
f 66/4/1 64/4/1 65/4/1
f 69/3/1 68/3/1 67/3/1
f 70/3/1 68/3/1 69/3/1
f 72/4/1 70/4/1 69/4/1
f 72/4/1 71/4/1 70/4/1
f 73/4/1 71/4/1 72/4/1
f 76/3/1 75/3/1 74/3/1
f 77/3/1 76/3/1 74/3/1
f 78/3/1 76/3/1 77/3/1
f 79/4/2 80/4/2 81/4/2
f 81/4/2 80/4/2 82/4/2
f 83/3/2 84/3/2 86/3/2
f 84/4/2 85/4/2 87/4/2
f 86/3/2 84/3/2 87/3/2
f 87/4/2 85/4/2 88/4/2
f 88/4/2 85/4/2 89/4/2
f 87/4/2 88/4/2 90/4/2
f 88/3/2 89/3/2 91/3/2
f 90/4/2 88/4/2 91/4/2
f 91/3/2 89/3/2 92/3/2
f 93/3/2 94/3/2 97/3/2
f 97/3/2 94/3/2 98/3/2
f 98/3/2 94/3/2 99/3/2
f 95/3/2 96/3/2 100/3/2
f 100/3/2 96/3/2 101/3/2
f 97/4/2 98/4/2 102/4/2
f 98/3/2 99/3/2 102/3/2
f 102/3/2 99/3/2 103/3/2
f 102/4/2 103/4/2 106/4/2
f 97/4/2 102/4/2 106/4/2
f 103/3/2 104/3/2 107/3/2
f 106/4/2 103/4/2 107/4/2
f 107/3/2 104/3/2 108/3/2
f 105/4/2 106/4/2 109/4/2
f 106/4/2 107/4/2 109/4/2
f 107/4/2 108/4/2 109/4/2
f 109/4/2 108/4/2 110/4/2
f 109/3/2 110/3/2 114/3/2
f 110/4/2 108/4/2 115/4/2
f 114/3/2 110/3/2 115/3/2
f 112/3/2 113/3/2 116/3/2
f 111/4/2 112/4/2 116/4/2
f 116/3/2 113/3/2 117/3/2
f 111/4/2 116/4/2 118/4/2
f 116/4/2 117/4/2 118/4/2
f 118/4/2 117/4/2 119/4/2
f 114/4/2 115/4/2 120/4/2
f 120/4/2 115/4/2 121/4/2
f 121/4/2 115/4/2 122/4/2
f 115/4/2 108/4/2 123/4/2
f 122/4/2 115/4/2 123/4/2
f 124/3/2 125/3/2 129/3/2
f 129/3/2 125/3/2 130/3/2
f 126/3/2 127/3/2 131/3/2
f 127/4/2 128/4/2 132/4/2
f 131/3/2 127/3/2 132/3/2
f 131/4/2 132/4/2 133/4/2
f 132/4/2 128/4/2 134/4/2
f 133/4/2 132/4/2 134/4/2
f 130/3/2 125/3/2 135/3/2
f 135/3/2 125/3/2 136/3/2
f 137/2/2 138/2/2 139/2/2
f 139/2/2 138/2/2 140/2/2
f 139/1/2 140/1/2 141/1/2
f 141/1/2 140/1/2 142/1/2
f 139/1/2 141/1/2 143/1/2
f 143/1/2 141/1/2 144/1/2
f 143/2/2 144/2/2 145/2/2
f 143/2/2 145/2/2 146/2/2
f 146/2/2 145/2/2 147/2/2
f 146/1/2 147/1/2 148/1/2
f 148/1/2 147/1/2 149/1/2
f 148/2/2 149/2/2 150/2/2
f 150/2/2 149/2/2 151/2/2
f 152/2/2 153/2/2 154/2/2
f 154/2/2 153/2/2 155/2/2
f 154/1/2 155/1/2 156/1/2
f 156/1/2 155/1/2 157/1/2
f 156/2/2 157/2/2 158/2/2
f 158/2/2 157/2/2 159/2/2
f 158/1/2 159/1/2 160/1/2
f 160/1/2 159/1/2 161/1/2
f 160/2/2 161/2/2 162/2/2
f 162/2/2 161/2/2 163/2/2
f 170/2/3 165/2/3 164/2/3
f 171/1/3 166/1/3 165/1/3
f 171/2/3 165/2/3 170/2/3
f 172/2/3 167/2/3 166/2/3
f 172/1/3 166/1/3 171/1/3
f 173/1/3 168/1/3 167/1/3
f 173/2/3 167/2/3 172/2/3
f 174/2/3 169/2/3 168/2/3
f 174/1/3 168/1/3 173/1/3
f 175/2/3 169/2/3 174/2/3
f 182/2/3 177/2/3 176/2/3
f 183/2/3 177/2/3 182/2/3
f 184/1/3 178/1/3 177/1/3
f 184/2/3 177/2/3 183/2/3
f 185/1/3 178/1/3 184/1/3
f 186/1/3 178/1/3 185/1/3
f 187/2/3 179/2/3 178/2/3
f 187/1/3 178/1/3 186/1/3
f 191/3/3 189/3/3 188/3/3
f 192/4/3 190/4/3 189/4/3
f 192/3/3 189/3/3 191/3/3
f 193/4/3 192/4/3 191/4/3
f 194/4/3 190/4/3 192/4/3
f 194/4/3 192/4/3 193/4/3
f 200/2/3 179/2/3 187/2/3
f 201/2/3 196/2/3 195/2/3
f 201/2/3 197/2/3 196/2/3
f 202/1/3 199/1/3 198/1/3
f 202/2/3 197/2/3 201/2/3
f 202/1/3 200/1/3 199/1/3
f 202/1/3 198/1/3 197/1/3
f 203/2/3 179/2/3 200/2/3
f 203/1/3 200/1/3 202/1/3
f 204/1/3 180/1/3 179/1/3
f 204/2/3 179/2/3 203/2/3
f 205/2/3 181/2/3 180/2/3
f 205/1/3 180/1/3 204/1/3
f 206/2/3 181/2/3 205/2/3
f 210/4/3 208/4/3 207/4/3
f 211/3/3 209/3/3 208/3/3
f 211/4/3 208/4/3 210/4/3
f 212/3/3 209/3/3 211/3/3
f 213/3/3 211/3/3 210/3/3
f 214/3/3 211/3/3 213/3/3
f 217/4/3 216/4/3 215/4/3
f 218/4/3 216/4/3 217/4/3
f 221/3/3 220/3/3 219/3/3
f 222/3/3 220/3/3 221/3/3
f 223/3/3 221/3/3 219/3/3
f 224/3/3 221/3/3 223/3/3
f 231/3/3 226/3/3 225/3/3
f 232/3/3 226/3/3 231/3/3
f 233/4/3 227/4/3 226/4/3
f 233/3/3 226/3/3 232/3/3
f 234/4/3 227/4/3 233/4/3
f 235/3/3 228/3/3 227/3/3
f 235/4/3 227/4/3 234/4/3
f 236/4/3 229/4/3 228/4/3
f 236/3/3 228/3/3 235/3/3
f 237/3/3 232/3/3 231/3/3
f 237/3/3 231/3/3 230/3/3
f 238/4/3 233/4/3 232/4/3
f 238/3/3 232/3/3 237/3/3
f 238/4/3 234/4/3 233/4/3
f 239/4/3 234/4/3 238/4/3
f 240/4/3 234/4/3 239/4/3
f 241/4/3 229/4/3 236/4/3
f 242/4/3 229/4/3 241/4/3
f 243/3/3 237/3/3 230/3/3
f 244/4/3 238/4/3 237/4/3
f 244/3/3 237/3/3 243/3/3
f 244/4/3 239/4/3 238/4/3
f 245/4/3 239/4/3 244/4/3
f 246/3/3 240/3/3 239/3/3
f 246/4/3 239/4/3 245/4/3
f 247/3/3 240/3/3 246/3/3
f 249/3/3 242/3/3 241/3/3
f 250/3/3 242/3/3 249/3/3
f 252/4/3 246/4/3 245/4/3
f 252/4/3 247/4/3 246/4/3
f 253/4/3 247/4/3 252/4/3
f 254/3/3 248/3/3 247/3/3
f 254/4/3 247/4/3 253/4/3
f 255/4/3 250/4/3 249/4/3
f 255/3/3 248/3/3 254/3/3
f 255/4/3 249/4/3 248/4/3
f 256/4/3 250/4/3 255/4/3
f 257/3/3 253/3/3 252/3/3
f 257/3/3 252/3/3 251/3/3
f 258/3/3 253/3/3 257/3/3
f 262/3/3 260/3/3 259/3/3
f 263/4/3 261/4/3 260/4/3
f 263/3/3 260/3/3 262/3/3
f 264/4/3 261/4/3 263/4/3
f 265/4/4 266/4/4 268/4/4
f 267/3/4 268/3/4 269/3/4
f 268/4/4 266/4/4 270/4/4
f 269/3/4 268/3/4 270/3/4
f 270/4/4 266/4/4 271/4/4
f 272/2/4 273/2/4 275/2/4
f 273/1/4 274/1/4 276/1/4
f 275/2/4 273/2/4 276/2/4
f 276/1/4 274/1/4 277/1/4
f 278/2/4 279/2/4 281/2/4
f 279/1/4 280/1/4 282/1/4
f 281/2/4 279/2/4 282/2/4
f 282/1/4 280/1/4 283/1/4
f 284/3/4 285/3/4 287/3/4
f 285/3/4 286/3/4 287/3/4
f 287/3/4 286/3/4 288/3/4
f 289/4/4 290/4/4 291/4/4
f 291/4/4 290/4/4 292/4/4
f 293/3/4 294/3/4 296/3/4
f 294/4/4 295/4/4 296/4/4
f 296/4/4 295/4/4 297/4/4
f 293/3/4 296/3/4 298/3/4
f 296/3/4 297/3/4 298/3/4
f 298/3/4 297/3/4 299/3/4
f 299/3/4 297/3/4 300/3/4
f 297/4/4 295/4/4 301/4/4
f 300/3/4 297/3/4 301/3/4
f 300/4/4 301/4/4 302/4/4
f 301/4/4 295/4/4 303/4/4
f 302/4/4 301/4/4 303/4/4
f 302/3/4 303/3/4 304/3/4
f 303/4/4 295/4/4 305/4/4
f 304/3/4 303/3/4 305/3/4
f 305/4/4 295/4/4 306/4/4
f 307/3/4 308/3/4 310/3/4
f 308/4/4 309/4/4 311/4/4
f 310/3/4 308/3/4 311/3/4
f 310/4/4 311/4/4 312/4/4
f 311/4/4 309/4/4 313/4/4
f 312/4/4 311/4/4 313/4/4
f 314/2/4 315/2/4 320/2/4
f 315/1/4 316/1/4 321/1/4
f 320/2/4 315/2/4 321/2/4
f 316/2/4 317/2/4 322/2/4
f 321/1/4 316/1/4 322/1/4
f 317/1/4 318/1/4 323/1/4
f 322/2/4 317/2/4 323/2/4
f 318/2/4 319/2/4 324/2/4
f 323/1/4 318/1/4 324/1/4
f 324/2/4 319/2/4 325/2/4
f 330/4/5 327/4/5 326/4/5
f 331/3/5 329/3/5 328/3/5
f 332/3/5 329/3/5 331/3/5
f 333/4/5 330/4/5 326/4/5
f 333/3/5 331/3/5 330/3/5
f 334/4/5 332/4/5 331/4/5
f 334/3/5 331/3/5 333/3/5
f 335/3/5 329/3/5 332/3/5
f 335/4/5 332/4/5 334/4/5
f 336/3/5 329/3/5 335/3/5
f 337/4/5 334/4/5 333/4/5
f 337/4/5 333/4/5 326/4/5
f 338/4/5 334/4/5 337/4/5
f 339/4/5 334/4/5 338/4/5
f 340/4/5 334/4/5 339/4/5
f 340/3/5 339/3/5 338/3/5
f 341/4/5 334/4/5 340/4/5
f 342/3/5 335/3/5 334/3/5
f 342/4/5 334/4/5 341/4/5
f 343/3/5 335/3/5 342/3/5
f 345/3/5 341/3/5 340/3/5
f 345/3/5 340/3/5 338/3/5
f 346/4/5 343/4/5 342/4/5
f 346/3/5 341/3/5 345/3/5
f 346/4/5 342/4/5 341/4/5
f 347/4/5 343/4/5 346/4/5
f 348/3/5 344/3/5 343/3/5
f 348/4/5 343/4/5 347/4/5
f 349/3/5 344/3/5 348/3/5
f 350/3/5 347/3/5 346/3/5
f 351/4/5 349/4/5 348/4/5
f 351/3/5 347/3/5 350/3/5
f 351/4/5 348/4/5 347/4/5
f 352/4/5 349/4/5 351/4/5
f 356/4/5 354/4/5 353/4/5
f 356/3/5 355/3/5 354/3/5
f 357/3/5 355/3/5 356/3/5
f 358/4/5 356/4/5 353/4/5
f 358/4/5 357/4/5 356/4/5
f 359/4/5 357/4/5 358/4/5
f 360/3/5 359/3/5 358/3/5
f 361/4/5 357/4/5 359/4/5
f 361/3/5 359/3/5 360/3/5
f 362/4/5 357/4/5 361/4/5
f 366/3/5 364/3/5 363/3/5
f 367/4/5 365/4/5 364/4/5
f 367/3/5 364/3/5 366/3/5
f 368/4/5 365/4/5 367/4/5
f 369/3/5 368/3/5 367/3/5
f 370/3/5 368/3/5 369/3/5
f 373/2/5 372/2/5 371/2/5
f 374/2/5 372/2/5 373/2/5
f 375/2/5 373/2/5 371/2/5
f 376/2/5 372/2/5 374/2/5
f 377/2/5 375/2/5 371/2/5
f 377/2/5 376/2/5 375/2/5
f 378/2/5 376/2/5 377/2/5
f 379/2/5 376/2/5 378/2/5
f 380/2/5 376/2/5 379/2/5
f 381/2/5 372/2/5 376/2/5
f 381/2/5 376/2/5 380/2/5
f 382/2/5 372/2/5 381/2/5
f 387/2/5 384/2/5 383/2/5
f 390/2/5 386/2/5 385/2/5
f 391/2/5 388/2/5 387/2/5
f 392/2/5 390/2/5 389/2/5
f 393/2/5 391/2/5 387/2/5
f 393/2/5 392/2/5 391/2/5
f 393/2/5 387/2/5 383/2/5
f 394/2/5 390/2/5 392/2/5
f 394/2/5 392/2/5 393/2/5
f 394/2/5 386/2/5 390/2/5
f 395/4/6 396/4/6 399/4/6
f 399/4/6 396/4/6 400/4/6
f 397/3/6 398/3/6 401/3/6
f 401/3/6 398/3/6 402/3/6
f 395/4/6 399/4/6 403/4/6
f 395/4/6 403/4/6 404/4/6
f 404/4/6 403/4/6 405/4/6
f 406/3/6 407/3/6 408/3/6
f 408/3/6 407/3/6 409/3/6
f 410/4/6 411/4/6 414/4/6
f 412/4/6 413/4/6 415/4/6
f 413/4/6 414/4/6 415/4/6
f 414/4/6 411/4/6 416/4/6
f 415/4/6 414/4/6 416/4/6
f 417/3/6 418/3/6 419/3/6
f 419/3/6 418/3/6 420/3/6
f 421/3/6 422/3/6 423/3/6
f 423/3/6 422/3/6 424/3/6
f 423/4/6 424/4/6 426/4/6
f 424/4/6 425/4/6 426/4/6
f 426/4/6 425/4/6 427/4/6
f 426/3/6 427/3/6 428/3/6
f 428/3/6 427/3/6 429/3/6
f 429/3/6 427/3/6 430/3/6
f 431/2/6 432/2/6 433/2/6
f 433/2/6 432/2/6 434/2/6
f 435/2/6 436/2/6 437/2/6
f 437/2/6 436/2/6 438/2/6
